<svg xmlns="http://www.w3.org/2000/svg" xmlns:xlink="http://www.w3.org/1999/xlink" width="500" zoomAndPan="magnify" viewBox="0 0 375 322.499991" height="430" preserveAspectRatio="xMidYMid meet" version="1.0"><defs><clipPath id="880729ee4c"><path d="M 79.660156 15.023438 L 285 15.023438 L 285 194 L 79.660156 194 Z M 79.660156 15.023438 " clip-rule="nonzero"/></clipPath><clipPath id="8cc0b57ec9"><path d="M 117.75 66.3125 L 291 66.3125 L 291 306.753906 L 117.75 306.753906 Z M 117.75 66.3125 " clip-rule="nonzero"/></clipPath><clipPath id="f7f3b21583"><path d="M 186 164 L 192 164 L 192 219.359375 L 186 219.359375 Z M 186 164 " clip-rule="nonzero"/></clipPath><clipPath id="b6a0960421"><path d="M 175.707031 161 L 199 161 L 199 185 L 175.707031 185 Z M 175.707031 161 " clip-rule="nonzero"/></clipPath></defs><path fill="#231f20" d="M 157.644531 115.316406 C 146.96875 115.316406 138.285156 123.953125 138.285156 134.585938 C 138.285156 139.117188 139.878906 143.351562 142.617188 146.65625 C 139.851562 149.996094 138.285156 154.210938 138.285156 158.710938 C 138.285156 169.375 146.964844 178.058594 157.644531 178.058594 C 168.273438 178.058594 176.921875 169.375 176.921875 158.710938 C 176.921875 154.226562 175.367188 150.007812 172.621094 146.648438 C 175.367188 143.289062 176.921875 139.070312 176.921875 134.585938 C 176.921875 123.957031 168.273438 115.316406 157.644531 115.316406 Z M 157.644531 122.292969 C 164.429688 122.292969 169.945312 127.808594 169.945312 134.585938 C 169.945312 138.265625 168.351562 141.679688 165.460938 144.03125 C 162.324219 146.785156 157.457031 147.472656 153.449219 146.097656 C 152.085938 145.617188 150.808594 144.898438 149.695312 143.925781 C 146.878906 141.679688 145.265625 138.273438 145.265625 134.589844 C 145.261719 127.808594 150.816406 122.292969 157.644531 122.292969 Z M 157.644531 171.082031 C 150.816406 171.082031 145.261719 165.53125 145.261719 158.710938 C 145.261719 155.914062 146.191406 153.277344 147.867188 151.199219 C 147.878906 151.207031 147.894531 151.207031 147.90625 151.214844 C 149.25 152.015625 150.722656 152.578125 152.242188 153.019531 C 152.445312 153.078125 152.640625 153.136719 152.851562 153.1875 C 154.402344 153.582031 155.996094 153.859375 157.644531 153.859375 C 159.3125 153.859375 160.921875 153.578125 162.484375 153.179688 C 162.644531 153.140625 162.792969 153.097656 162.949219 153.054688 C 164.519531 152.609375 166.03125 152.03125 167.398438 151.21875 C 169.039062 153.316406 169.949219 155.929688 169.949219 158.710938 C 169.945312 165.53125 164.429688 171.082031 157.644531 171.082031 Z M 157.644531 171.082031 " fill-opacity="1" fill-rule="nonzero"/><g clip-path="url(#880729ee4c)"><path fill="#231f20" d="M 284.804688 40.105469 L 284.804688 26.75 C 284.804688 20.636719 279.835938 15.667969 273.722656 15.667969 L 90.628906 15.667969 C 84.519531 15.667969 79.546875 20.632812 79.546875 26.75 L 79.546875 40.191406 C 79.546875 40.214844 79.554688 40.238281 79.558594 40.261719 L 79.558594 78.261719 C 79.558594 91.679688 90.476562 102.585938 103.890625 102.585938 L 118.457031 102.585938 L 118.457031 179.832031 C 118.457031 187.398438 124.613281 193.546875 132.175781 193.546875 L 232.203125 193.546875 C 239.773438 193.546875 245.929688 187.398438 245.929688 179.832031 L 245.929688 102.585938 L 260.492188 102.585938 C 273.910156 102.585938 284.824219 91.675781 284.824219 78.261719 L 284.824219 40.222656 C 284.828125 40.179688 284.804688 40.144531 284.804688 40.105469 Z M 86.523438 26.746094 C 86.523438 24.484375 88.363281 22.640625 90.625 22.640625 L 273.71875 22.640625 C 275.984375 22.640625 277.820312 24.484375 277.820312 26.746094 L 277.820312 36.703125 L 86.523438 36.703125 Z M 125.433594 179.828125 L 125.433594 73.089844 L 192.707031 73.089844 L 192.707031 186.570312 L 132.175781 186.570312 C 128.460938 186.570312 125.433594 183.546875 125.433594 179.828125 Z M 199.683594 73.089844 L 217.554688 73.089844 L 217.554688 186.570312 L 199.683594 186.570312 Z M 238.953125 179.828125 C 238.953125 183.542969 235.925781 186.570312 232.207031 186.570312 L 224.53125 186.570312 L 224.53125 73.089844 L 238.953125 73.089844 Z M 277.851562 78.257812 C 277.851562 87.824219 270.0625 95.605469 260.496094 95.605469 L 245.933594 95.605469 L 245.933594 73.089844 L 256.308594 73.089844 C 258.234375 73.089844 259.800781 71.527344 259.800781 69.601562 C 259.800781 67.671875 258.234375 66.109375 256.308594 66.109375 L 121.949219 66.109375 C 121.949219 66.109375 121.949219 66.109375 121.945312 66.109375 C 121.941406 66.109375 121.945312 66.109375 121.941406 66.109375 L 108.078125 66.109375 C 106.148438 66.109375 104.585938 67.671875 104.585938 69.601562 C 104.585938 71.527344 106.148438 73.089844 108.078125 73.089844 L 118.453125 73.089844 L 118.453125 95.605469 L 103.886719 95.605469 C 94.316406 95.605469 86.535156 87.824219 86.535156 78.257812 L 86.535156 43.707031 L 277.847656 43.707031 L 277.847656 78.257812 Z M 277.851562 78.257812 " fill-opacity="1" fill-rule="nonzero"/></g><path fill="#fec4b9" d="M 275.425781 253.75 C 290.949219 238.835938 278.585938 222.460938 264.652344 229.902344 C 279.402344 214.089844 261.617188 197.234375 247.59375 209.410156 C 259.300781 198.886719 253.339844 185.292969 241.734375 186.835938 L 241.613281 186.835938 L 201.691406 217.253906 C 220.234375 165.410156 151.882812 195.808594 152.113281 236.347656 C 145.988281 241.917969 141.535156 247.082031 138.988281 250.265625 C 137.320312 252.347656 135.921875 254.777344 135.765625 257.4375 C 134.898438 272.410156 136.804688 291.46875 138.710938 304.566406 L 251.859375 304.566406 L 256.300781 300.519531 L 284.050781 272.84375 C 295.144531 261.273438 285.46875 250.28125 275.425781 253.75 Z M 275.425781 253.75 " fill-opacity="1" fill-rule="nonzero"/><path fill="#f7b6ad" d="M 218.414062 236.203125 L 191.347656 236.203125 L 191.085938 236.128906 C 188.972656 243.664062 183.101562 252.738281 170.628906 262.109375 C 169.859375 262.691406 169.785156 263.8125 170.46875 264.496094 C 173.078125 267.128906 179.257812 282.929688 180.820312 300.21875 C 180.820312 300.21875 188.378906 287.039062 182.535156 266.113281 C 182.535156 266.113281 195.101562 259.804688 198.316406 246.941406 L 230.183594 246.941406 L 230.183594 236.203125 Z M 218.414062 236.203125 " fill-opacity="1" fill-rule="nonzero"/><path fill="#e7f2f1" d="M 241.613281 214.332031 L 241.613281 236.203125 L 213.03125 236.203125 C 189.074219 178.695312 189.785156 122.839844 213.03125 68.496094 L 222.558594 68.496094 C 233.082031 68.496094 241.613281 77.027344 241.613281 87.554688 Z M 241.613281 214.332031 " fill-opacity="1" fill-rule="nonzero"/><path fill="#1ea6bc" d="M 213.03125 68.496094 L 213.03125 236.203125 L 191.347656 236.203125 L 191.085938 236.128906 C 192.71875 230.335938 192.132812 225.460938 190.632812 222.074219 C 188.761719 217.859375 183.75 215.976562 179.550781 217.898438 C 168.441406 222.972656 159.171875 229.925781 152.113281 236.347656 L 151.976562 236.203125 L 121.558594 236.203125 C 120.507812 236.203125 119.652344 235.347656 119.652344 234.296875 L 119.652344 87.554688 C 119.652344 77.027344 128.1875 68.496094 138.710938 68.496094 Z M 213.03125 68.496094 " fill-opacity="1" fill-rule="nonzero"/><path fill="#ef9d26" d="M 161.578125 173.3125 L 161.578125 186.652344 L 148.238281 186.652344 L 148.238281 171.40625 L 159.671875 171.40625 C 160.726562 171.40625 161.578125 172.257812 161.578125 173.3125 Z M 161.578125 173.3125 " fill-opacity="1" fill-rule="nonzero"/><path fill="#f9b132" d="M 148.238281 171.40625 L 148.238281 186.652344 L 134.898438 186.652344 L 134.898438 173.3125 C 134.898438 172.257812 135.75 171.40625 136.804688 171.40625 Z M 148.238281 171.40625 " fill-opacity="1" fill-rule="nonzero"/><path fill="#ffc05a" d="M 161.578125 186.652344 L 161.578125 207.617188 C 161.578125 208.667969 160.726562 209.519531 159.671875 209.519531 L 136.804688 209.519531 C 135.75 209.519531 134.898438 208.667969 134.898438 207.617188 L 134.898438 186.652344 Z M 161.578125 186.652344 " fill-opacity="1" fill-rule="nonzero"/><g clip-path="url(#8cc0b57ec9)"><path fill="#3a322b" d="M 289.160156 256.453125 C 287.183594 253.371094 283.847656 251.527344 280.183594 251.246094 C 285.839844 243.644531 285.40625 236.042969 282.003906 231.355469 C 279.527344 227.941406 275.085938 225.546875 269.730469 226.242188 C 273.859375 218.910156 272.242188 211.9375 268.144531 207.6875 C 264.863281 204.289062 259.679688 202.496094 254.242188 203.777344 C 256.171875 199.695312 256.410156 195.390625 254.699219 191.6875 C 252.6875 187.328125 248.507812 184.8125 243.519531 184.8125 L 243.519531 87.554688 C 243.519531 75.992188 234.117188 66.589844 222.558594 66.589844 L 138.710938 66.589844 C 127.152344 66.589844 117.75 75.992188 117.75 87.554688 L 117.75 234.296875 C 117.75 236.398438 119.457031 238.105469 121.558594 238.105469 L 147.488281 238.105469 C 142.910156 242.578125 139.523438 246.542969 137.496094 249.078125 C 135.207031 251.9375 134.019531 254.636719 133.863281 257.328125 C 132.847656 274.863281 135.597656 296.394531 136.824219 304.839844 C 136.960938 305.789062 137.777344 306.472656 138.707031 306.472656 C 138.796875 306.472656 138.890625 306.464844 138.984375 306.453125 C 140.027344 306.300781 140.746094 305.332031 140.597656 304.292969 C 139.382812 295.960938 136.671875 274.734375 137.667969 257.546875 C 137.777344 255.671875 138.695312 253.679688 140.472656 251.457031 C 145.636719 245.003906 159.855469 228.984375 180.339844 219.628906 C 181.914062 218.910156 183.675781 218.855469 185.308594 219.472656 C 186.925781 220.085938 188.195312 221.285156 188.890625 222.847656 C 192.445312 230.863281 189.496094 245.558594 169.484375 260.589844 C 168.679688 261.191406 168.175781 262.113281 168.101562 263.117188 C 168.03125 264.125 168.398438 265.117188 169.113281 265.839844 C 171.359375 268.101562 177.398438 283.503906 178.917969 300.394531 C 179.015625 301.441406 179.941406 302.210938 180.988281 302.121094 C 182.035156 302.027344 182.808594 301.097656 182.714844 300.050781 C 181.164062 282.835938 175.089844 266.980469 172.058594 263.417969 C 182.09375 255.824219 188.796875 247.773438 191.980469 239.484375 C 192.160156 239.015625 192.320312 238.558594 192.472656 238.105469 L 199.785156 238.105469 C 205.882812 243.457031 225.960938 262.238281 241.667969 290.191406 C 242.019531 290.8125 242.664062 291.164062 243.332031 291.164062 C 243.648438 291.164062 243.96875 291.085938 244.261719 290.917969 C 245.179688 290.402344 245.507812 289.242188 244.992188 288.324219 C 244.695312 287.796875 244.394531 287.28125 244.097656 286.757812 L 276.421875 255.433594 C 280.171875 254.304688 284.042969 255.53125 285.949219 258.507812 C 288.257812 262.113281 287.03125 266.976562 282.707031 271.492188 L 254.988281 299.136719 L 250.578125 303.15625 C 249.800781 303.863281 249.742188 305.070312 250.453125 305.847656 C 250.828125 306.261719 251.34375 306.472656 251.859375 306.472656 C 252.320312 306.472656 252.777344 306.304688 253.144531 305.972656 L 257.585938 301.929688 C 257.59375 301.917969 257.601562 301.90625 257.613281 301.894531 C 257.625 301.886719 257.636719 301.878906 257.648438 301.867188 L 285.425781 274.160156 C 292.089844 267.210938 291.722656 260.457031 289.160156 256.453125 Z M 265.398438 210.335938 C 269.167969 214.238281 269.96875 221.394531 263.28125 228.582031 L 228.527344 263.554688 C 222.714844 256.027344 217.097656 249.769531 212.433594 244.957031 C 213.804688 243.613281 216.339844 241.148438 219.488281 238.105469 L 241.613281 238.105469 C 242.667969 238.105469 243.519531 237.253906 243.519531 236.203125 L 243.519531 215.515625 C 245.566406 213.675781 247.351562 212.109375 248.84375 210.851562 C 255.21875 205.316406 261.894531 206.703125 265.398438 210.335938 Z M 251.238281 193.28125 C 252.859375 196.796875 252.421875 202.5 246.335938 207.984375 C 245.492188 208.695312 244.550781 209.507812 243.519531 210.414062 L 243.519531 188.625 C 247 188.636719 249.882812 190.339844 251.238281 193.28125 Z M 239.707031 87.554688 L 239.707031 234.296875 L 214.933594 234.296875 L 214.933594 70.402344 L 222.558594 70.402344 C 232.015625 70.402344 239.707031 78.09375 239.707031 87.554688 Z M 192.375 221.304688 C 191.265625 218.800781 189.234375 216.886719 186.660156 215.910156 C 184.070312 214.925781 181.265625 215.019531 178.757812 216.164062 C 167.832031 221.152344 158.644531 227.957031 151.566406 234.296875 L 121.558594 234.296875 L 121.558594 87.554688 C 121.558594 78.09375 129.253906 70.402344 138.710938 70.402344 L 211.125 70.402344 L 211.125 234.296875 L 193.488281 234.296875 C 194.703125 228.121094 193.417969 223.660156 192.375 221.304688 Z M 205.460938 238.105469 L 214.007812 238.105469 C 212.164062 239.894531 210.6875 241.332031 209.753906 242.242188 C 208.152344 240.652344 206.707031 239.269531 205.460938 238.105469 Z M 230.851562 266.621094 L 265.789062 231.464844 C 271.617188 228.472656 276.570312 230.355469 278.917969 233.59375 C 281.933594 237.746094 281.613281 245.164062 274.101562 252.378906 L 242.109375 283.378906 C 238.457031 277.304688 234.636719 271.703125 230.851562 266.621094 Z M 193.972656 144.726562 C 192.921875 144.726562 192.066406 143.871094 192.066406 142.820312 L 192.066406 91.363281 C 192.066406 90.3125 192.921875 89.457031 193.972656 89.457031 C 195.027344 89.457031 195.878906 90.3125 195.878906 91.363281 L 195.878906 142.820312 C 195.878906 143.871094 195.027344 144.726562 193.972656 144.726562 Z M 178.726562 91.363281 L 178.726562 142.820312 C 178.726562 143.871094 177.875 144.726562 176.824219 144.726562 C 175.769531 144.726562 174.917969 143.871094 174.917969 142.820312 L 174.917969 91.363281 C 174.917969 90.3125 175.769531 89.457031 176.824219 89.457031 C 177.875 89.457031 178.726562 90.3125 178.726562 91.363281 Z M 159.671875 169.5 L 136.804688 169.5 C 134.703125 169.5 132.992188 171.210938 132.992188 173.3125 L 132.992188 207.617188 C 132.992188 209.71875 134.703125 211.425781 136.804688 211.425781 L 159.671875 211.425781 C 161.773438 211.425781 163.484375 209.71875 163.484375 207.617188 L 163.484375 173.3125 C 163.484375 171.210938 161.773438 169.5 159.671875 169.5 Z M 159.671875 184.746094 L 150.144531 184.746094 L 150.144531 173.3125 L 159.671875 173.3125 Z M 146.332031 173.3125 L 146.332031 184.746094 L 136.804688 184.746094 L 136.804688 173.3125 Z M 136.804688 207.617188 L 136.804688 188.558594 L 159.671875 188.558594 L 159.675781 207.617188 Z M 136.804688 207.617188 " fill-opacity="1" fill-rule="nonzero"/></g><g clip-path="url(#f7f3b21583)"><path fill="#0032a2" d="M 189.332031 219.347656 C 188.234375 219.347656 187.316406 218.464844 187.277344 217.34375 C 186.925781 207.957031 186.25 167.191406 186.238281 166.785156 C 186.21875 165.644531 187.121094 164.699219 188.265625 164.679688 C 189.40625 164.660156 190.332031 165.570312 190.351562 166.722656 C 190.363281 167.140625 191.039062 207.851562 191.390625 217.199219 C 191.429688 218.339844 190.546875 219.304688 189.414062 219.347656 C 189.386719 219.347656 189.355469 219.347656 189.332031 219.347656 Z M 189.332031 219.347656 " fill-opacity="1" fill-rule="nonzero"/></g><g clip-path="url(#b6a0960421)"><path fill="#0032a2" d="M 177.992188 184.5 C 177.433594 184.5 176.871094 184.273438 176.46875 183.816406 C 175.707031 182.964844 175.769531 181.65625 176.613281 180.875 C 183.429688 174.636719 186 162.808594 186.03125 162.683594 C 186.226562 161.761719 187.019531 161.085938 187.964844 161.042969 C 188.902344 161.015625 189.746094 161.617188 190.023438 162.519531 C 190.054688 162.625 193.148438 172.921875 198.382812 180.203125 C 199.050781 181.125 198.847656 182.425781 197.929688 183.097656 C 197.015625 183.773438 195.730469 183.566406 195.0625 182.640625 C 192.046875 178.457031 189.746094 173.496094 188.222656 169.695312 C 186.597656 174.085938 183.800781 179.910156 179.398438 183.941406 C 178.976562 184.324219 178.484375 184.5 177.992188 184.5 Z M 177.992188 184.5 " fill-opacity="1" fill-rule="nonzero"/></g></svg>