<svg xmlns="http://www.w3.org/2000/svg" xmlns:xlink="http://www.w3.org/1999/xlink" width="500" zoomAndPan="magnify" viewBox="0 0 375 322.499991" height="430" preserveAspectRatio="xMidYMid meet" version="1.0"><defs><clipPath id="d7760823e1"><path d="M 81.265625 17.195312 L 283.453125 17.195312 L 283.453125 193.921875 L 81.265625 193.921875 Z M 81.265625 17.195312 " clip-rule="nonzero"/></clipPath><clipPath id="d5a690fa13"><path d="M 118.785156 67.722656 L 290 67.722656 L 290 305 L 118.785156 305 Z M 118.785156 67.722656 " clip-rule="nonzero"/></clipPath><clipPath id="2222b13125"><path d="M 186 161 L 192 161 L 192 215 L 186 215 Z M 186 161 " clip-rule="nonzero"/></clipPath><clipPath id="4f2430c22f"><path d="M 176 195 L 199 195 L 199 218.519531 L 176 218.519531 Z M 176 195 " clip-rule="nonzero"/></clipPath></defs><path fill="#545454" d="M 158.109375 116.058594 C 147.589844 116.058594 139.03125 124.574219 139.03125 135.050781 C 139.03125 139.519531 140.601562 143.695312 143.300781 146.949219 C 140.574219 150.242188 139.03125 154.398438 139.03125 158.835938 C 139.03125 169.347656 147.585938 177.90625 158.109375 177.90625 C 168.582031 177.90625 177.105469 169.347656 177.105469 158.835938 C 177.105469 154.414062 175.570312 150.253906 172.867188 146.941406 C 175.570312 143.632812 177.105469 139.472656 177.105469 135.050781 C 177.105469 124.578125 168.582031 116.058594 158.109375 116.058594 Z M 158.109375 122.9375 C 164.792969 122.9375 170.226562 128.371094 170.226562 135.050781 C 170.226562 138.679688 168.65625 142.046875 165.808594 144.367188 C 162.71875 147.078125 157.921875 147.757812 153.976562 146.402344 C 152.632812 145.929688 151.371094 145.21875 150.277344 144.257812 C 147.5 142.046875 145.910156 138.6875 145.910156 135.054688 C 145.90625 128.371094 151.378906 122.9375 158.109375 122.9375 Z M 158.109375 171.03125 C 151.378906 171.03125 145.90625 165.558594 145.90625 158.835938 C 145.90625 156.074219 146.820312 153.480469 148.472656 151.429688 C 148.484375 151.4375 148.5 151.4375 148.511719 151.445312 C 149.839844 152.234375 151.285156 152.789062 152.785156 153.226562 C 152.988281 153.28125 153.179688 153.339844 153.386719 153.386719 C 154.914062 153.777344 156.484375 154.050781 158.109375 154.050781 C 159.753906 154.050781 161.339844 153.773438 162.878906 153.378906 C 163.035156 153.34375 163.179688 153.300781 163.335938 153.257812 C 164.882812 152.820312 166.371094 152.25 167.71875 151.449219 C 169.335938 153.515625 170.230469 156.09375 170.230469 158.835938 C 170.226562 165.558594 164.792969 171.03125 158.109375 171.03125 Z M 158.109375 171.03125 " fill-opacity="1" fill-rule="nonzero"/><g clip-path="url(#d7760823e1)"><path fill="#545454" d="M 283.410156 41.921875 L 283.410156 28.753906 C 283.410156 22.730469 278.511719 17.828125 272.488281 17.828125 L 92.074219 17.828125 C 86.050781 17.828125 81.152344 22.726562 81.152344 28.753906 L 81.152344 42.003906 C 81.152344 42.027344 81.164062 42.050781 81.167969 42.070312 L 81.167969 79.53125 C 81.167969 92.757812 91.921875 103.507812 105.140625 103.507812 L 119.492188 103.507812 L 119.492188 179.65625 C 119.492188 187.113281 125.558594 193.175781 133.015625 193.175781 L 231.578125 193.175781 C 239.035156 193.175781 245.101562 187.113281 245.101562 179.65625 L 245.101562 103.507812 L 259.449219 103.507812 C 272.671875 103.507812 283.429688 92.753906 283.429688 79.53125 L 283.429688 42.035156 C 283.433594 41.992188 283.410156 41.957031 283.410156 41.921875 Z M 88.027344 28.75 C 88.027344 26.519531 89.84375 24.703125 92.070312 24.703125 L 272.484375 24.703125 C 274.714844 24.703125 276.527344 26.519531 276.527344 28.75 L 276.527344 38.566406 L 88.027344 38.566406 Z M 126.371094 179.652344 L 126.371094 74.433594 L 192.65625 74.433594 L 192.65625 186.296875 L 133.015625 186.296875 C 129.351562 186.296875 126.371094 183.316406 126.371094 179.652344 Z M 199.53125 74.433594 L 217.140625 74.433594 L 217.140625 186.296875 L 199.53125 186.296875 Z M 238.226562 179.652344 C 238.226562 183.3125 235.246094 186.296875 231.582031 186.296875 L 224.019531 186.296875 L 224.019531 74.433594 L 238.226562 74.433594 Z M 276.554688 79.527344 C 276.554688 88.957031 268.882812 96.628906 259.453125 96.628906 L 245.105469 96.628906 L 245.105469 74.433594 L 255.328125 74.433594 C 257.226562 74.433594 258.769531 72.890625 258.769531 70.992188 C 258.769531 69.09375 257.226562 67.554688 255.328125 67.554688 L 122.933594 67.554688 C 122.933594 67.554688 122.933594 67.554688 122.929688 67.554688 C 122.925781 67.554688 122.929688 67.554688 122.925781 67.554688 L 109.265625 67.554688 C 107.367188 67.554688 105.824219 69.09375 105.824219 70.992188 C 105.824219 72.890625 107.367188 74.433594 109.265625 74.433594 L 119.488281 74.433594 L 119.488281 96.628906 L 105.136719 96.628906 C 95.707031 96.628906 88.039062 88.957031 88.039062 79.527344 L 88.039062 45.46875 L 276.550781 45.46875 L 276.550781 79.527344 Z M 276.554688 79.527344 " fill-opacity="1" fill-rule="nonzero"/></g><path fill="#fec4b9" d="M 274.519531 252.773438 C 289.855469 238.050781 277.644531 221.882812 263.882812 229.230469 C 278.449219 213.621094 260.882812 196.976562 247.03125 209 C 258.597656 198.609375 252.707031 185.1875 241.242188 186.714844 L 241.125 186.714844 L 201.699219 216.746094 C 220.011719 165.558594 152.5 195.570312 152.726562 235.59375 C 146.679688 241.09375 142.28125 246.195312 139.761719 249.335938 C 138.117188 251.390625 136.738281 253.789062 136.582031 256.414062 C 135.726562 271.199219 137.609375 290.015625 139.488281 302.945312 L 251.246094 302.945312 L 255.632812 298.953125 L 283.042969 271.628906 C 293.996094 260.203125 284.4375 249.351562 274.519531 252.773438 Z M 274.519531 252.773438 " fill-opacity="1" fill-rule="nonzero"/><path fill="#f7b6ad" d="M 218.210938 235.449219 L 191.480469 235.449219 L 191.222656 235.378906 C 189.132812 242.816406 183.335938 251.777344 171.015625 261.03125 C 170.253906 261.601562 170.183594 262.707031 170.855469 263.386719 C 173.433594 265.984375 179.539062 281.585938 181.082031 298.65625 C 181.082031 298.65625 188.546875 285.640625 182.773438 264.980469 C 182.773438 264.980469 195.1875 258.753906 198.363281 246.050781 L 229.835938 246.050781 L 229.835938 235.449219 Z M 218.210938 235.449219 " fill-opacity="1" fill-rule="nonzero"/><path fill="#e7f2f1" d="M 241.125 213.859375 L 241.125 235.449219 L 212.894531 235.449219 C 189.234375 178.671875 189.933594 123.527344 212.894531 69.875 L 222.304688 69.875 C 232.699219 69.875 241.125 78.296875 241.125 88.6875 Z M 241.125 213.859375 " fill-opacity="1" fill-rule="nonzero"/><path fill="#1ea6bc" d="M 212.894531 69.875 L 212.894531 235.449219 L 191.480469 235.449219 L 191.222656 235.378906 C 192.835938 229.660156 192.257812 224.847656 190.773438 221.503906 C 188.925781 217.339844 183.972656 215.480469 179.828125 217.378906 C 168.855469 222.386719 159.699219 229.253906 152.726562 235.59375 L 152.59375 235.449219 L 122.550781 235.449219 C 121.511719 235.449219 120.667969 234.609375 120.667969 233.566406 L 120.667969 88.6875 C 120.667969 78.296875 129.09375 69.875 139.488281 69.875 Z M 212.894531 69.875 " fill-opacity="1" fill-rule="nonzero"/><path fill="#ef9d26" d="M 162.074219 173.359375 L 162.074219 186.53125 L 148.902344 186.53125 L 148.902344 171.476562 L 160.195312 171.476562 C 161.234375 171.476562 162.074219 172.320312 162.074219 173.359375 Z M 162.074219 173.359375 " fill-opacity="1" fill-rule="nonzero"/><path fill="#f9b132" d="M 148.902344 171.476562 L 148.902344 186.53125 L 135.726562 186.53125 L 135.726562 173.359375 C 135.726562 172.320312 136.566406 171.476562 137.609375 171.476562 Z M 148.902344 171.476562 " fill-opacity="1" fill-rule="nonzero"/><path fill="#ffc05a" d="M 162.074219 186.53125 L 162.074219 207.226562 C 162.074219 208.265625 161.234375 209.109375 160.195312 209.109375 L 137.609375 209.109375 C 136.566406 209.109375 135.726562 208.265625 135.726562 207.226562 L 135.726562 186.53125 Z M 162.074219 186.53125 " fill-opacity="1" fill-rule="nonzero"/><g clip-path="url(#d5a690fa13)"><path fill="#3a322b" d="M 288.085938 255.445312 C 286.136719 252.398438 282.839844 250.582031 279.222656 250.300781 C 284.808594 242.796875 284.378906 235.292969 281.019531 230.664062 C 278.570312 227.292969 274.1875 224.929688 268.894531 225.617188 C 272.972656 218.378906 271.378906 211.492188 267.328125 207.300781 C 264.089844 203.945312 258.972656 202.171875 253.601562 203.4375 C 255.507812 199.40625 255.738281 195.160156 254.050781 191.5 C 252.066406 187.199219 247.9375 184.710938 243.007812 184.714844 L 243.007812 88.6875 C 243.007812 77.277344 233.722656 67.992188 222.304688 67.992188 L 139.488281 67.992188 C 128.074219 67.992188 118.785156 77.277344 118.785156 88.6875 L 118.785156 233.566406 C 118.785156 235.644531 120.476562 237.332031 122.550781 237.332031 L 148.160156 237.332031 C 143.636719 241.746094 140.292969 245.660156 138.292969 248.160156 C 136.03125 250.984375 134.859375 253.648438 134.703125 256.308594 C 133.699219 273.621094 136.414062 294.878906 137.628906 303.21875 C 137.761719 304.152344 138.566406 304.828125 139.488281 304.828125 C 139.578125 304.828125 139.667969 304.820312 139.761719 304.808594 C 140.789062 304.660156 141.5 303.703125 141.351562 302.675781 C 140.15625 294.453125 137.476562 273.492188 138.460938 256.523438 C 138.570312 254.671875 139.476562 252.707031 141.230469 250.511719 C 146.332031 244.140625 160.375 228.324219 180.609375 219.089844 C 182.164062 218.378906 183.902344 218.324219 185.511719 218.933594 C 187.109375 219.539062 188.367188 220.722656 189.050781 222.265625 C 192.5625 230.179688 189.648438 244.6875 169.882812 259.527344 C 169.089844 260.125 168.59375 261.035156 168.519531 262.023438 C 168.449219 263.019531 168.8125 264 169.519531 264.710938 C 171.738281 266.945312 177.699219 282.152344 179.203125 298.828125 C 179.296875 299.859375 180.210938 300.621094 181.246094 300.53125 C 182.28125 300.4375 183.046875 299.523438 182.953125 298.488281 C 181.421875 281.492188 175.421875 265.835938 172.429688 262.320312 C 182.339844 254.824219 188.957031 246.875 192.105469 238.6875 C 192.28125 238.230469 192.441406 237.777344 192.589844 237.332031 L 199.8125 237.332031 C 205.835938 242.613281 225.667969 261.15625 241.179688 288.753906 C 241.527344 289.367188 242.164062 289.714844 242.824219 289.714844 C 243.136719 289.714844 243.453125 289.636719 243.742188 289.472656 C 244.648438 288.964844 244.972656 287.816406 244.460938 286.910156 C 244.167969 286.390625 243.871094 285.878906 243.578125 285.367188 L 275.507812 254.4375 C 279.207031 253.320312 283.035156 254.535156 284.914062 257.472656 C 287.195312 261.03125 285.984375 265.835938 281.710938 270.292969 L 254.335938 297.585938 L 249.980469 301.554688 C 249.210938 302.253906 249.15625 303.445312 249.855469 304.210938 C 250.226562 304.621094 250.738281 304.828125 251.246094 304.828125 C 251.699219 304.828125 252.152344 304.664062 252.515625 304.335938 L 256.898438 300.34375 C 256.910156 300.332031 256.917969 300.320312 256.929688 300.308594 C 256.9375 300.300781 256.953125 300.292969 256.960938 300.285156 L 284.398438 272.925781 C 290.980469 266.066406 290.617188 259.398438 288.085938 255.445312 Z M 264.621094 209.910156 C 268.339844 213.765625 269.132812 220.828125 262.527344 227.929688 L 228.199219 262.457031 C 222.457031 255.027344 216.914062 248.84375 212.304688 244.09375 C 213.660156 242.769531 216.164062 240.332031 219.273438 237.332031 L 241.125 237.332031 C 242.164062 237.332031 243.007812 236.488281 243.007812 235.449219 L 243.007812 215.027344 C 245.03125 213.210938 246.796875 211.664062 248.269531 210.421875 C 254.5625 204.957031 261.15625 206.324219 264.621094 209.910156 Z M 250.632812 193.074219 C 252.234375 196.542969 251.800781 202.179688 245.789062 207.589844 C 244.957031 208.292969 244.023438 209.097656 243.007812 209.988281 L 243.007812 188.476562 C 246.445312 188.488281 249.292969 190.171875 250.632812 193.074219 Z M 239.242188 88.6875 L 239.242188 233.566406 L 214.777344 233.566406 L 214.777344 71.753906 L 222.304688 71.753906 C 231.644531 71.753906 239.242188 79.351562 239.242188 88.6875 Z M 192.492188 220.742188 C 191.398438 218.269531 189.390625 216.378906 186.847656 215.414062 C 184.292969 214.445312 181.519531 214.535156 179.046875 215.664062 C 168.253906 220.59375 159.179688 227.308594 152.1875 233.566406 L 122.550781 233.566406 L 122.550781 88.6875 C 122.550781 79.351562 130.148438 71.753906 139.488281 71.753906 L 211.011719 71.753906 L 211.011719 233.566406 L 193.59375 233.566406 C 194.792969 227.46875 193.527344 223.066406 192.492188 220.742188 Z M 205.417969 237.332031 L 213.859375 237.332031 C 212.039062 239.097656 210.582031 240.515625 209.660156 241.414062 C 208.078125 239.84375 206.652344 238.480469 205.417969 237.332031 Z M 230.496094 265.480469 L 265.003906 230.773438 C 270.757812 227.820312 275.652344 229.679688 277.972656 232.875 C 280.949219 236.972656 280.632812 244.296875 273.210938 251.421875 L 241.617188 282.027344 C 238.007812 276.03125 234.234375 270.5 230.496094 265.480469 Z M 194.074219 145.136719 C 193.03125 145.136719 192.191406 144.292969 192.191406 143.253906 L 192.191406 92.453125 C 192.191406 91.414062 193.03125 90.570312 194.074219 90.570312 C 195.113281 90.570312 195.953125 91.414062 195.953125 92.453125 L 195.953125 143.253906 C 195.953125 144.292969 195.113281 145.136719 194.074219 145.136719 Z M 179.015625 92.453125 L 179.015625 143.253906 C 179.015625 144.292969 178.171875 145.136719 177.132812 145.136719 C 176.09375 145.136719 175.25 144.292969 175.25 143.253906 L 175.25 92.453125 C 175.25 91.414062 176.09375 90.570312 177.132812 90.570312 C 178.171875 90.570312 179.015625 91.414062 179.015625 92.453125 Z M 160.195312 169.59375 L 137.609375 169.59375 C 135.53125 169.59375 133.84375 171.285156 133.84375 173.359375 L 133.84375 207.226562 C 133.84375 209.300781 135.53125 210.988281 137.609375 210.988281 L 160.195312 210.988281 C 162.269531 210.988281 163.957031 209.300781 163.957031 207.226562 L 163.957031 173.359375 C 163.957031 171.285156 162.269531 169.59375 160.195312 169.59375 Z M 160.195312 184.648438 L 150.78125 184.648438 L 150.78125 173.359375 L 160.195312 173.359375 Z M 147.019531 173.359375 L 147.019531 184.648438 L 137.609375 184.648438 L 137.609375 173.359375 Z M 137.609375 207.226562 L 137.609375 188.410156 L 160.195312 188.410156 L 160.195312 207.226562 Z M 137.609375 207.226562 " fill-opacity="1" fill-rule="nonzero"/></g><g clip-path="url(#2222b13125)"><path fill="#0032a2" d="M 189.433594 160.878906 C 188.339844 160.878906 187.429688 161.75 187.386719 162.859375 C 187.039062 172.132812 186.363281 212.398438 186.355469 212.796875 C 186.335938 213.925781 187.234375 214.859375 188.371094 214.878906 C 189.503906 214.902344 190.425781 214 190.445312 212.859375 C 190.457031 212.449219 191.128906 172.234375 191.476562 163.003906 C 191.519531 161.875 190.640625 160.921875 189.515625 160.878906 C 189.484375 160.878906 189.453125 160.878906 189.433594 160.878906 Z M 189.433594 160.878906 " fill-opacity="1" fill-rule="nonzero"/></g><g clip-path="url(#4f2430c22f)"><path fill="#0032a2" d="M 178.152344 195.300781 C 177.601562 195.300781 177.039062 195.527344 176.640625 195.976562 C 175.882812 196.820312 175.945312 198.109375 176.78125 198.878906 C 183.5625 205.042969 186.121094 216.726562 186.148438 216.851562 C 186.34375 217.761719 187.132812 218.429688 188.074219 218.46875 C 189.003906 218.5 189.84375 217.90625 190.117188 217.015625 C 190.148438 216.910156 193.226562 206.738281 198.433594 199.546875 C 199.097656 198.632812 198.890625 197.351562 197.980469 196.683594 C 197.070312 196.019531 195.792969 196.222656 195.128906 197.136719 C 192.132812 201.269531 189.84375 206.171875 188.328125 209.925781 C 186.710938 205.589844 183.929688 199.835938 179.554688 195.855469 C 179.136719 195.476562 178.644531 195.300781 178.152344 195.300781 Z M 178.152344 195.300781 " fill-opacity="1" fill-rule="nonzero"/></g></svg>