<svg xmlns="http://www.w3.org/2000/svg" xmlns:xlink="http://www.w3.org/1999/xlink" width="500" zoomAndPan="magnify" viewBox="0 0 375 322.499991" height="430" preserveAspectRatio="xMidYMid meet" version="1.0"><defs><clipPath id="f02abee707"><path d="M 152.351562 142 L 303.675781 142 L 303.675781 299 L 152.351562 299 Z M 152.351562 142 " clip-rule="nonzero"/></clipPath><clipPath id="b8d3703f1d"><path d="M 185 22.789062 L 272 22.789062 L 272 91 L 185 91 Z M 185 22.789062 " clip-rule="nonzero"/></clipPath><clipPath id="7c57d80ad3"><path d="M 295 162.386719 L 333.121094 162.386719 L 333.121094 299 L 295 299 Z M 295 162.386719 " clip-rule="nonzero"/></clipPath><clipPath id="fed26db4d6"><path d="M 120.277344 162 L 163 162 L 163 299 L 120.277344 299 Z M 120.277344 162 " clip-rule="nonzero"/></clipPath><clipPath id="6d27b8f736"><path d="M 41.820312 57 L 48 57 L 48 84 L 41.820312 84 Z M 41.820312 57 " clip-rule="nonzero"/></clipPath><clipPath id="3fa6db7395"><path d="M 41.820312 89 L 48 89 L 48 104 L 41.820312 104 Z M 41.820312 89 " clip-rule="nonzero"/></clipPath></defs><g clip-path="url(#f02abee707)"><path fill="#88b2e3" d="M 161.960938 298.910156 L 295.40625 298.910156 L 295.386719 246.15625 L 303.183594 175.375 C 303.183594 167.203125 295.964844 162 288.386719 158.933594 C 275.921875 153.886719 247.359375 142.5 247.359375 142.5 C 247.359375 142.5 244.429688 160.4375 228.164062 160.4375 C 213.359375 160.4375 209.402344 142.5 209.402344 142.5 C 209.402344 142.5 179.054688 152.789062 168.375 158.933594 C 161.289062 163.011719 152.777344 168.507812 152.777344 172.347656 L 162.21875 245.527344 L 161.960938 298.910156 " fill-opacity="1" fill-rule="nonzero"/></g><path fill="#e87370" d="M 247.359375 142.542969 C 247.359375 142.542969 245.234375 160.765625 228.070312 160.765625 C 212.234375 160.765625 209.402344 142.542969 209.402344 142.542969 L 209.402344 123.957031 L 247.359375 123.957031 L 247.359375 142.542969 " fill-opacity="1" fill-rule="nonzero"/><path fill="#f68078" d="M 268.820312 102.546875 C 268.820312 116.910156 249.660156 136.546875 228.382812 136.546875 C 207.90625 136.546875 187.988281 119.558594 187.988281 102.546875 L 186.371094 71.027344 C 186.371094 47.820312 205.175781 29.03125 228.375 29.03125 C 251.582031 29.03125 270.386719 47.820312 270.386719 71.027344 L 268.820312 102.546875 " fill-opacity="1" fill-rule="nonzero"/><path fill="#f68078" d="M 275.363281 90.257812 C 275.191406 95.140625 272.125 99 268.507812 98.878906 C 264.875 98.746094 262.082031 94.691406 262.246094 89.808594 C 262.410156 84.933594 265.472656 81.078125 269.09375 81.199219 C 272.714844 81.320312 275.523438 85.375 275.363281 90.257812 " fill-opacity="1" fill-rule="nonzero"/><path fill="#f68078" d="M 194.453125 89.425781 C 194.605469 94.308594 191.796875 98.359375 188.183594 98.480469 C 184.550781 98.585938 181.492188 94.726562 181.332031 89.839844 C 181.179688 84.96875 183.976562 80.914062 187.597656 80.800781 C 191.222656 80.675781 194.289062 84.542969 194.453125 89.425781 " fill-opacity="1" fill-rule="nonzero"/><g clip-path="url(#b8d3703f1d)"><path fill="#131d33" d="M 269.527344 90.640625 C 269.527344 90.640625 271.691406 75.511719 271.691406 64.300781 C 271.691406 45.632812 263.691406 22.898438 228.363281 22.898438 C 201.875 22.898438 185.074219 44.144531 185.074219 67.804688 C 185.074219 75 184.703125 79.40625 186.378906 89.8125 L 189.109375 89.8125 C 197.929688 85.070312 190.105469 68.097656 195.324219 62.738281 C 195.324219 62.738281 201.84375 69.398438 221.066406 68.992188 C 243.796875 68.511719 245.605469 56.890625 253.421875 56.769531 C 257.707031 56.703125 259.554688 58.519531 260.640625 64.0625 C 262.480469 73.445312 257.914062 81.199219 266.773438 90.523438 L 269.527344 90.640625 " fill-opacity="1" fill-rule="nonzero"/></g><g clip-path="url(#7c57d80ad3)"><path fill="#88b2e3" d="M 302.890625 298.910156 L 333.140625 298.910156 C 329.722656 256.898438 325.980469 216.816406 323.320312 205.050781 C 315.847656 172.003906 295.390625 162.65625 295.390625 162.65625 C 295.390625 162.65625 295.597656 195.316406 295.390625 242.648438 C 295.316406 260.09375 299.613281 283.574219 302.890625 298.910156 " fill-opacity="1" fill-rule="nonzero"/></g><g clip-path="url(#fed26db4d6)"><path fill="#88b2e3" d="M 155.074219 298.910156 C 158.359375 283.582031 162.71875 259.890625 162.644531 242.328125 C 162.433594 194.996094 162.644531 162.335938 162.644531 162.335938 C 162.644531 162.335938 135.0625 173.554688 127.589844 206.601562 C 124.945312 218.289062 122.519531 257.585938 120.601562 298.910156 L 155.074219 298.910156 " fill-opacity="1" fill-rule="nonzero"/></g><path fill="#131d33" d="M 229.53125 107.21875 C 229.332031 107.21875 229.113281 107.207031 228.917969 107.195312 C 228.566406 107.15625 228.285156 106.847656 228.332031 106.492188 C 228.363281 106.140625 228.644531 105.84375 229.039062 105.898438 C 230.339844 106.027344 231.332031 105.652344 231.4375 105.363281 C 231.492188 105.242188 231.359375 104.792969 230.285156 104.0625 C 227.042969 101.855469 226.664062 94.175781 226.644531 93.859375 C 226.632812 93.5 226.90625 93.199219 227.277344 93.179688 C 227.644531 93.167969 227.929688 93.445312 227.933594 93.792969 C 228.03125 95.835938 228.757812 101.464844 231.003906 102.996094 C 232.433594 103.949219 232.980469 104.898438 232.660156 105.796875 C 232.292969 106.808594 230.90625 107.21875 229.53125 107.21875 " fill-opacity="1" fill-rule="nonzero"/><path fill="#131d33" d="M 207.980469 88.773438 C 207.011719 88.773438 206.132812 89.164062 205.507812 89.863281 C 204.992188 90.492188 204.726562 91.28125 204.726562 92.136719 C 204.726562 93.816406 205.855469 95.535156 207.980469 95.535156 C 208.996094 95.535156 209.871094 95.136719 210.480469 94.425781 C 211.015625 93.816406 211.292969 93.019531 211.292969 92.136719 C 211.292969 90.46875 210.167969 88.773438 207.980469 88.773438 " fill-opacity="1" fill-rule="nonzero"/><path fill="#131d33" d="M 248.664062 88.773438 C 249.636719 88.773438 250.511719 89.164062 251.140625 89.863281 C 251.652344 90.492188 251.917969 91.28125 251.917969 92.136719 C 251.917969 93.816406 250.796875 95.535156 248.664062 95.535156 C 247.652344 95.535156 246.777344 95.136719 246.164062 94.425781 C 245.632812 93.816406 245.351562 93.019531 245.351562 92.136719 C 245.351562 90.46875 246.480469 88.773438 248.664062 88.773438 " fill-opacity="1" fill-rule="nonzero"/><path fill="#131d33" d="M 257.148438 79.695312 C 257.097656 79.632812 256.488281 78.890625 255.246094 78.152344 C 254.011719 77.417969 252.132812 76.695312 249.621094 76.695312 C 248.101562 76.695312 246.347656 76.960938 244.371094 77.628906 C 243.886719 77.789062 243.632812 78.308594 243.796875 78.789062 C 243.957031 79.265625 244.476562 79.523438 244.953125 79.363281 C 246.761719 78.753906 248.3125 78.527344 249.621094 78.527344 C 251.78125 78.527344 253.308594 79.136719 254.3125 79.726562 C 254.8125 80.027344 255.175781 80.316406 255.410156 80.53125 C 255.53125 80.640625 255.613281 80.726562 255.664062 80.78125 L 255.71875 80.839844 L 255.726562 80.851562 L 255.980469 80.640625 L 255.722656 80.84375 L 255.726562 80.851562 L 255.980469 80.640625 L 255.722656 80.84375 C 256.042969 81.238281 256.617188 81.300781 257.011719 80.984375 C 257.402344 80.664062 257.46875 80.089844 257.148438 79.695312 " fill-opacity="1" fill-rule="nonzero"/><path fill="#131d33" d="M 201.820312 80.84375 L 201.5625 80.636719 L 201.816406 80.847656 L 201.820312 80.84375 L 201.5625 80.636719 L 201.816406 80.847656 C 201.828125 80.832031 202.328125 80.246094 203.328125 79.671875 C 204.328125 79.097656 205.828125 78.527344 207.921875 78.527344 C 209.230469 78.527344 210.78125 78.753906 212.589844 79.363281 C 213.070312 79.523438 213.585938 79.265625 213.75 78.789062 C 213.910156 78.308594 213.65625 77.789062 213.175781 77.628906 C 211.195312 76.960938 209.441406 76.695312 207.921875 76.695312 C 205.410156 76.695312 203.53125 77.417969 202.296875 78.152344 C 201.054688 78.890625 200.449219 79.632812 200.398438 79.695312 C 200.078125 80.089844 200.140625 80.664062 200.535156 80.984375 C 200.925781 81.300781 201.503906 81.238281 201.820312 80.84375 " fill-opacity="1" fill-rule="nonzero"/><path fill="#f2597f" d="M 216.304688 106.667969 C 216.304688 109.5625 212.734375 111.894531 208.3125 111.894531 C 203.894531 111.894531 200.324219 109.5625 200.324219 106.667969 C 200.324219 103.789062 203.894531 101.453125 208.3125 101.453125 C 212.734375 101.453125 216.304688 103.789062 216.304688 106.667969 " fill-opacity="1" fill-rule="nonzero"/><path fill="#f2597f" d="M 256.324219 107.773438 C 256.324219 110.652344 252.746094 112.984375 248.324219 112.984375 C 243.914062 112.984375 240.335938 110.652344 240.335938 107.773438 C 240.335938 104.878906 243.914062 102.542969 248.324219 102.542969 C 252.746094 102.542969 256.324219 104.878906 256.324219 107.773438 " fill-opacity="1" fill-rule="nonzero"/><path fill="#ffffff" d="M 218.140625 116.753906 C 218.324219 122.414062 223.421875 126.976562 229.699219 126.976562 C 235.980469 126.976562 241.082031 122.414062 241.25 116.753906 L 218.140625 116.753906 " fill-opacity="1" fill-rule="nonzero"/><path fill="#ffffff" d="M 300.492188 175.304688 L 300.492188 174.308594 L 162.058594 174.308594 L 162.058594 36.890625 L 299.492188 36.890625 L 299.492188 175.304688 L 300.492188 175.304688 L 300.492188 174.308594 L 300.492188 175.304688 L 301.488281 175.304688 L 301.488281 34.894531 L 160.066406 34.894531 L 160.066406 176.296875 L 301.488281 176.296875 L 301.488281 175.304688 L 300.492188 175.304688 " fill-opacity="1" fill-rule="nonzero"/><path fill="#ffffff" d="M 280.761719 155.578125 L 280.761719 154.582031 L 181.785156 154.582031 L 181.785156 56.617188 L 279.765625 56.617188 L 279.765625 155.578125 L 280.761719 155.578125 L 280.761719 154.582031 L 280.761719 155.578125 L 281.761719 155.578125 L 281.761719 54.621094 L 179.792969 54.621094 L 179.792969 156.574219 L 281.761719 156.574219 L 281.761719 155.578125 L 280.761719 155.578125 " fill-opacity="1" fill-rule="nonzero"/><path fill="#ffffff" d="M 201.597656 74.933594 C 201.597656 76.816406 200.070312 78.339844 198.191406 78.339844 C 196.3125 78.339844 194.789062 76.816406 194.789062 74.933594 C 194.789062 73.054688 196.3125 71.53125 198.191406 71.53125 C 200.070312 71.53125 201.597656 73.054688 201.597656 74.933594 " fill-opacity="1" fill-rule="nonzero"/><path fill="#ffffff" d="M 234.914062 96.582031 C 234.914062 98.464844 233.386719 99.984375 231.507812 99.984375 C 229.628906 99.984375 228.101562 98.464844 228.101562 96.582031 C 228.101562 94.703125 229.628906 93.179688 231.507812 93.179688 C 233.386719 93.179688 234.914062 94.703125 234.914062 96.582031 " fill-opacity="1" fill-rule="nonzero"/><path fill="#ffffff" d="M 259.082031 78.339844 C 259.082031 80.21875 257.5625 81.742188 255.679688 81.742188 C 253.800781 81.742188 252.277344 80.21875 252.277344 78.339844 C 252.277344 76.460938 253.800781 74.933594 255.679688 74.933594 C 257.5625 74.933594 259.082031 76.460938 259.082031 78.339844 " fill-opacity="1" fill-rule="nonzero"/><path fill="#ffffff" d="M 211.902344 127.050781 C 211.902344 128.929688 210.382812 130.457031 208.5 130.457031 C 206.621094 130.457031 205.097656 128.929688 205.097656 127.050781 C 205.097656 125.171875 206.621094 123.644531 208.5 123.644531 C 210.382812 123.644531 211.902344 125.171875 211.902344 127.050781 " fill-opacity="1" fill-rule="nonzero"/><path fill="#ffffff" d="M 256.769531 132.417969 C 256.769531 134.300781 255.246094 135.824219 253.363281 135.824219 C 251.484375 135.824219 249.960938 134.300781 249.960938 132.417969 C 249.960938 130.539062 251.484375 129.015625 253.363281 129.015625 C 255.246094 129.015625 256.769531 130.539062 256.769531 132.417969 " fill-opacity="1" fill-rule="nonzero"/><path fill="#ffffff" d="M 208.917969 127.367188 L 232.261719 96.449219 L 198.480469 74.496094 L 197.90625 75.375 L 230.75 96.714844 L 208.085938 126.734375 L 208.917969 127.367188 " fill-opacity="1" fill-rule="nonzero"/><path fill="#ffffff" d="M 232.628906 98.953125 L 253.800781 132.699219 L 254.683594 132.140625 L 233.515625 98.398438 " fill-opacity="1" fill-rule="nonzero"/><path fill="#ffffff" d="M 254.761719 130.722656 L 257.292969 78.363281 L 256.246094 78.3125 L 253.71875 130.675781 " fill-opacity="1" fill-rule="nonzero"/><path fill="#ffffff" d="M 207.960938 126.949219 L 197.789062 75.488281 L 254.289062 78.015625 L 233.222656 95.304688 L 233.886719 96.113281 L 257.070312 77.089844 L 196.503906 74.382812 L 206.933594 127.152344 L 207.960938 126.949219 " fill-opacity="1" fill-rule="nonzero"/><path fill="#ffffff" d="M 209.523438 129.535156 L 251.867188 132.941406 L 251.953125 131.898438 L 209.605469 128.492188 " fill-opacity="1" fill-rule="nonzero"/><g clip-path="url(#6d27b8f736)"><path fill="#313f66" d="M 47.882812 83.984375 L 41.839844 83.984375 L 41.839844 57.523438 L 47.882812 57.523438 L 47.882812 83.984375 " fill-opacity="1" fill-rule="nonzero"/></g><g clip-path="url(#3fa6db7395)"><path fill="#313f66" d="M 47.882812 103.042969 L 41.839844 103.042969 L 41.839844 89.816406 L 47.882812 89.816406 L 47.882812 103.042969 " fill-opacity="1" fill-rule="nonzero"/></g><path fill="#313f66" d="M 169.207031 234.359375 C 169.207031 236.628906 167.371094 238.464844 165.097656 238.464844 L 49.101562 238.464844 C 46.832031 238.464844 44.988281 236.628906 44.988281 234.359375 L 44.988281 37.285156 C 44.988281 35.019531 46.832031 33.179688 49.101562 33.179688 L 165.097656 33.179688 C 167.371094 33.179688 169.207031 35.019531 169.207031 37.285156 L 169.207031 234.359375 " fill-opacity="1" fill-rule="nonzero"/><path fill="#ffffff" d="M 44.988281 226.917969 L 169.207031 226.917969 L 169.207031 44.730469 L 44.988281 44.730469 Z M 44.988281 226.917969 " fill-opacity="1" fill-rule="nonzero"/><path fill="#ffffff" d="M 118.199219 39.722656 C 118.199219 40.46875 117.597656 41.074219 116.855469 41.074219 L 97.347656 41.074219 C 96.601562 41.074219 96 40.46875 96 39.722656 C 96 38.980469 96.601562 38.375 97.347656 38.375 L 116.855469 38.375 C 117.597656 38.375 118.199219 38.980469 118.199219 39.722656 " fill-opacity="1" fill-rule="nonzero"/><path fill="#ffffff" d="M 113.804688 232.242188 C 113.804688 233.070312 113.132812 233.738281 112.300781 233.738281 L 101.890625 233.738281 C 101.0625 233.738281 100.390625 233.070312 100.390625 232.242188 C 100.390625 231.414062 101.0625 230.742188 101.890625 230.742188 L 112.300781 230.742188 C 113.132812 230.742188 113.804688 231.414062 113.804688 232.242188 " fill-opacity="1" fill-rule="nonzero"/><path fill="#313f66" d="M 130.53125 188.320312 C 130.53125 189.300781 129.734375 190.09375 128.753906 190.09375 L 82.179688 190.09375 C 81.199219 190.09375 80.402344 189.300781 80.402344 188.320312 L 80.402344 170.132812 C 80.402344 169.15625 81.199219 168.363281 82.179688 168.363281 L 128.753906 168.363281 C 129.734375 168.363281 130.53125 169.15625 130.53125 170.132812 L 130.53125 188.320312 " fill-opacity="1" fill-rule="nonzero"/><path fill="#ffffff" d="M 92.527344 176.828125 C 92.316406 176.828125 92.15625 176.769531 92.050781 176.648438 C 91.945312 176.527344 91.890625 176.371094 91.890625 176.179688 L 91.890625 173.226562 C 91.890625 173.027344 91.835938 172.867188 91.730469 172.746094 C 91.621094 172.625 91.460938 172.566406 91.25 172.566406 C 91.027344 172.566406 90.867188 172.625 90.765625 172.746094 C 90.664062 172.867188 90.609375 173.027344 90.609375 173.226562 C 90.609375 173.894531 90.648438 174.496094 90.726562 175.03125 C 90.804688 175.570312 90.90625 176.066406 91.042969 176.519531 C 91.171875 176.976562 91.320312 177.40625 91.488281 177.8125 C 91.652344 178.214844 91.820312 178.617188 91.988281 179.019531 C 92.15625 179.417969 92.328125 179.828125 92.492188 180.246094 C 92.652344 180.667969 92.804688 181.121094 92.9375 181.613281 C 93.070312 182.105469 93.175781 182.644531 93.25 183.234375 C 93.328125 183.820312 93.367188 184.484375 93.367188 185.21875 C 93.367188 185.511719 93.316406 185.773438 93.214844 186.003906 C 93.121094 186.238281 92.976562 186.4375 92.789062 186.601562 C 92.601562 186.765625 92.375 186.890625 92.113281 186.980469 C 91.855469 187.070312 91.566406 187.113281 91.25 187.113281 C 90.582031 187.113281 90.0625 186.945312 89.6875 186.605469 C 89.320312 186.269531 89.132812 185.804688 89.132812 185.21875 L 89.132812 181.847656 L 89.1875 181.679688 L 89.355469 181.613281 L 89.972656 181.613281 C 90.183594 181.613281 90.34375 181.671875 90.449219 181.792969 C 90.554688 181.917969 90.609375 182.074219 90.609375 182.261719 L 90.609375 185.21875 C 90.609375 185.417969 90.664062 185.574219 90.773438 185.699219 C 90.878906 185.820312 91.035156 185.878906 91.25 185.878906 C 91.472656 185.878906 91.632812 185.820312 91.734375 185.699219 C 91.839844 185.574219 91.890625 185.417969 91.890625 185.21875 C 91.890625 184.277344 91.820312 183.457031 91.683594 182.75 C 91.550781 182.042969 91.378906 181.402344 91.171875 180.824219 C 90.96875 180.25 90.746094 179.699219 90.511719 179.183594 C 90.277344 178.664062 90.054688 178.121094 89.851562 177.546875 C 89.644531 176.972656 89.472656 176.339844 89.339844 175.648438 C 89.199219 174.960938 89.132812 174.152344 89.132812 173.226562 C 89.132812 172.933594 89.179688 172.667969 89.28125 172.4375 C 89.378906 172.207031 89.523438 172.007812 89.710938 171.84375 C 89.902344 171.675781 90.121094 171.550781 90.378906 171.460938 C 90.636719 171.375 90.925781 171.328125 91.25 171.328125 C 91.917969 171.328125 92.4375 171.5 92.8125 171.835938 C 93.179688 172.175781 93.367188 172.636719 93.367188 173.226562 L 93.367188 176.597656 L 93.3125 176.765625 L 93.144531 176.828125 L 92.527344 176.828125 " fill-opacity="1" fill-rule="nonzero"/><path fill="#ffffff" d="M 101.632812 180.839844 C 101.632812 180.652344 101.683594 180.492188 101.789062 180.375 C 101.890625 180.253906 102.042969 180.1875 102.25 180.183594 L 102.890625 180.183594 L 103.054688 180.246094 L 103.109375 180.414062 L 103.109375 185.21875 C 103.109375 185.804688 102.925781 186.269531 102.554688 186.605469 C 102.183594 186.945312 101.664062 187.113281 100.992188 187.113281 C 100.667969 187.113281 100.378906 187.070312 100.125 186.980469 C 99.867188 186.890625 99.644531 186.765625 99.457031 186.601562 C 99.269531 186.4375 99.125 186.238281 99.027344 186.003906 C 98.929688 185.773438 98.878906 185.511719 98.878906 185.21875 L 98.878906 173.226562 C 98.878906 172.636719 99.0625 172.175781 99.4375 171.835938 C 99.804688 171.5 100.324219 171.328125 100.992188 171.328125 C 101.3125 171.328125 101.597656 171.375 101.863281 171.460938 C 102.121094 171.550781 102.34375 171.675781 102.53125 171.84375 C 102.71875 172.007812 102.863281 172.207031 102.964844 172.4375 C 103.058594 172.667969 103.109375 172.933594 103.109375 173.226562 L 103.109375 178.164062 L 103.054688 178.328125 L 102.890625 178.394531 L 102.273438 178.394531 C 102.0625 178.394531 101.898438 178.335938 101.792969 178.214844 C 101.6875 178.089844 101.632812 177.9375 101.632812 177.742188 L 101.632812 173.226562 C 101.632812 173.027344 101.582031 172.867188 101.480469 172.746094 C 101.375 172.625 101.214844 172.566406 100.992188 172.566406 C 100.78125 172.566406 100.621094 172.625 100.515625 172.746094 C 100.410156 172.867188 100.355469 173.027344 100.355469 173.226562 L 100.355469 185.21875 C 100.355469 185.417969 100.40625 185.574219 100.507812 185.699219 C 100.613281 185.820312 100.773438 185.878906 100.992188 185.878906 C 101.210938 185.878906 101.367188 185.820312 101.476562 185.699219 C 101.582031 185.574219 101.632812 185.417969 101.632812 185.21875 L 101.632812 180.839844 " fill-opacity="1" fill-rule="nonzero"/><path fill="#ffffff" d="M 110.035156 183.046875 L 111.003906 183.046875 L 110.519531 174.800781 L 110.035156 183.046875 M 111.144531 171.507812 L 111.300781 171.574219 L 111.367188 171.726562 L 112.691406 186.660156 L 112.628906 186.847656 C 112.582031 186.910156 112.507812 186.9375 112.40625 186.9375 L 111.863281 186.9375 C 111.679688 186.9375 111.527344 186.882812 111.40625 186.777344 C 111.285156 186.671875 111.214844 186.539062 111.203125 186.382812 L 111.082031 184.28125 L 109.964844 184.28125 L 109.84375 186.382812 C 109.832031 186.539062 109.765625 186.671875 109.640625 186.777344 C 109.519531 186.882812 109.367188 186.9375 109.1875 186.9375 L 108.644531 186.9375 C 108.539062 186.9375 108.464844 186.910156 108.417969 186.847656 L 108.355469 186.660156 L 109.679688 171.726562 L 109.75 171.574219 L 109.902344 171.507812 L 111.144531 171.507812 " fill-opacity="1" fill-rule="nonzero"/><path fill="#ffffff" d="M 121.949219 171.507812 L 122.113281 171.574219 L 122.171875 171.738281 L 122.171875 186.707031 L 122.113281 186.871094 L 121.949219 186.9375 L 121.332031 186.9375 C 121.140625 186.9375 120.996094 186.890625 120.890625 186.800781 C 120.785156 186.707031 120.726562 186.582031 120.703125 186.429688 C 120.703125 186.34375 120.675781 186.136719 120.621094 185.8125 C 120.566406 185.488281 120.496094 185.097656 120.410156 184.640625 C 120.328125 184.179688 120.234375 183.671875 120.132812 183.125 C 120.027344 182.570312 119.925781 182.019531 119.824219 181.464844 C 119.71875 180.910156 119.621094 180.378906 119.53125 179.875 C 119.4375 179.367188 119.363281 178.925781 119.300781 178.558594 L 119.414062 186.289062 C 119.421875 186.476562 119.371094 186.636719 119.261719 186.753906 C 119.148438 186.875 118.988281 186.9375 118.777344 186.9375 L 118.160156 186.9375 L 117.992188 186.871094 L 117.9375 186.707031 L 117.9375 171.738281 L 117.992188 171.574219 L 118.160156 171.507812 L 118.777344 171.507812 C 118.957031 171.507812 119.105469 171.554688 119.222656 171.652344 C 119.335938 171.753906 119.398438 171.886719 119.414062 172.046875 C 119.425781 172.164062 119.464844 172.40625 119.515625 172.769531 C 119.566406 173.132812 119.628906 173.566406 119.710938 174.070312 C 119.792969 174.574219 119.878906 175.121094 119.976562 175.710938 C 120.070312 176.300781 120.167969 176.882812 120.269531 177.453125 C 120.367188 178.023438 120.460938 178.554688 120.554688 179.046875 C 120.644531 179.535156 120.730469 179.941406 120.800781 180.257812 L 120.695312 172.066406 C 120.695312 171.898438 120.75 171.761719 120.871094 171.660156 C 120.984375 171.558594 121.140625 171.507812 121.332031 171.507812 L 121.949219 171.507812 " fill-opacity="1" fill-rule="nonzero"/><path fill="#88b2e3" d="M 143.746094 151.21875 L 145.375 136.4375 C 145.375 132.339844 141.753906 129.730469 137.953125 128.191406 C 131.703125 125.664062 117.382812 119.953125 117.382812 119.953125 C 117.382812 119.953125 115.910156 128.945312 107.757812 128.945312 C 100.332031 128.945312 98.347656 119.953125 98.347656 119.953125 C 98.347656 119.953125 83.132812 125.109375 77.773438 128.191406 C 74.21875 130.238281 69.953125 132.992188 69.953125 134.921875 L 72.054688 151.21875 L 143.746094 151.21875 " fill-opacity="1" fill-rule="nonzero"/><path fill="#e87370" d="M 117.382812 119.972656 C 117.382812 119.972656 116.316406 129.109375 107.707031 129.109375 C 99.769531 129.109375 98.347656 119.972656 98.347656 119.972656 L 98.347656 110.652344 L 117.382812 110.652344 L 117.382812 119.972656 " fill-opacity="1" fill-rule="nonzero"/><path fill="#f68078" d="M 128.144531 99.917969 C 128.144531 107.121094 118.539062 116.964844 107.867188 116.964844 C 97.597656 116.964844 87.605469 108.445312 87.605469 99.917969 L 86.796875 84.109375 C 86.796875 72.472656 96.230469 63.050781 107.863281 63.050781 C 119.5 63.050781 128.929688 72.472656 128.929688 84.109375 L 128.144531 99.917969 " fill-opacity="1" fill-rule="nonzero"/><path fill="#f68078" d="M 131.425781 93.753906 C 131.335938 96.203125 129.796875 98.136719 127.984375 98.078125 C 126.164062 98.011719 124.761719 95.980469 124.847656 93.527344 C 124.929688 91.085938 126.464844 89.152344 128.277344 89.210938 C 130.097656 89.273438 131.503906 91.304688 131.425781 93.753906 " fill-opacity="1" fill-rule="nonzero"/><path fill="#f68078" d="M 90.851562 93.335938 C 90.925781 95.789062 89.519531 97.816406 87.707031 97.875 C 85.886719 97.929688 84.351562 95.996094 84.273438 93.546875 C 84.195312 91.101562 85.597656 89.070312 87.414062 89.011719 C 89.230469 88.953125 90.769531 90.890625 90.851562 93.335938 " fill-opacity="1" fill-rule="nonzero"/><path fill="#131d33" d="M 128.496094 93.945312 C 128.496094 93.945312 129.582031 86.359375 129.582031 80.738281 C 129.582031 71.378906 125.570312 59.980469 107.855469 59.980469 C 94.570312 59.980469 86.148438 70.632812 86.148438 82.496094 C 86.148438 86.101562 85.960938 88.3125 86.804688 93.53125 L 88.171875 93.53125 C 92.597656 91.152344 88.671875 82.640625 91.289062 79.953125 C 91.289062 79.953125 94.558594 83.296875 104.195312 83.089844 C 115.597656 82.847656 116.5 77.023438 120.421875 76.960938 C 122.574219 76.929688 123.496094 77.839844 124.039062 80.621094 C 124.960938 85.320312 122.675781 89.210938 127.117188 93.886719 L 128.496094 93.945312 " fill-opacity="1" fill-rule="nonzero"/><path fill="#88b2e3" d="M 141.515625 151.21875 L 155.445312 151.21875 C 151.679688 134.730469 141.46875 130.058594 141.46875 130.058594 C 141.46875 130.058594 141.515625 138.15625 141.515625 151.21875 " fill-opacity="1" fill-rule="nonzero"/><path fill="#88b2e3" d="M 74.855469 151.21875 C 74.847656 138.066406 74.898438 129.898438 74.898438 129.898438 C 74.898438 129.898438 61.574219 135.332031 57.542969 151.21875 L 74.855469 151.21875 " fill-opacity="1" fill-rule="nonzero"/><path fill="#131d33" d="M 108.441406 102.257812 C 108.339844 102.257812 108.230469 102.253906 108.132812 102.246094 C 107.957031 102.226562 107.816406 102.074219 107.839844 101.898438 C 107.855469 101.71875 107.996094 101.570312 108.191406 101.597656 C 108.847656 101.664062 109.34375 101.472656 109.398438 101.328125 C 109.421875 101.265625 109.359375 101.042969 108.820312 100.675781 C 107.195312 99.570312 107.003906 95.71875 106.996094 95.558594 C 106.988281 95.382812 107.125 95.226562 107.308594 95.21875 C 107.496094 95.214844 107.636719 95.355469 107.640625 95.527344 C 107.6875 96.550781 108.050781 99.375 109.179688 100.144531 C 109.894531 100.621094 110.171875 101.09375 110.011719 101.546875 C 109.824219 102.054688 109.132812 102.257812 108.441406 102.257812 " fill-opacity="1" fill-rule="nonzero"/><path fill="#131d33" d="M 97.632812 93.007812 C 97.148438 93.007812 96.710938 93.203125 96.398438 93.558594 C 96.136719 93.871094 96.003906 94.269531 96.003906 94.695312 C 96.003906 95.535156 96.570312 96.402344 97.632812 96.402344 C 98.144531 96.402344 98.585938 96.203125 98.890625 95.84375 C 99.15625 95.535156 99.296875 95.136719 99.296875 94.695312 C 99.296875 93.859375 98.730469 93.007812 97.632812 93.007812 " fill-opacity="1" fill-rule="nonzero"/><path fill="#131d33" d="M 118.035156 93.007812 C 118.523438 93.007812 118.960938 93.203125 119.277344 93.558594 C 119.535156 93.871094 119.667969 94.269531 119.667969 94.695312 C 119.667969 95.535156 119.101562 96.402344 118.035156 96.402344 C 117.527344 96.402344 117.089844 96.203125 116.785156 95.84375 C 116.515625 95.535156 116.375 95.136719 116.375 94.695312 C 116.375 93.859375 116.941406 93.007812 118.035156 93.007812 " fill-opacity="1" fill-rule="nonzero"/><path fill="#131d33" d="M 122.289062 88.457031 C 122.265625 88.429688 121.960938 88.054688 121.335938 87.6875 C 120.714844 87.316406 119.773438 86.953125 118.519531 86.953125 C 117.753906 86.953125 116.875 87.085938 115.882812 87.421875 C 115.640625 87.503906 115.511719 87.761719 115.59375 88.003906 C 115.675781 88.246094 115.9375 88.375 116.175781 88.292969 C 117.082031 87.984375 117.859375 87.871094 118.519531 87.871094 C 119.601562 87.871094 120.367188 88.179688 120.871094 88.472656 C 121.121094 88.625 121.300781 88.773438 121.417969 88.878906 L 121.546875 89.003906 L 121.578125 89.035156 L 121.707031 88.929688 L 121.578125 89.035156 L 121.707031 88.929688 L 121.578125 89.035156 C 121.734375 89.230469 122.023438 89.261719 122.222656 89.101562 C 122.417969 88.945312 122.449219 88.65625 122.289062 88.457031 " fill-opacity="1" fill-rule="nonzero"/><path fill="#131d33" d="M 94.546875 89.035156 L 94.417969 88.929688 L 94.546875 89.035156 L 94.417969 88.929688 L 94.546875 89.035156 C 94.566406 89.015625 95.515625 87.871094 97.605469 87.871094 C 98.261719 87.871094 99.039062 87.984375 99.945312 88.292969 C 100.1875 88.375 100.449219 88.246094 100.527344 88.003906 C 100.609375 87.761719 100.480469 87.503906 100.242188 87.421875 C 99.246094 87.085938 98.371094 86.953125 97.605469 86.953125 C 96.34375 86.953125 95.402344 87.316406 94.785156 87.6875 C 94.164062 88.054688 93.855469 88.429688 93.832031 88.457031 C 93.671875 88.65625 93.703125 88.945312 93.902344 89.101562 C 94.097656 89.261719 94.386719 89.230469 94.546875 89.035156 " fill-opacity="1" fill-rule="nonzero"/><path fill="#f2597f" d="M 101.808594 101.984375 C 101.808594 103.433594 100.019531 104.605469 97.800781 104.605469 C 95.585938 104.605469 93.792969 103.433594 93.792969 101.984375 C 93.792969 100.542969 95.585938 99.367188 97.800781 99.367188 C 100.019531 99.367188 101.808594 100.542969 101.808594 101.984375 " fill-opacity="1" fill-rule="nonzero"/><path fill="#f2597f" d="M 121.875 102.535156 C 121.875 103.980469 120.082031 105.152344 117.867188 105.152344 C 115.652344 105.152344 113.859375 103.980469 113.859375 102.535156 C 113.859375 101.085938 115.652344 99.914062 117.867188 99.914062 C 120.082031 99.914062 121.875 101.085938 121.875 102.535156 " fill-opacity="1" fill-rule="nonzero"/><path fill="#ffffff" d="M 102.730469 107.039062 C 102.820312 109.882812 105.375 112.164062 108.527344 112.164062 C 111.675781 112.164062 114.234375 109.882812 114.320312 107.039062 L 102.730469 107.039062 " fill-opacity="1" fill-rule="nonzero"/><path fill="#313f66" d="M 142.855469 133.066406 L 142.855469 132.574219 L 74.683594 132.574219 L 74.683594 64.902344 L 142.363281 64.902344 L 142.363281 133.066406 L 142.855469 133.066406 L 142.855469 132.574219 L 142.855469 133.066406 L 143.347656 133.066406 L 143.347656 63.921875 L 73.699219 63.921875 L 73.699219 133.558594 L 143.347656 133.558594 L 143.347656 133.066406 L 142.855469 133.066406 " fill-opacity="1" fill-rule="nonzero"/><path fill="#313f66" d="M 133.140625 123.355469 L 133.140625 122.863281 L 84.398438 122.863281 L 84.398438 74.621094 L 132.652344 74.621094 L 132.652344 123.355469 L 133.140625 123.355469 L 133.140625 122.863281 L 133.140625 123.355469 L 133.628906 123.355469 L 133.628906 73.636719 L 83.417969 73.636719 L 83.417969 123.84375 L 133.628906 123.84375 L 133.628906 123.355469 L 133.140625 123.355469 " fill-opacity="1" fill-rule="nonzero"/><path fill="#ffffff" d="M 94.15625 83.640625 C 94.15625 84.5625 93.402344 85.316406 92.476562 85.316406 C 91.550781 85.316406 90.800781 84.5625 90.800781 83.640625 C 90.800781 82.714844 91.550781 81.960938 92.476562 81.960938 C 93.402344 81.960938 94.15625 82.714844 94.15625 83.640625 " fill-opacity="1" fill-rule="nonzero"/><path fill="#ffffff" d="M 110.5625 94.300781 C 110.5625 95.226562 109.808594 95.976562 108.882812 95.976562 C 107.957031 95.976562 107.207031 95.226562 107.207031 94.300781 C 107.207031 93.375 107.957031 92.625 108.882812 92.625 C 109.808594 92.625 110.5625 93.375 110.5625 94.300781 " fill-opacity="1" fill-rule="nonzero"/><path fill="#ffffff" d="M 122.464844 85.316406 C 122.464844 86.242188 121.714844 86.992188 120.789062 86.992188 C 119.859375 86.992188 119.113281 86.242188 119.113281 85.316406 C 119.113281 84.390625 119.859375 83.640625 120.789062 83.640625 C 121.714844 83.640625 122.464844 84.390625 122.464844 85.316406 " fill-opacity="1" fill-rule="nonzero"/><path fill="#ffffff" d="M 99.230469 109.304688 C 99.230469 110.230469 98.480469 110.980469 97.554688 110.980469 C 96.628906 110.980469 95.875 110.230469 95.875 109.304688 C 95.875 108.378906 96.628906 107.628906 97.554688 107.628906 C 98.480469 107.628906 99.230469 108.378906 99.230469 109.304688 " fill-opacity="1" fill-rule="nonzero"/><path fill="#ffffff" d="M 121.328125 111.949219 C 121.328125 112.875 120.574219 113.625 119.648438 113.625 C 118.722656 113.625 117.972656 112.875 117.972656 111.949219 C 117.972656 111.023438 118.722656 110.269531 119.648438 110.269531 C 120.574219 110.269531 121.328125 111.023438 121.328125 111.949219 " fill-opacity="1" fill-rule="nonzero"/><path fill="#ffffff" d="M 97.757812 109.460938 L 109.257812 94.234375 L 92.617188 83.425781 L 92.335938 83.855469 L 108.511719 94.363281 L 97.347656 109.148438 L 97.757812 109.460938 " fill-opacity="1" fill-rule="nonzero"/><path fill="#ffffff" d="M 109.4375 95.46875 L 119.859375 112.085938 L 120.296875 111.8125 L 109.875 95.191406 L 109.4375 95.46875 " fill-opacity="1" fill-rule="nonzero"/><path fill="#ffffff" d="M 120.335938 111.113281 L 121.582031 85.328125 L 121.070312 85.304688 L 119.824219 111.089844 L 120.335938 111.113281 " fill-opacity="1" fill-rule="nonzero"/><path fill="#ffffff" d="M 97.289062 109.253906 L 92.277344 83.914062 L 120.105469 85.15625 L 109.730469 93.671875 L 110.054688 94.070312 L 121.472656 84.703125 L 91.644531 83.367188 L 96.78125 109.355469 L 97.289062 109.253906 " fill-opacity="1" fill-rule="nonzero"/><path fill="#ffffff" d="M 98.058594 110.53125 L 118.910156 112.203125 L 118.953125 111.691406 L 98.097656 110.015625 L 98.058594 110.53125 " fill-opacity="1" fill-rule="nonzero"/><path fill="#e8f8fe" d="M 99.601562 226.917969 L 73.890625 226.917969 L 90.984375 190.09375 L 116.117188 190.09375 L 99.601562 226.917969 M 125.867188 168.363281 L 101.070312 168.363281 L 109.027344 151.21875 L 133.558594 151.21875 L 125.867188 168.363281 " fill-opacity="1" fill-rule="nonzero"/><path fill="#4e6085" d="M 116.117188 190.09375 L 90.984375 190.09375 L 92.511719 186.800781 C 92.613281 186.742188 92.703125 186.671875 92.789062 186.601562 C 92.976562 186.4375 93.121094 186.238281 93.214844 186.003906 C 93.316406 185.773438 93.367188 185.511719 93.367188 185.21875 C 93.367188 185.132812 93.367188 185.046875 93.363281 184.964844 L 98.882812 173.082031 C 98.878906 173.128906 98.878906 173.175781 98.878906 173.226562 L 98.878906 185.21875 C 98.878906 185.511719 98.929688 185.773438 99.027344 186.003906 C 99.125 186.238281 99.269531 186.4375 99.457031 186.601562 C 99.644531 186.765625 99.867188 186.890625 100.125 186.980469 C 100.378906 187.070312 100.667969 187.113281 100.992188 187.113281 C 101.664062 187.113281 102.183594 186.945312 102.554688 186.605469 C 102.925781 186.269531 103.109375 185.804688 103.109375 185.21875 L 103.109375 180.414062 L 103.054688 180.246094 L 102.890625 180.183594 L 102.25 180.183594 C 102.042969 180.1875 101.890625 180.253906 101.789062 180.375 C 101.683594 180.492188 101.632812 180.652344 101.632812 180.839844 L 101.632812 185.21875 C 101.632812 185.417969 101.582031 185.574219 101.476562 185.699219 C 101.367188 185.820312 101.210938 185.878906 100.992188 185.878906 C 100.773438 185.878906 100.613281 185.820312 100.507812 185.699219 C 100.40625 185.574219 100.355469 185.417969 100.355469 185.21875 L 100.355469 173.226562 C 100.355469 173.027344 100.410156 172.867188 100.515625 172.746094 C 100.621094 172.625 100.78125 172.566406 100.992188 172.566406 C 101.214844 172.566406 101.375 172.625 101.480469 172.746094 C 101.582031 172.867188 101.632812 173.027344 101.632812 173.226562 L 101.632812 177.742188 C 101.632812 177.9375 101.6875 178.089844 101.792969 178.214844 C 101.898438 178.335938 102.0625 178.394531 102.273438 178.394531 L 102.890625 178.394531 L 103.054688 178.328125 L 103.109375 178.164062 L 103.109375 173.226562 C 103.109375 172.933594 103.058594 172.667969 102.964844 172.4375 C 102.863281 172.207031 102.71875 172.007812 102.53125 171.84375 C 102.34375 171.675781 102.121094 171.550781 101.863281 171.460938 C 101.597656 171.375 101.3125 171.328125 100.992188 171.328125 C 100.347656 171.328125 99.84375 171.488281 99.472656 171.800781 L 101.070312 168.363281 L 125.867188 168.363281 L 122.171875 176.609375 L 122.171875 171.738281 L 122.113281 171.574219 L 121.949219 171.507812 L 121.332031 171.507812 C 121.140625 171.507812 120.984375 171.558594 120.871094 171.660156 C 120.75 171.761719 120.695312 171.898438 120.695312 172.066406 L 120.796875 179.675781 L 120.710938 179.855469 C 120.664062 179.617188 120.609375 179.351562 120.554688 179.046875 C 120.460938 178.554688 120.367188 178.023438 120.269531 177.453125 C 120.167969 176.882812 120.070312 176.300781 119.976562 175.710938 C 119.878906 175.121094 119.792969 174.574219 119.710938 174.070312 C 119.628906 173.566406 119.566406 173.132812 119.515625 172.769531 C 119.464844 172.40625 119.425781 172.164062 119.414062 172.046875 C 119.398438 171.886719 119.335938 171.753906 119.222656 171.652344 C 119.105469 171.554688 118.957031 171.507812 118.777344 171.507812 L 118.160156 171.507812 L 117.992188 171.574219 L 117.9375 171.738281 L 117.9375 186.042969 L 116.117188 190.09375 M 109.964844 184.28125 L 111.082031 184.28125 L 111.203125 186.382812 C 111.214844 186.539062 111.285156 186.671875 111.40625 186.777344 C 111.527344 186.882812 111.679688 186.9375 111.863281 186.9375 L 112.40625 186.9375 C 112.507812 186.9375 112.582031 186.910156 112.628906 186.847656 L 112.691406 186.660156 L 111.367188 171.726562 L 111.300781 171.574219 L 111.144531 171.507812 L 109.902344 171.507812 L 109.75 171.574219 L 109.679688 171.726562 L 108.355469 186.660156 L 108.417969 186.847656 C 108.464844 186.910156 108.539062 186.9375 108.644531 186.9375 L 109.1875 186.9375 C 109.367188 186.9375 109.519531 186.882812 109.640625 186.777344 C 109.765625 186.671875 109.832031 186.539062 109.84375 186.382812 L 109.964844 184.28125 M 111.003906 183.046875 L 110.035156 183.046875 L 110.519531 174.800781 L 111.003906 183.046875 M 119.367188 182.859375 L 119.300781 178.558594 C 119.363281 178.925781 119.4375 179.367188 119.53125 179.875 C 119.621094 180.378906 119.71875 180.910156 119.824219 181.464844 C 119.839844 181.554688 119.855469 181.644531 119.871094 181.730469 L 119.367188 182.859375 " fill-opacity="1" fill-rule="nonzero"/><path fill="#e8f8fe" d="M 92.511719 186.800781 L 93.363281 184.964844 C 93.367188 185.046875 93.367188 185.132812 93.367188 185.21875 C 93.367188 185.511719 93.316406 185.773438 93.214844 186.003906 C 93.121094 186.238281 92.976562 186.4375 92.789062 186.601562 C 92.703125 186.671875 92.613281 186.742188 92.511719 186.800781 " fill-opacity="1" fill-rule="nonzero"/><path fill="#e8f8fe" d="M 100.992188 187.113281 C 100.667969 187.113281 100.378906 187.070312 100.125 186.980469 C 99.867188 186.890625 99.644531 186.765625 99.457031 186.601562 C 99.269531 186.4375 99.125 186.238281 99.027344 186.003906 C 98.929688 185.773438 98.878906 185.511719 98.878906 185.21875 L 98.878906 173.226562 C 98.878906 173.175781 98.878906 173.128906 98.882812 173.082031 L 99.472656 171.800781 C 99.84375 171.488281 100.347656 171.328125 100.992188 171.328125 C 101.3125 171.328125 101.597656 171.375 101.863281 171.460938 C 102.121094 171.550781 102.34375 171.675781 102.53125 171.84375 C 102.71875 172.007812 102.863281 172.207031 102.964844 172.4375 C 103.058594 172.667969 103.109375 172.933594 103.109375 173.226562 L 103.109375 178.164062 L 103.054688 178.328125 L 102.890625 178.394531 L 102.273438 178.394531 C 102.0625 178.394531 101.898438 178.335938 101.792969 178.214844 C 101.6875 178.089844 101.632812 177.9375 101.632812 177.742188 L 101.632812 173.226562 C 101.632812 173.027344 101.582031 172.867188 101.480469 172.746094 C 101.375 172.625 101.214844 172.566406 100.992188 172.566406 C 100.78125 172.566406 100.621094 172.625 100.515625 172.746094 C 100.410156 172.867188 100.355469 173.027344 100.355469 173.226562 L 100.355469 185.21875 C 100.355469 185.417969 100.40625 185.574219 100.507812 185.699219 C 100.613281 185.820312 100.773438 185.878906 100.992188 185.878906 C 101.210938 185.878906 101.367188 185.820312 101.476562 185.699219 C 101.582031 185.574219 101.632812 185.417969 101.632812 185.21875 L 101.632812 180.839844 C 101.632812 180.652344 101.683594 180.492188 101.789062 180.375 C 101.890625 180.253906 102.042969 180.1875 102.25 180.183594 L 102.890625 180.183594 L 103.054688 180.246094 L 103.109375 180.414062 L 103.109375 185.21875 C 103.109375 185.804688 102.925781 186.269531 102.554688 186.605469 C 102.183594 186.945312 101.664062 187.113281 100.992188 187.113281 " fill-opacity="1" fill-rule="nonzero"/><path fill="#e8f8fe" d="M 112.40625 186.9375 L 111.863281 186.9375 C 111.679688 186.9375 111.527344 186.882812 111.40625 186.777344 C 111.285156 186.671875 111.214844 186.539062 111.203125 186.382812 L 111.082031 184.28125 L 109.964844 184.28125 L 109.84375 186.382812 C 109.832031 186.539062 109.765625 186.671875 109.640625 186.777344 C 109.519531 186.882812 109.367188 186.9375 109.1875 186.9375 L 108.644531 186.9375 C 108.539062 186.9375 108.464844 186.910156 108.417969 186.847656 L 108.355469 186.660156 L 109.679688 171.726562 L 109.75 171.574219 L 109.902344 171.507812 L 111.144531 171.507812 L 111.300781 171.574219 L 111.367188 171.726562 L 112.691406 186.660156 L 112.628906 186.847656 C 112.582031 186.910156 112.507812 186.9375 112.40625 186.9375 M 110.519531 174.800781 L 110.035156 183.046875 L 111.003906 183.046875 L 110.519531 174.800781 " fill-opacity="1" fill-rule="nonzero"/><path fill="#e8f8fe" d="M 117.9375 186.042969 L 117.9375 171.738281 L 117.992188 171.574219 L 118.160156 171.507812 L 118.777344 171.507812 C 118.957031 171.507812 119.105469 171.554688 119.222656 171.652344 C 119.335938 171.753906 119.398438 171.886719 119.414062 172.046875 C 119.425781 172.164062 119.464844 172.40625 119.515625 172.769531 C 119.566406 173.132812 119.628906 173.566406 119.710938 174.070312 C 119.792969 174.574219 119.878906 175.121094 119.976562 175.710938 C 120.070312 176.300781 120.167969 176.882812 120.269531 177.453125 C 120.367188 178.023438 120.460938 178.554688 120.554688 179.046875 C 120.609375 179.351562 120.664062 179.617188 120.710938 179.855469 L 119.871094 181.730469 C 119.855469 181.644531 119.839844 181.554688 119.824219 181.464844 C 119.71875 180.910156 119.621094 180.378906 119.53125 179.875 C 119.4375 179.367188 119.363281 178.925781 119.300781 178.558594 L 119.367188 182.859375 L 117.9375 186.042969 M 120.796875 179.675781 L 120.695312 172.066406 C 120.695312 171.898438 120.75 171.761719 120.871094 171.660156 C 120.984375 171.558594 121.140625 171.507812 121.332031 171.507812 L 121.949219 171.507812 L 122.113281 171.574219 L 122.171875 171.738281 L 122.171875 176.609375 L 120.796875 179.675781 " fill-opacity="1" fill-rule="nonzero"/><path fill="#94c0e9" d="M 133.558594 151.21875 L 109.027344 151.21875 L 117.226562 133.558594 L 141.484375 133.558594 L 133.558594 151.21875 " fill-opacity="1" fill-rule="nonzero"/><path fill="#e8f8fe" d="M 142.363281 130.554688 C 142.003906 130.332031 141.734375 130.191406 141.585938 130.117188 C 140.484375 129.34375 139.230469 128.707031 137.953125 128.191406 C 135.253906 127.097656 131.039062 125.410156 127.128906 123.84375 L 133.628906 123.84375 L 133.628906 98.222656 L 142.363281 79.410156 L 142.363281 130.554688 " fill-opacity="1" fill-rule="nonzero"/><path fill="#94c0e9" d="M 141.480469 132.574219 L 117.683594 132.574219 L 121.738281 123.84375 L 127.128906 123.84375 C 131.039062 125.410156 135.253906 127.097656 137.953125 128.191406 C 139.230469 128.707031 140.484375 129.34375 141.585938 130.117188 C 141.511719 130.078125 141.46875 130.058594 141.46875 130.058594 C 141.46875 130.058594 141.472656 130.9375 141.480469 132.574219 " fill-opacity="1" fill-rule="nonzero"/><path fill="#94c0e9" d="M 141.925781 132.574219 L 141.480469 132.574219 C 141.472656 130.9375 141.46875 130.058594 141.46875 130.058594 C 141.46875 130.058594 141.511719 130.078125 141.585938 130.117188 C 141.734375 130.191406 142.003906 130.332031 142.363281 130.554688 L 142.363281 131.597656 L 141.925781 132.574219 " fill-opacity="1" fill-rule="nonzero"/><path fill="#e8f8fe" d="M 143.347656 129.40625 L 143.347656 77.292969 L 158.464844 44.730469 L 169.097656 44.730469 L 169.097656 72.011719 L 143.347656 129.40625 M 132.652344 122.863281 L 124.671875 122.863281 C 123.945312 122.570312 123.242188 122.289062 122.582031 122.027344 L 132.652344 100.335938 L 132.652344 122.863281 " fill-opacity="1" fill-rule="nonzero"/><path fill="#94c0e9" d="M 124.671875 122.863281 L 122.195312 122.863281 L 122.582031 122.027344 C 123.242188 122.289062 123.945312 122.570312 124.671875 122.863281 " fill-opacity="1" fill-rule="nonzero"/><path fill="#4e6085" d="M 141.484375 133.558594 L 117.226562 133.558594 L 117.683594 132.574219 L 141.925781 132.574219 L 141.484375 133.558594 M 142.363281 131.597656 L 142.363281 79.410156 L 143.347656 77.292969 L 143.347656 129.40625 L 142.363281 131.597656 " fill-opacity="1" fill-rule="nonzero"/><path fill="#4e6085" d="M 133.628906 123.84375 L 121.738281 123.84375 L 122.195312 122.863281 L 132.652344 122.863281 L 132.652344 100.335938 L 133.628906 98.222656 L 133.628906 123.84375 M 133.140625 123.355469 L 133.140625 122.863281 L 133.140625 123.355469 " fill-opacity="1" fill-rule="nonzero"/><path fill="#44c2e7" d="M 44.988281 226.917969 L 44.949219 226.917969 L 44.949219 217.589844 C 44.949219 217.589844 44.964844 217.566406 44.988281 217.511719 L 44.988281 226.917969 " fill-opacity="1" fill-rule="nonzero"/><path fill="#e8f8fe" d="M 65.71875 226.917969 L 44.988281 226.917969 L 44.988281 217.511719 C 45.882812 215.792969 60.542969 185.769531 77.386719 151.21875 L 101.359375 151.21875 L 93.289062 168.363281 L 82.179688 168.363281 C 81.199219 168.363281 80.402344 169.15625 80.402344 170.132812 L 80.402344 188.320312 C 80.402344 189.300781 81.199219 190.09375 82.179688 190.09375 L 83.058594 190.09375 L 65.71875 226.917969 " fill-opacity="1" fill-rule="nonzero"/><path fill="#4e6085" d="M 83.058594 190.09375 L 82.179688 190.09375 C 81.199219 190.09375 80.402344 189.300781 80.402344 188.320312 L 80.402344 170.132812 C 80.402344 169.15625 81.199219 168.363281 82.179688 168.363281 L 93.289062 168.363281 L 91.867188 171.386719 C 91.675781 171.347656 91.472656 171.328125 91.25 171.328125 C 90.925781 171.328125 90.636719 171.375 90.378906 171.460938 C 90.121094 171.550781 89.902344 171.675781 89.710938 171.84375 C 89.523438 172.007812 89.378906 172.207031 89.28125 172.4375 C 89.179688 172.667969 89.132812 172.933594 89.132812 173.226562 C 89.132812 174.152344 89.199219 174.960938 89.339844 175.648438 C 89.386719 175.910156 89.445312 176.160156 89.507812 176.402344 L 83.058594 190.09375 M 90.628906 174.011719 C 90.617188 173.761719 90.609375 173.5 90.609375 173.226562 C 90.609375 173.027344 90.664062 172.867188 90.765625 172.746094 C 90.867188 172.625 91.027344 172.566406 91.25 172.566406 C 91.269531 172.566406 91.292969 172.566406 91.3125 172.566406 L 90.628906 174.011719 " fill-opacity="1" fill-rule="nonzero"/><path fill="#e8f8fe" d="M 89.507812 176.402344 C 89.445312 176.160156 89.386719 175.910156 89.339844 175.648438 C 89.199219 174.960938 89.132812 174.152344 89.132812 173.226562 C 89.132812 172.933594 89.179688 172.667969 89.28125 172.4375 C 89.378906 172.207031 89.523438 172.007812 89.710938 171.84375 C 89.902344 171.675781 90.121094 171.550781 90.378906 171.460938 C 90.636719 171.375 90.925781 171.328125 91.25 171.328125 C 91.472656 171.328125 91.675781 171.347656 91.867188 171.386719 L 91.3125 172.566406 C 91.292969 172.566406 91.269531 172.566406 91.25 172.566406 C 91.027344 172.566406 90.867188 172.625 90.765625 172.746094 C 90.664062 172.867188 90.609375 173.027344 90.609375 173.226562 C 90.609375 173.5 90.617188 173.761719 90.628906 174.011719 L 89.507812 176.402344 " fill-opacity="1" fill-rule="nonzero"/><path fill="#94c0e9" d="M 101.359375 151.21875 L 77.386719 151.21875 C 80.214844 145.425781 83.101562 139.496094 85.996094 133.558594 L 109.675781 133.558594 L 101.359375 151.21875 M 110.140625 132.574219 L 86.476562 132.574219 C 87.898438 129.660156 89.316406 126.75 90.734375 123.84375 L 99.667969 123.84375 C 100.9375 126.335938 103.332031 129.109375 107.707031 129.109375 C 109.5625 129.109375 111.066406 128.6875 112.28125 128.023438 L 110.140625 132.574219 " fill-opacity="1" fill-rule="nonzero"/><path fill="#dc9693" d="M 107.707031 129.109375 C 103.332031 129.109375 100.9375 126.335938 99.667969 123.84375 L 114.25 123.84375 L 112.28125 128.023438 C 111.066406 128.6875 109.5625 129.109375 107.707031 129.109375 " fill-opacity="1" fill-rule="nonzero"/><path fill="#e8f8fe" d="M 91.429688 122.410156 C 92.945312 119.3125 94.445312 116.230469 95.929688 113.179688 C 96.703125 113.695312 97.511719 114.171875 98.347656 114.59375 L 98.347656 119.953125 C 98.347656 119.953125 95.289062 120.988281 91.429688 122.410156 M 117.382812 117.191406 L 117.382812 114.417969 C 117.921875 114.125 118.449219 113.808594 118.960938 113.476562 C 119.007812 113.5 119.054688 113.519531 119.101562 113.535156 L 117.382812 117.191406 " fill-opacity="1" fill-rule="nonzero"/><path fill="#94c0e9" d="M 99.214844 122.863281 L 91.210938 122.863281 C 91.285156 122.710938 91.355469 122.5625 91.429688 122.410156 C 95.289062 120.988281 98.347656 119.953125 98.347656 119.953125 L 98.347656 119.972656 C 98.347656 119.972656 98.546875 121.257812 99.214844 122.863281 " fill-opacity="1" fill-rule="nonzero"/><path fill="#dc9693" d="M 114.710938 122.863281 L 99.214844 122.863281 C 98.546875 121.257812 98.347656 119.972656 98.347656 119.972656 L 98.347656 114.59375 C 101.273438 116.082031 104.558594 116.964844 107.867188 116.964844 C 111.230469 116.964844 114.492188 115.984375 117.382812 114.417969 L 117.382812 117.191406 L 114.710938 122.863281 " fill-opacity="1" fill-rule="nonzero"/><path fill="#e4a19a" d="M 107.867188 116.964844 C 104.558594 116.964844 101.273438 116.082031 98.347656 114.59375 C 97.511719 114.171875 96.703125 113.695312 95.929688 113.179688 C 96.300781 112.417969 96.671875 111.660156 97.039062 110.898438 C 97.203125 110.953125 97.375 110.980469 97.554688 110.980469 C 97.972656 110.980469 98.351562 110.828125 98.644531 110.574219 L 105.015625 111.089844 C 105.988281 111.765625 107.203125 112.164062 108.527344 112.164062 C 109.480469 112.164062 110.382812 111.957031 111.179688 111.585938 L 117.980469 112.128906 C 118.046875 112.734375 118.433594 113.238281 118.960938 113.476562 C 118.449219 113.808594 117.921875 114.125 117.382812 114.417969 C 114.492188 115.984375 111.230469 116.964844 107.867188 116.964844 M 118.003906 111.617188 L 111.976562 111.132812 C 113.359375 110.195312 114.269531 108.714844 114.320312 107.039062 L 102.730469 107.039062 C 102.773438 108.382812 103.367188 109.601562 104.316406 110.515625 L 99.035156 110.089844 C 99.160156 109.855469 99.230469 109.589844 99.230469 109.304688 C 99.230469 108.851562 99.050781 108.441406 98.757812 108.136719 L 107.15625 97.015625 C 107.359375 98.273438 107.816406 99.996094 108.820312 100.675781 C 109.359375 101.042969 109.421875 101.265625 109.398438 101.328125 C 109.351562 101.453125 108.976562 101.609375 108.453125 101.609375 C 108.371094 101.609375 108.285156 101.609375 108.191406 101.597656 C 108.175781 101.59375 108.160156 101.59375 108.144531 101.59375 C 107.976562 101.59375 107.851562 101.734375 107.839844 101.898438 C 107.816406 102.074219 107.957031 102.226562 108.132812 102.246094 C 108.230469 102.253906 108.339844 102.257812 108.441406 102.257812 C 109.132812 102.257812 109.824219 102.054688 110.011719 101.546875 C 110.171875 101.09375 109.894531 100.621094 109.179688 100.144531 C 108.265625 99.523438 107.855469 97.558594 107.707031 96.285156 L 108.089844 95.777344 C 108.328125 95.902344 108.597656 95.976562 108.882812 95.976562 C 109.15625 95.976562 109.414062 95.910156 109.640625 95.796875 L 113.859375 102.519531 C 113.859375 102.527344 113.859375 102.53125 113.859375 102.535156 C 113.859375 103.257812 114.308594 103.910156 115.03125 104.382812 L 118.847656 110.472656 C 118.417969 110.707031 118.105469 111.121094 118.003906 111.617188 " fill-opacity="1" fill-rule="nonzero"/><path fill="#303e5a" d="M 108.441406 102.257812 C 108.339844 102.257812 108.230469 102.253906 108.132812 102.246094 C 107.957031 102.226562 107.816406 102.074219 107.839844 101.898438 C 107.851562 101.734375 107.976562 101.59375 108.144531 101.59375 C 108.160156 101.59375 108.175781 101.59375 108.191406 101.597656 C 108.285156 101.609375 108.371094 101.609375 108.453125 101.609375 C 108.976562 101.609375 109.351562 101.453125 109.398438 101.328125 C 109.421875 101.265625 109.359375 101.042969 108.820312 100.675781 C 107.816406 99.996094 107.359375 98.273438 107.15625 97.015625 L 107.707031 96.285156 C 107.855469 97.558594 108.265625 99.523438 109.179688 100.144531 C 109.894531 100.621094 110.171875 101.09375 110.011719 101.546875 C 109.824219 102.054688 109.132812 102.257812 108.441406 102.257812 " fill-opacity="1" fill-rule="nonzero"/><path fill="#e8f8fe" d="M 130.144531 90.082031 C 129.824219 89.753906 129.453125 89.507812 129.050781 89.363281 C 129.320312 86.777344 129.582031 83.515625 129.582031 80.738281 C 129.582031 78.746094 129.402344 76.664062 128.945312 74.621094 L 132.652344 74.621094 L 132.652344 84.761719 L 130.144531 90.082031 " fill-opacity="1" fill-rule="nonzero"/><path fill="#e4a19a" d="M 120.523438 110.519531 C 120.476562 110.488281 120.421875 110.460938 120.367188 110.433594 L 120.660156 104.410156 C 121.414062 103.941406 121.875 103.273438 121.875 102.535156 C 121.875 101.859375 121.484375 101.238281 120.839844 100.773438 L 121.414062 88.871094 C 121.417969 88.871094 121.417969 88.875 121.417969 88.878906 L 121.546875 89.003906 L 121.578125 89.035156 C 121.671875 89.148438 121.800781 89.207031 121.933594 89.207031 C 122.035156 89.207031 122.136719 89.171875 122.222656 89.101562 C 122.417969 88.945312 122.449219 88.65625 122.289062 88.457031 C 122.265625 88.429688 122 88.105469 121.464844 87.761719 L 121.507812 86.828125 C 122.074219 86.558594 122.464844 85.984375 122.464844 85.316406 C 122.464844 84.390625 121.714844 83.640625 120.789062 83.640625 C 120.117188 83.640625 119.539062 84.035156 119.269531 84.601562 L 110.054688 84.191406 C 110.414062 83.457031 110.773438 82.71875 111.125 81.996094 C 116.261719 80.242188 117.507812 77.007812 120.421875 76.960938 C 120.457031 76.960938 120.496094 76.960938 120.53125 76.960938 C 122.605469 76.960938 123.507812 77.890625 124.039062 80.621094 C 124.800781 84.476562 123.394531 87.785156 125.316406 91.433594 C 125.039062 92.050781 124.871094 92.765625 124.847656 93.527344 C 124.785156 95.304688 125.503906 96.863281 126.601562 97.609375 L 120.523438 110.519531 " fill-opacity="1" fill-rule="nonzero"/><path fill="#e4a19a" d="M 126.601562 97.609375 C 125.503906 96.863281 124.785156 95.304688 124.847656 93.527344 C 124.871094 92.765625 125.039062 92.050781 125.316406 91.433594 C 125.738281 92.230469 126.320312 93.046875 127.117188 93.886719 L 128.328125 93.941406 L 126.601562 97.609375 M 128.566406 93.429688 C 128.671875 92.679688 128.859375 91.191406 129.050781 89.363281 C 129.453125 89.507812 129.824219 89.753906 130.144531 90.082031 L 128.566406 93.429688 " fill-opacity="1" fill-rule="nonzero"/><path fill="#303e5a" d="M 128.328125 93.941406 L 127.117188 93.886719 C 126.320312 93.046875 125.738281 92.230469 125.316406 91.433594 C 123.394531 87.785156 124.800781 84.476562 124.039062 80.621094 C 123.507812 77.890625 122.605469 76.960938 120.53125 76.960938 C 120.496094 76.960938 120.457031 76.960938 120.421875 76.960938 C 117.507812 77.007812 116.261719 80.242188 111.125 81.996094 C 112.371094 79.445312 113.566406 76.984375 114.722656 74.621094 L 128.945312 74.621094 C 129.402344 76.664062 129.582031 78.746094 129.582031 80.738281 C 129.582031 83.515625 129.320312 86.777344 129.050781 89.363281 C 128.859375 91.191406 128.671875 92.679688 128.566406 93.429688 L 128.328125 93.941406 " fill-opacity="1" fill-rule="nonzero"/><path fill="#303e5a" d="M 121.933594 89.207031 C 121.800781 89.207031 121.671875 89.148438 121.578125 89.035156 L 121.546875 89.003906 L 121.417969 88.878906 C 121.417969 88.875 121.417969 88.871094 121.414062 88.871094 L 121.464844 87.761719 C 122 88.105469 122.265625 88.429688 122.289062 88.457031 C 122.449219 88.65625 122.417969 88.945312 122.222656 89.101562 C 122.136719 89.171875 122.035156 89.207031 121.933594 89.207031 " fill-opacity="1" fill-rule="nonzero"/><path fill="#e4a19a" d="M 119.347656 110.300781 L 115.914062 104.820312 C 116.492188 105.03125 117.15625 105.152344 117.867188 105.152344 C 118.707031 105.152344 119.484375 104.984375 120.132812 104.699219 L 119.859375 110.285156 C 119.789062 110.277344 119.71875 110.269531 119.648438 110.269531 C 119.546875 110.269531 119.445312 110.28125 119.347656 110.300781 M 114.019531 101.804688 L 110.058594 95.492188 C 110.367188 95.191406 110.5625 94.765625 110.5625 94.300781 C 110.5625 94.101562 110.527344 93.910156 110.460938 93.734375 L 117.507812 87.957031 C 117.871094 87.898438 118.207031 87.871094 118.519531 87.871094 C 119.601562 87.871094 120.367188 88.179688 120.871094 88.472656 C 120.882812 88.484375 120.898438 88.492188 120.910156 88.503906 L 120.332031 100.46875 C 119.652344 100.121094 118.796875 99.914062 117.867188 99.914062 C 116.042969 99.914062 114.503906 100.710938 114.019531 101.804688 M 118.035156 93.007812 C 116.941406 93.007812 116.375 93.859375 116.375 94.695312 C 116.375 95.136719 116.515625 95.535156 116.785156 95.84375 C 117.089844 96.203125 117.527344 96.402344 118.035156 96.402344 C 119.101562 96.402344 119.667969 95.535156 119.667969 94.695312 C 119.667969 94.269531 119.535156 93.871094 119.277344 93.558594 C 118.960938 93.203125 118.523438 93.007812 118.035156 93.007812 M 120.964844 87.484375 C 120.402344 87.214844 119.652344 86.984375 118.722656 86.957031 L 119.464844 86.347656 C 119.773438 86.738281 120.253906 86.992188 120.789062 86.992188 C 120.855469 86.992188 120.921875 86.988281 120.984375 86.980469 L 120.964844 87.484375 " fill-opacity="1" fill-rule="nonzero"/><path fill="#303e5a" d="M 118.035156 96.402344 C 117.527344 96.402344 117.089844 96.203125 116.785156 95.84375 C 116.515625 95.535156 116.375 95.136719 116.375 94.695312 C 116.375 93.859375 116.941406 93.007812 118.035156 93.007812 C 118.523438 93.007812 118.960938 93.203125 119.277344 93.558594 C 119.535156 93.871094 119.667969 94.269531 119.667969 94.695312 C 119.667969 95.535156 119.101562 96.402344 118.035156 96.402344 " fill-opacity="1" fill-rule="nonzero"/><path fill="#303e5a" d="M 120.910156 88.503906 C 120.898438 88.492188 120.882812 88.484375 120.871094 88.472656 C 120.367188 88.179688 119.601562 87.871094 118.519531 87.871094 C 118.207031 87.871094 117.871094 87.898438 117.507812 87.957031 L 118.722656 86.957031 C 119.652344 86.984375 120.402344 87.214844 120.964844 87.484375 L 120.910156 88.503906 " fill-opacity="1" fill-rule="nonzero"/><path fill="#e4a19a" d="M 110.210938 93.277344 C 109.902344 92.878906 109.421875 92.625 108.882812 92.625 C 108.386719 92.625 107.941406 92.839844 107.632812 93.183594 L 106.148438 92.214844 C 107.398438 89.648438 108.625 87.132812 109.808594 84.695312 L 119.125 85.113281 C 119.117188 85.179688 119.113281 85.25 119.113281 85.316406 C 119.113281 85.519531 119.148438 85.710938 119.210938 85.886719 L 117.875 86.984375 C 117.273438 87.039062 116.605469 87.175781 115.882812 87.421875 C 115.640625 87.503906 115.511719 87.761719 115.59375 88.003906 C 115.660156 88.195312 115.835938 88.316406 116.027344 88.316406 C 116.078125 88.316406 116.125 88.308594 116.175781 88.292969 C 116.238281 88.269531 116.296875 88.25 116.355469 88.230469 L 110.210938 93.277344 " fill-opacity="1" fill-rule="nonzero"/><path fill="#303e5a" d="M 116.027344 88.316406 C 115.835938 88.316406 115.660156 88.195312 115.59375 88.003906 C 115.511719 87.761719 115.640625 87.503906 115.882812 87.421875 C 116.605469 87.175781 117.273438 87.039062 117.875 86.984375 L 116.355469 88.230469 C 116.296875 88.25 116.238281 88.269531 116.175781 88.292969 C 116.125 88.308594 116.078125 88.316406 116.027344 88.316406 " fill-opacity="1" fill-rule="nonzero"/><path fill="#e8f8fe" d="M 133.628906 82.675781 L 133.628906 73.636719 L 128.707031 73.636719 C 127.835938 70.40625 126.230469 67.320312 123.519531 64.902344 L 142 64.902344 L 133.628906 82.675781 " fill-opacity="1" fill-rule="nonzero"/><path fill="#303e5a" d="M 128.707031 73.636719 L 115.195312 73.636719 C 116.714844 70.53125 118.132812 67.609375 119.453125 64.902344 L 123.519531 64.902344 C 126.230469 67.320312 127.835938 70.40625 128.707031 73.636719 " fill-opacity="1" fill-rule="nonzero"/><path fill="#e8f8fe" d="M 142.460938 63.921875 L 122.304688 63.921875 C 121.742188 63.507812 121.140625 63.125 120.496094 62.765625 C 125.898438 51.671875 129.277344 44.730469 129.277344 44.730469 L 151.496094 44.730469 L 142.460938 63.921875 " fill-opacity="1" fill-rule="nonzero"/><path fill="#303e5a" d="M 122.304688 63.921875 L 119.933594 63.921875 C 120.121094 63.53125 120.308594 63.148438 120.496094 62.765625 C 121.140625 63.125 121.742188 63.507812 122.304688 63.921875 " fill-opacity="1" fill-rule="nonzero"/><path fill="#e2869f" d="M 117.867188 105.152344 C 117.15625 105.152344 116.492188 105.03125 115.914062 104.820312 L 114.019531 101.804688 C 114.503906 100.710938 116.042969 99.914062 117.867188 99.914062 C 118.796875 99.914062 119.652344 100.121094 120.332031 100.46875 L 120.132812 104.699219 C 119.484375 104.984375 118.707031 105.152344 117.867188 105.152344 M 120.660156 104.410156 L 120.839844 100.773438 C 121.484375 101.238281 121.875 101.859375 121.875 102.535156 C 121.875 103.273438 121.414062 103.941406 120.660156 104.410156 M 115.03125 104.382812 C 114.308594 103.910156 113.859375 103.257812 113.859375 102.535156 C 113.859375 102.53125 113.859375 102.527344 113.859375 102.519531 L 115.03125 104.382812 " fill-opacity="1" fill-rule="nonzero"/><path fill="#e8f8fe" d="M 108.527344 112.164062 C 107.203125 112.164062 105.988281 111.765625 105.015625 111.089844 L 111.179688 111.585938 C 110.382812 111.957031 109.480469 112.164062 108.527344 112.164062 M 111.976562 111.132812 L 104.316406 110.515625 C 103.367188 109.601562 102.773438 108.382812 102.730469 107.039062 L 114.320312 107.039062 C 114.269531 108.714844 113.359375 110.195312 111.976562 111.132812 " fill-opacity="1" fill-rule="nonzero"/><path fill="#4e6085" d="M 109.675781 133.558594 L 85.996094 133.558594 C 86.160156 133.230469 86.316406 132.902344 86.476562 132.574219 L 110.140625 132.574219 L 109.675781 133.558594 M 142 64.902344 L 119.453125 64.902344 C 119.613281 64.574219 119.773438 64.246094 119.933594 63.921875 L 142.460938 63.921875 L 142 64.902344 " fill-opacity="1" fill-rule="nonzero"/><path fill="#4e6085" d="M 114.25 123.84375 L 90.734375 123.84375 C 90.890625 123.515625 91.050781 123.191406 91.210938 122.863281 L 114.710938 122.863281 L 114.25 123.84375 M 132.652344 84.761719 L 132.652344 74.621094 L 114.722656 74.621094 C 114.878906 74.289062 115.039062 73.960938 115.195312 73.636719 L 133.628906 73.636719 L 133.628906 82.675781 L 132.652344 84.761719 " fill-opacity="1" fill-rule="nonzero"/><path fill="#e8f8fe" d="M 108.882812 95.976562 C 108.597656 95.976562 108.328125 95.902344 108.089844 95.777344 L 109.257812 94.234375 L 107.632812 93.183594 C 107.941406 92.839844 108.386719 92.625 108.882812 92.625 C 109.421875 92.625 109.902344 92.878906 110.210938 93.277344 L 109.730469 93.671875 L 110.054688 94.070312 L 110.460938 93.734375 C 110.527344 93.910156 110.5625 94.101562 110.5625 94.300781 C 110.5625 94.765625 110.367188 95.191406 110.058594 95.492188 L 109.875 95.191406 L 109.4375 95.46875 L 109.640625 95.796875 C 109.414062 95.910156 109.15625 95.976562 108.882812 95.976562 " fill-opacity="1" fill-rule="nonzero"/><path fill="#e8f8fe" d="M 120.789062 86.992188 C 120.253906 86.992188 119.773438 86.738281 119.464844 86.347656 L 121.472656 84.703125 L 119.269531 84.601562 C 119.539062 84.035156 120.117188 83.640625 120.789062 83.640625 C 121.714844 83.640625 122.464844 84.390625 122.464844 85.316406 C 122.464844 85.984375 122.074219 86.558594 121.507812 86.828125 L 121.582031 85.328125 L 121.070312 85.304688 L 120.984375 86.980469 C 120.921875 86.988281 120.855469 86.992188 120.789062 86.992188 M 119.210938 85.886719 C 119.148438 85.710938 119.113281 85.519531 119.113281 85.316406 C 119.113281 85.25 119.117188 85.179688 119.125 85.113281 L 120.105469 85.15625 L 119.210938 85.886719 " fill-opacity="1" fill-rule="nonzero"/><path fill="#e8f8fe" d="M 97.554688 110.980469 C 97.375 110.980469 97.203125 110.953125 97.039062 110.898438 C 97.277344 110.417969 97.511719 109.933594 97.746094 109.453125 L 97.757812 109.460938 L 98.757812 108.136719 C 99.050781 108.441406 99.230469 108.851562 99.230469 109.304688 C 99.230469 109.589844 99.160156 109.855469 99.035156 110.089844 L 98.097656 110.015625 L 98.058594 110.53125 L 98.644531 110.574219 C 98.351562 110.828125 97.972656 110.980469 97.554688 110.980469 " fill-opacity="1" fill-rule="nonzero"/><path fill="#e8f8fe" d="M 119.101562 113.535156 C 119.054688 113.519531 119.007812 113.5 118.960938 113.476562 C 118.433594 113.238281 118.046875 112.734375 117.980469 112.128906 L 118.910156 112.203125 L 118.953125 111.691406 L 118.003906 111.617188 C 118.105469 111.121094 118.417969 110.707031 118.847656 110.472656 L 119.816406 112.019531 L 119.101562 113.535156 M 120.078125 111.460938 L 119.84375 111.089844 L 120.246094 111.109375 L 120.078125 111.460938 M 119.824219 111.054688 L 119.347656 110.300781 C 119.445312 110.28125 119.546875 110.269531 119.648438 110.269531 C 119.71875 110.269531 119.789062 110.277344 119.859375 110.285156 L 119.824219 111.054688 M 120.351562 110.890625 L 120.367188 110.433594 C 120.421875 110.460938 120.476562 110.488281 120.523438 110.519531 L 120.351562 110.890625 " fill-opacity="1" fill-rule="nonzero"/><path fill="#e4a19a" d="M 98.890625 107.109375 C 99.402344 106.058594 99.910156 105.007812 100.417969 103.972656 C 101.269531 103.492188 101.808594 102.78125 101.808594 101.984375 C 101.808594 101.769531 101.769531 101.554688 101.695312 101.355469 C 103.128906 98.402344 104.539062 95.511719 105.917969 92.679688 L 107.351562 93.613281 C 107.257812 93.820312 107.207031 94.054688 107.207031 94.300781 C 107.207031 94.675781 107.328125 95.023438 107.542969 95.300781 C 107.484375 95.25 107.410156 95.21875 107.324219 95.21875 C 107.320312 95.21875 107.3125 95.21875 107.308594 95.21875 C 107.125 95.226562 106.988281 95.382812 106.996094 95.558594 C 106.996094 95.601562 107.011719 95.878906 107.054688 96.292969 L 98.890625 107.109375 M 107.640625 95.515625 C 107.636719 95.464844 107.625 95.421875 107.601562 95.378906 C 107.625 95.410156 107.652344 95.4375 107.679688 95.464844 L 107.640625 95.515625 " fill-opacity="1" fill-rule="nonzero"/><path fill="#303e5a" d="M 107.054688 96.292969 C 107.011719 95.878906 106.996094 95.601562 106.996094 95.558594 C 106.988281 95.382812 107.125 95.226562 107.308594 95.21875 C 107.3125 95.21875 107.320312 95.21875 107.324219 95.21875 C 107.410156 95.21875 107.484375 95.25 107.542969 95.300781 C 107.558594 95.328125 107.578125 95.355469 107.601562 95.378906 C 107.625 95.421875 107.636719 95.464844 107.640625 95.515625 L 107.054688 96.292969 " fill-opacity="1" fill-rule="nonzero"/><path fill="#e2869f" d="M 100.417969 103.972656 C 100.84375 103.09375 101.269531 102.222656 101.695312 101.355469 C 101.769531 101.554688 101.808594 101.769531 101.808594 101.984375 C 101.808594 102.78125 101.269531 103.492188 100.417969 103.972656 " fill-opacity="1" fill-rule="nonzero"/><path fill="#e8f8fe" d="M 107.679688 95.464844 C 107.652344 95.4375 107.625 95.410156 107.601562 95.378906 C 107.578125 95.355469 107.558594 95.328125 107.542969 95.300781 C 107.328125 95.023438 107.207031 94.675781 107.207031 94.300781 C 107.207031 94.054688 107.257812 93.820312 107.351562 93.613281 L 108.511719 94.363281 L 107.679688 95.464844 " fill-opacity="1" fill-rule="nonzero"/><path fill="#e8f8fe" d="M 97.757812 109.460938 L 97.746094 109.453125 C 98.128906 108.667969 98.511719 107.886719 98.890625 107.109375 L 107.054688 96.292969 L 107.640625 95.515625 L 107.679688 95.464844 L 108.511719 94.363281 L 107.351562 93.613281 L 105.917969 92.679688 C 105.996094 92.523438 106.070312 92.371094 106.148438 92.214844 L 107.632812 93.183594 L 109.257812 94.234375 L 108.089844 95.777344 L 107.707031 96.285156 L 107.15625 97.015625 L 98.757812 108.136719 L 97.757812 109.460938 " fill-opacity="1" fill-rule="nonzero"/><path fill="#e8f8fe" d="M 119.816406 112.019531 L 118.847656 110.472656 L 115.03125 104.382812 L 113.859375 102.519531 L 109.640625 95.796875 L 109.4375 95.46875 L 109.875 95.191406 L 110.058594 95.492188 L 114.019531 101.804688 L 115.914062 104.820312 L 119.347656 110.300781 L 119.824219 111.054688 L 119.824219 111.089844 L 119.84375 111.089844 L 120.078125 111.460938 L 119.816406 112.019531 " fill-opacity="1" fill-rule="nonzero"/><path fill="#e8f8fe" d="M 120.246094 111.109375 L 119.84375 111.089844 L 119.824219 111.089844 L 119.824219 111.054688 L 119.859375 110.285156 L 120.132812 104.699219 L 120.332031 100.46875 L 120.910156 88.503906 L 120.964844 87.484375 L 120.984375 86.980469 L 121.070312 85.304688 L 121.582031 85.328125 L 121.507812 86.828125 L 121.464844 87.761719 L 121.414062 88.871094 L 120.839844 100.773438 L 120.660156 104.410156 L 120.367188 110.433594 L 120.351562 110.890625 L 120.246094 111.109375 " fill-opacity="1" fill-rule="nonzero"/><path fill="#e8f8fe" d="M 110.054688 94.070312 L 109.730469 93.671875 L 110.210938 93.277344 L 116.355469 88.230469 L 117.875 86.984375 L 119.210938 85.886719 L 120.105469 85.15625 L 119.125 85.113281 L 109.808594 84.695312 C 109.894531 84.527344 109.972656 84.363281 110.054688 84.191406 L 119.269531 84.601562 L 121.472656 84.703125 L 119.464844 86.347656 L 118.722656 86.957031 L 117.507812 87.957031 L 110.460938 93.734375 L 110.054688 94.070312 " fill-opacity="1" fill-rule="nonzero"/><path fill="#e8f8fe" d="M 118.910156 112.203125 L 117.980469 112.128906 L 111.179688 111.585938 L 105.015625 111.089844 L 98.644531 110.574219 L 98.058594 110.53125 L 98.097656 110.015625 L 99.035156 110.089844 L 104.316406 110.515625 L 111.976562 111.132812 L 118.003906 111.617188 L 118.953125 111.691406 L 118.910156 112.203125 " fill-opacity="1" fill-rule="nonzero"/></svg>