<svg xmlns="http://www.w3.org/2000/svg" xmlns:xlink="http://www.w3.org/1999/xlink" width="100" zoomAndPan="magnify" viewBox="0 0 75 74.999997" height="100" preserveAspectRatio="xMidYMid meet" version="1.0"><defs><clipPath id="1fde695695"><path d="M 18 36 L 73.59375 36 L 73.59375 72 L 18 72 Z M 18 36 " clip-rule="nonzero"/></clipPath><clipPath id="e881425a4f"><path d="M 1.59375 6 L 73.59375 6 L 73.59375 72 L 1.59375 72 Z M 1.59375 6 " clip-rule="nonzero"/></clipPath></defs><path fill="#0dc66b" d="M 39.730469 16.3125 C 39.042969 15.558594 39.097656 14.382812 39.855469 13.695312 C 40.613281 13.007812 41.785156 13.0625 42.476562 13.820312 C 42.476562 13.820312 46.0625 17.757812 46.0625 17.757812 C 46.0625 17.757812 57.085938 6.144531 57.863281 6.808594 C 58.644531 7.472656 47.515625 21.765625 47.515625 21.765625 C 47.167969 22.167969 46.664062 22.40625 46.132812 22.414062 C 45.601562 22.421875 45.089844 22.199219 44.730469 21.808594 Z M 39.730469 16.3125 " fill-opacity="1" fill-rule="evenodd"/><path fill="#d71a43" d="M 56.164062 51.210938 L 58.847656 47.070312 L 55.90625 46.28125 Z M 56.164062 51.210938 " fill-opacity="1" fill-rule="evenodd"/><path fill="#243942" d="M 63.390625 16.933594 L 63.800781 15.40625 C 63.851562 15.207031 63.984375 15.039062 64.164062 14.933594 C 64.34375 14.832031 64.554688 14.800781 64.753906 14.855469 L 67 15.457031 C 67.203125 15.511719 67.371094 15.640625 67.476562 15.820312 C 67.578125 16 67.605469 16.214844 67.554688 16.414062 L 67.144531 17.9375 Z M 63.390625 16.933594 " fill-opacity="1" fill-rule="evenodd"/><path fill="#d71a43" d="M 62.566406 30.449219 C 62.949219 30.550781 63.171875 30.941406 63.070312 31.324219 L 58.847656 47.070312 L 55.90625 46.28125 L 60.128906 30.535156 C 60.230469 30.15625 60.621094 29.929688 61 30.03125 Z M 62.566406 30.449219 " fill-opacity="1" fill-rule="evenodd"/><path fill="#d71a43" d="M 28.4375 48.078125 L 30.097656 51.210938 L 29.453125 47.429688 L 29.875 47.160156 C 30.269531 46.90625 30.777344 46.90625 31.171875 47.160156 L 35.335938 49.828125 C 35.679688 50.050781 35.886719 50.433594 35.886719 50.839844 C 35.886719 51.25 35.679688 51.628906 35.335938 51.851562 L 31.171875 54.519531 C 30.777344 54.773438 30.269531 54.773438 29.875 54.519531 L 25.710938 51.851562 C 25.367188 51.628906 25.160156 51.25 25.160156 50.839844 C 25.160156 50.433594 25.367188 50.050781 25.710938 49.828125 Z M 28.4375 48.078125 " fill-opacity="1" fill-rule="evenodd"/><g clip-path="url(#1fde695695)"><path fill="#dedbee" d="M 58.523438 47.574219 L 73.03125 56.878906 L 50.421875 71.378906 L 18.09375 50.640625 L 26.828125 45.039062 L 28.4375 48.078125 L 25.710938 49.828125 C 25.367188 50.050781 25.160156 50.433594 25.160156 50.839844 C 25.160156 51.25 25.367188 51.628906 25.710938 51.851562 L 29.875 54.519531 C 30.269531 54.773438 30.777344 54.773438 31.171875 54.519531 L 35.335938 51.851562 C 35.679688 51.628906 35.886719 51.25 35.886719 50.839844 C 35.886719 50.433594 35.679688 50.050781 35.335938 49.828125 L 31.171875 47.160156 C 30.777344 46.90625 30.269531 46.90625 29.875 47.160156 L 29.453125 47.429688 L 28.824219 43.757812 L 40.703125 36.140625 L 55.996094 45.949219 L 55.90625 46.28125 L 56.164062 51.210938 Z M 44.105469 59.554688 C 44.972656 59 46.378906 59 47.246094 59.554688 C 48.109375 60.109375 48.109375 61.011719 47.246094 61.566406 C 46.378906 62.125 44.972656 62.125 44.105469 61.566406 C 43.238281 61.011719 43.238281 60.109375 44.105469 59.554688 Z M 36.953125 54.964844 C 37.820312 54.410156 39.226562 54.410156 40.089844 54.964844 C 40.957031 55.523438 40.957031 56.425781 40.089844 56.980469 C 39.226562 57.535156 37.820312 57.535156 36.953125 56.980469 C 36.085938 56.425781 36.085938 55.523438 36.953125 54.964844 Z M 51.257812 64.144531 C 52.125 63.585938 53.53125 63.585938 54.398438 64.144531 C 55.261719 64.699219 55.261719 65.601562 54.398438 66.15625 C 53.53125 66.710938 52.125 66.710938 51.257812 66.15625 C 50.394531 65.601562 50.394531 64.699219 51.257812 64.144531 Z M 51.257812 64.144531 " fill-opacity="1" fill-rule="evenodd"/></g><path fill="#d71a43" d="M 44.105469 59.554688 C 44.972656 59 46.378906 59 47.246094 59.554688 C 48.109375 60.109375 48.109375 61.011719 47.246094 61.566406 C 46.378906 62.125 44.972656 62.125 44.105469 61.566406 C 43.238281 61.011719 43.238281 60.109375 44.105469 59.554688 Z M 44.105469 59.554688 " fill-opacity="1" fill-rule="evenodd"/><path fill="#d71a43" d="M 36.953125 54.964844 C 37.820312 54.410156 39.226562 54.410156 40.089844 54.964844 C 40.957031 55.523438 40.957031 56.425781 40.089844 56.980469 C 39.226562 57.535156 37.820312 57.535156 36.953125 56.980469 C 36.085938 56.425781 36.085938 55.523438 36.953125 54.964844 Z M 36.953125 54.964844 " fill-opacity="1" fill-rule="evenodd"/><path fill="#d71a43" d="M 51.257812 64.144531 C 52.125 63.585938 53.53125 63.585938 54.398438 64.144531 C 55.261719 64.699219 55.261719 65.601562 54.398438 66.15625 C 53.53125 66.710938 52.125 66.710938 51.257812 66.15625 C 50.394531 65.601562 50.394531 64.699219 51.257812 64.144531 Z M 51.257812 64.144531 " fill-opacity="1" fill-rule="evenodd"/><path fill="#aab6c1" d="M 30.097656 51.210938 L 27.238281 34.492188 C 31.496094 32.105469 34.03125 28.210938 34.03125 24.050781 C 34.03125 17.019531 26.890625 11.308594 18.09375 11.308594 C 9.296875 11.308594 2.15625 17.019531 2.15625 24.050781 C 2.15625 31.089844 9.296875 36.800781 18.09375 36.800781 C 19.488281 36.800781 20.875 36.652344 22.222656 36.363281 Z M 18.851562 24.667969 C 21.429688 24.667969 23.515625 26.753906 23.515625 29.332031 L 23.515625 32.917969 L 12.667969 32.917969 L 12.667969 29.332031 C 12.667969 26.753906 14.757812 24.667969 17.335938 24.667969 Z M 18.09375 14.597656 C 20.289062 14.597656 22.074219 16.382812 22.074219 18.578125 C 22.074219 20.773438 20.289062 22.558594 18.09375 22.558594 C 15.898438 22.558594 14.113281 20.773438 14.113281 18.578125 C 14.113281 16.382812 15.898438 14.597656 18.09375 14.597656 Z M 18.09375 14.597656 " fill-opacity="1" fill-rule="evenodd"/><path fill="#0078e2" d="M 18.851562 24.667969 C 21.429688 24.667969 23.515625 26.753906 23.515625 29.332031 L 23.515625 32.917969 L 12.667969 32.917969 L 12.667969 29.332031 C 12.667969 26.753906 14.757812 24.667969 17.335938 24.667969 Z M 18.851562 24.667969 " fill-opacity="1" fill-rule="evenodd"/><path fill="#e29e8a" d="M 22.074219 18.578125 C 22.074219 18.839844 22.050781 19.097656 21.996094 19.351562 C 21.945312 19.609375 21.871094 19.859375 21.769531 20.101562 C 21.671875 20.339844 21.546875 20.570312 21.402344 20.789062 C 21.257812 21.003906 21.09375 21.207031 20.910156 21.390625 C 20.722656 21.574219 20.523438 21.742188 20.304688 21.886719 C 20.085938 22.03125 19.859375 22.152344 19.617188 22.253906 C 19.375 22.355469 19.125 22.429688 18.871094 22.480469 C 18.613281 22.53125 18.355469 22.554688 18.09375 22.554688 C 17.832031 22.554688 17.574219 22.53125 17.316406 22.480469 C 17.058594 22.429688 16.8125 22.355469 16.570312 22.253906 C 16.328125 22.152344 16.097656 22.03125 15.882812 21.886719 C 15.664062 21.742188 15.464844 21.574219 15.277344 21.390625 C 15.09375 21.207031 14.929688 21.003906 14.785156 20.789062 C 14.636719 20.570312 14.515625 20.339844 14.414062 20.101562 C 14.316406 19.859375 14.238281 19.609375 14.1875 19.351562 C 14.136719 19.097656 14.113281 18.839844 14.113281 18.578125 C 14.113281 18.316406 14.136719 18.058594 14.1875 17.800781 C 14.238281 17.542969 14.316406 17.296875 14.414062 17.054688 C 14.515625 16.8125 14.636719 16.582031 14.785156 16.367188 C 14.929688 16.148438 15.09375 15.949219 15.277344 15.761719 C 15.464844 15.578125 15.664062 15.414062 15.882812 15.269531 C 16.097656 15.125 16.328125 15 16.570312 14.902344 C 16.8125 14.800781 17.058594 14.726562 17.316406 14.675781 C 17.574219 14.625 17.832031 14.597656 18.09375 14.597656 C 18.355469 14.597656 18.613281 14.625 18.871094 14.675781 C 19.125 14.726562 19.375 14.800781 19.617188 14.902344 C 19.859375 15 20.085938 15.125 20.304688 15.269531 C 20.523438 15.414062 20.722656 15.578125 20.910156 15.761719 C 21.09375 15.949219 21.257812 16.148438 21.402344 16.367188 C 21.546875 16.582031 21.671875 16.8125 21.769531 17.054688 C 21.871094 17.296875 21.945312 17.542969 21.996094 17.800781 C 22.050781 18.058594 22.074219 18.316406 22.074219 18.578125 Z M 22.074219 18.578125 " fill-opacity="1" fill-rule="nonzero"/><path fill="#243942" d="M 67.144531 17.9375 L 63.910156 30.003906 C 63.855469 30.203125 63.726562 30.371094 63.546875 30.476562 C 63.367188 30.582031 63.152344 30.609375 62.953125 30.554688 L 60.707031 29.953125 C 60.507812 29.898438 60.335938 29.769531 60.234375 29.589844 C 60.128906 29.410156 60.101562 29.199219 60.15625 28.996094 L 63.390625 16.933594 Z M 67.144531 17.9375 " fill-opacity="1" fill-rule="evenodd"/><path fill="#fefefe" d="M 41.445312 59.789062 C 36.03125 58.289062 31.050781 56.109375 26.957031 53.976562 L 27.457031 53.636719 L 29.570312 54.996094 C 30.152344 55.367188 30.894531 55.367188 31.476562 54.996094 L 35.636719 52.324219 C 36.144531 52 36.449219 51.441406 36.449219 50.839844 C 36.449219 50.242188 36.144531 49.679688 35.636719 49.359375 L 31.476562 46.6875 C 30.992188 46.375 30.394531 46.324219 29.871094 46.53125 L 29.441406 44.03125 L 40.703125 36.808594 L 55.347656 46.203125 C 55.34375 46.238281 55.34375 46.277344 55.34375 46.3125 L 55.601562 51.238281 C 55.605469 51.289062 55.613281 51.335938 55.625 51.378906 L 52.085938 52.5 Z M 55.78125 51.625 C 55.835938 51.671875 55.902344 51.710938 55.972656 51.738281 C 55.988281 51.742188 56.003906 51.75 56.015625 51.753906 C 56.253906 51.816406 56.503906 51.71875 56.632812 51.515625 L 58.691406 48.347656 L 71.988281 56.878906 L 69.058594 58.757812 C 65.867188 60.191406 62.589844 61.042969 59.308594 61.441406 L 67.371094 56.269531 C 67.632812 56.101562 67.707031 55.753906 67.539062 55.492188 C 67.371094 55.230469 67.023438 55.15625 66.765625 55.320312 L 56.894531 61.652344 C 54 61.816406 51.117188 61.648438 48.296875 61.242188 C 48.40625 61.019531 48.457031 60.789062 48.457031 60.5625 C 48.457031 60.480469 48.449219 60.398438 48.4375 60.316406 C 48.359375 59.867188 48.078125 59.421875 47.550781 59.082031 C 47.351562 58.957031 47.132812 58.851562 46.898438 58.777344 L 53.5 54.101562 Z M 36.070312 47.949219 L 45.238281 42.070312 C 45.5 41.902344 45.574219 41.554688 45.40625 41.292969 C 45.238281 41.03125 44.890625 40.953125 44.628906 41.125 L 35.464844 47.003906 C 35.203125 47.171875 35.125 47.519531 35.292969 47.78125 C 35.460938 48.039062 35.808594 48.117188 36.070312 47.949219 Z M 42.191406 54.507812 L 53.410156 47.3125 C 53.671875 47.144531 53.746094 46.796875 53.578125 46.535156 C 53.410156 46.273438 53.0625 46.199219 52.800781 46.363281 L 41.582031 53.5625 C 41.320312 53.730469 41.246094 54.078125 41.414062 54.339844 C 41.582031 54.597656 41.929688 54.675781 42.191406 54.507812 Z M 36.648438 54.492188 C 36.023438 54.894531 35.742188 55.445312 35.742188 55.972656 C 35.742188 56.5 36.023438 57.050781 36.648438 57.453125 C 37.683594 58.113281 39.363281 58.113281 40.394531 57.453125 C 41.023438 57.050781 41.304688 56.5 41.304688 55.972656 C 41.304688 55.445312 41.023438 54.894531 40.394531 54.492188 C 39.363281 53.828125 37.683594 53.828125 36.648438 54.492188 Z M 59.78125 50.84375 L 48.566406 58.039062 C 48.304688 58.207031 48.226562 58.554688 48.394531 58.816406 C 48.5625 59.078125 48.910156 59.152344 49.171875 58.988281 L 60.390625 51.789062 C 60.652344 51.621094 60.726562 51.273438 60.558594 51.011719 C 60.390625 50.753906 60.042969 50.675781 59.78125 50.84375 Z M 24.660156 52.738281 C 22.917969 51.765625 21.382812 50.832031 20.109375 50.015625 L 26.617188 45.84375 L 27.699219 47.886719 L 25.40625 49.359375 C 24.902344 49.679688 24.597656 50.242188 24.597656 50.839844 C 24.597656 51.441406 24.902344 52 25.40625 52.324219 L 25.546875 52.414062 Z M 24.660156 52.738281 " fill-opacity="1" fill-rule="evenodd"/><path fill="#fd4755" d="M 46.351562 61.347656 C 45.886719 61.304688 45.4375 61.171875 45.082031 60.945312 C 44.679688 60.683594 44.460938 60.351562 44.433594 60.011719 C 45.132812 59.578125 46.25 59.585938 46.941406 60.027344 C 47.179688 60.179688 47.332031 60.359375 47.332031 60.5625 C 47.332031 60.761719 47.179688 60.941406 46.941406 61.09375 C 46.765625 61.207031 46.566406 61.289062 46.351562 61.347656 Z M 46.351562 61.347656 " fill-opacity="1" fill-rule="evenodd"/><path fill="#fd4755" d="M 39.613281 56.605469 C 39.007812 56.625 38.386719 56.488281 37.925781 56.191406 C 37.582031 55.96875 37.375 55.695312 37.304688 55.410156 C 38.007812 54.992188 39.105469 55 39.789062 55.4375 C 40.027344 55.59375 40.179688 55.773438 40.179688 55.972656 C 40.179688 56.175781 40.027344 56.351562 39.789062 56.503906 C 39.730469 56.542969 39.671875 56.574219 39.613281 56.605469 Z M 39.613281 56.605469 " fill-opacity="1" fill-rule="evenodd"/><path fill="#fd4755" d="M 53.617188 65.902344 C 53.074219 65.890625 52.535156 65.753906 52.121094 65.488281 C 51.761719 65.257812 51.550781 64.96875 51.488281 64.667969 C 51.511719 64.648438 51.535156 64.632812 51.5625 64.617188 C 52.261719 64.167969 53.394531 64.167969 54.09375 64.617188 C 54.332031 64.769531 54.484375 64.949219 54.484375 65.152344 C 54.484375 65.351562 54.332031 65.53125 54.09375 65.683594 C 53.949219 65.777344 53.789062 65.847656 53.617188 65.902344 Z M 53.617188 65.902344 " fill-opacity="1" fill-rule="evenodd"/><path fill="#fd4755" d="M 30.550781 54.148438 C 30.539062 53.59375 30.789062 53 30.789062 53 C 30.789062 53 32.839844 51.601562 33.636719 51.054688 C 33.707031 51.007812 33.746094 50.925781 33.746094 50.84375 C 33.746094 50.757812 33.703125 50.679688 33.632812 50.636719 C 32.785156 50.085938 30.523438 48.617188 30.523438 48.617188 L 30.523438 47.53125 C 30.644531 47.53125 30.761719 47.566406 30.867188 47.632812 L 35.03125 50.304688 C 35.214844 50.421875 35.324219 50.621094 35.324219 50.839844 C 35.324219 51.058594 35.214844 51.261719 35.03125 51.378906 L 30.867188 54.046875 C 30.769531 54.113281 30.660156 54.144531 30.550781 54.148438 Z M 30.550781 54.148438 " fill-opacity="1" fill-rule="evenodd"/><path fill="#fd4755" d="M 56.613281 49.007812 L 57.226562 47.21875 L 57.957031 47.414062 L 56.632812 49.449219 Z M 56.613281 49.007812 " fill-opacity="1" fill-rule="evenodd"/><path fill="#fd4755" d="M 57.570312 46.144531 L 61.742188 30.8125 L 62.421875 30.992188 C 62.5 31.015625 62.550781 31.097656 62.527344 31.179688 L 58.453125 46.382812 Z M 57.570312 46.144531 " fill-opacity="1" fill-rule="evenodd"/><path fill="#3e5560" d="M 62.039062 29.726562 L 65.230469 18.007812 L 66.457031 18.335938 L 63.367188 29.859375 C 63.351562 29.914062 63.316406 29.960938 63.265625 29.988281 C 63.214844 30.019531 63.15625 30.027344 63.097656 30.011719 Z M 62.039062 29.726562 " fill-opacity="1" fill-rule="evenodd"/><path fill="#3e5560" d="M 65.523438 16.921875 L 65.851562 15.730469 L 66.855469 16 C 66.910156 16.015625 66.960938 16.050781 66.988281 16.101562 C 67.015625 16.152344 67.023438 16.210938 67.011719 16.269531 L 66.746094 17.25 Z M 65.523438 16.921875 " fill-opacity="1" fill-rule="evenodd"/><path fill="#4def9e" d="M 55.535156 9.976562 C 52.078125 13.019531 46.0625 19.355469 46.0625 19.355469 C 46.0625 19.355469 42.476562 15.417969 42.476562 15.417969 C 41.785156 14.660156 40.613281 14.605469 39.855469 15.292969 C 39.847656 15.300781 39.839844 15.308594 39.835938 15.3125 C 39.753906 14.886719 39.886719 14.425781 40.234375 14.113281 C 40.761719 13.632812 41.578125 13.671875 42.058594 14.199219 L 45.542969 18.027344 L 45.644531 18.136719 C 45.847656 18.359375 46.0625 18.320312 46.0625 18.320312 C 46.214844 18.320312 46.363281 18.257812 46.46875 18.144531 C 46.46875 18.144531 53.488281 10.746094 56.695312 8.128906 C 56.714844 8.109375 56.738281 8.09375 56.757812 8.074219 C 56.710938 8.15625 56.660156 8.238281 56.605469 8.328125 C 56.3125 8.808594 55.945312 9.367188 55.535156 9.976562 Z M 55.535156 9.976562 " fill-opacity="1" fill-rule="evenodd"/><path fill="#d9dfe3" d="M 30.175781 31.582031 C 30.722656 30.289062 31.011719 28.914062 31.011719 27.511719 C 31.011719 22.402344 27.242188 17.988281 21.804688 15.957031 C 20.980469 14.796875 19.625 14.035156 18.09375 14.035156 C 17.175781 14.035156 16.324219 14.308594 15.609375 14.773438 C 15.429688 14.769531 15.253906 14.765625 15.074219 14.765625 C 11.269531 14.765625 7.777344 15.835938 5.035156 17.617188 C 7.753906 14.160156 12.597656 11.871094 18.09375 11.871094 C 26.550781 11.871094 33.46875 17.292969 33.46875 24.054688 C 33.46875 26.824219 32.277344 29.464844 30.175781 31.582031 Z M 30.175781 31.582031 " fill-opacity="1" fill-rule="evenodd"/><path fill="#d9dfe3" d="M 28.914062 47.613281 L 24.191406 35.574219 C 24.550781 34.5625 25.902344 34.4375 26.679688 34.453125 C 26.675781 34.496094 26.675781 34.542969 26.683594 34.585938 L 28.269531 43.84375 C 28.269531 43.851562 28.269531 43.855469 28.273438 43.863281 L 28.894531 47.515625 C 28.898438 47.523438 28.898438 47.527344 28.902344 47.535156 Z M 28.914062 47.613281 " fill-opacity="1" fill-rule="evenodd"/><path fill="#01d0fb" d="M 21.785156 32.355469 L 21.785156 31.0625 C 21.785156 28.484375 19.695312 26.398438 17.121094 26.398438 L 15.601562 26.398438 C 15.144531 26.398438 14.703125 26.464844 14.285156 26.585938 C 15.035156 25.753906 16.125 25.230469 17.335938 25.230469 L 18.851562 25.230469 C 21.117188 25.230469 22.953125 27.066406 22.953125 29.332031 L 22.953125 32.355469 Z M 21.785156 32.355469 " fill-opacity="1" fill-rule="evenodd"/><path fill="#ffcebf" d="M 20.507812 20.992188 C 20.199219 21.074219 19.871094 21.113281 19.539062 21.113281 C 17.339844 21.113281 15.558594 19.332031 15.558594 17.132812 C 15.558594 16.800781 15.597656 16.472656 15.675781 16.164062 C 16.296875 15.542969 17.148438 15.160156 18.09375 15.160156 C 19.980469 15.160156 21.511719 16.691406 21.511719 18.578125 C 21.511719 19.519531 21.128906 20.375 20.507812 20.992188 Z M 20.507812 20.992188 " fill-opacity="1" fill-rule="evenodd"/><g clip-path="url(#e881425a4f)"><path fill="#003586" d="M 26.089844 44.847656 C 24.066406 41.035156 21.921875 36.996094 21.921875 36.996094 C 20.671875 37.238281 19.382812 37.359375 18.09375 37.359375 C 8.957031 37.359375 1.59375 31.359375 1.59375 24.054688 C 1.59375 16.746094 8.957031 10.746094 18.09375 10.746094 C 27.230469 10.746094 34.59375 16.746094 34.59375 24.054688 C 34.59375 28.285156 32.101562 32.273438 27.859375 34.78125 L 29.238281 42.824219 L 40.402344 35.664062 C 40.585938 35.546875 40.824219 35.546875 41.007812 35.664062 L 55.652344 45.0625 L 59.585938 30.390625 C 59.628906 30.226562 59.703125 30.078125 59.796875 29.953125 C 59.78125 29.925781 59.765625 29.898438 59.75 29.871094 C 59.570312 29.5625 59.523438 29.195312 59.613281 28.851562 L 63.253906 15.261719 C 63.347656 14.917969 63.574219 14.625 63.882812 14.445312 C 64.191406 14.269531 64.554688 14.222656 64.902344 14.3125 L 67.148438 14.914062 C 67.492188 15.007812 67.785156 15.230469 67.960938 15.539062 C 68.140625 15.847656 68.191406 16.214844 68.097656 16.558594 L 67.835938 17.539062 L 67.839844 17.542969 C 68.316406 17.671875 68.726562 17.984375 68.972656 18.414062 C 69.222656 18.84375 69.289062 19.355469 69.160156 19.832031 L 66.617188 29.332031 C 66.535156 29.632812 66.226562 29.808594 65.925781 29.730469 C 65.625 29.648438 65.449219 29.339844 65.53125 29.039062 L 68.074219 19.542969 C 68.125 19.351562 68.101562 19.148438 68 18.976562 C 67.902344 18.804688 67.738281 18.679688 67.546875 18.628906 L 67.542969 18.625 L 64.453125 30.148438 C 64.363281 30.492188 64.136719 30.785156 63.828125 30.964844 C 63.773438 30.996094 63.714844 31.023438 63.65625 31.046875 C 63.664062 31.183594 63.652344 31.328125 63.617188 31.46875 L 59.394531 47.214844 C 59.378906 47.273438 59.355469 47.328125 59.324219 47.375 L 59.304688 47.402344 L 73.335938 56.40625 C 73.496094 56.507812 73.59375 56.6875 73.59375 56.878906 C 73.59375 57.070312 73.496094 57.246094 73.335938 57.351562 L 50.726562 71.855469 C 50.542969 71.972656 50.304688 71.972656 50.121094 71.855469 L 17.789062 51.113281 C 17.628906 51.011719 17.53125 50.832031 17.53125 50.640625 C 17.53125 50.449219 17.628906 50.269531 17.789062 50.167969 Z M 28.269531 43.84375 L 26.6875 34.585938 C 26.644531 34.351562 26.757812 34.117188 26.964844 34 C 31.027344 31.722656 33.46875 28.019531 33.46875 24.054688 C 33.46875 17.292969 26.550781 11.871094 18.09375 11.871094 C 9.636719 11.871094 2.71875 17.292969 2.71875 24.054688 C 2.71875 30.816406 9.636719 36.234375 18.09375 36.234375 C 19.449219 36.234375 20.796875 36.09375 22.105469 35.8125 C 22.351562 35.761719 22.601562 35.878906 22.722656 36.097656 L 27.320312 44.769531 C 27.324219 44.773438 27.324219 44.777344 27.324219 44.78125 L 28.933594 47.8125 C 28.9375 47.816406 28.9375 47.816406 28.941406 47.820312 L 28.953125 47.851562 L 28.898438 47.535156 C 28.898438 47.527344 28.898438 47.519531 28.898438 47.515625 L 28.273438 43.863281 C 28.269531 43.855469 28.269531 43.851562 28.269531 43.84375 Z M 55.347656 46.203125 L 40.703125 36.808594 L 29.441406 44.03125 L 29.871094 46.53125 C 30.394531 46.324219 30.992188 46.375 31.476562 46.6875 L 35.640625 49.355469 C 36.144531 49.679688 36.449219 50.238281 36.449219 50.839844 C 36.449219 51.441406 36.144531 52 35.640625 52.324219 L 31.476562 54.996094 C 30.894531 55.367188 30.152344 55.367188 29.570312 54.992188 L 25.410156 52.324219 C 24.902344 52 24.597656 51.441406 24.597656 50.839844 C 24.597656 50.238281 24.902344 49.679688 25.40625 49.355469 L 27.699219 47.886719 C 27.363281 47.246094 26.996094 46.554688 26.617188 45.84375 C 24.847656 46.976562 19.132812 50.640625 19.132812 50.640625 L 50.421875 70.714844 L 71.988281 56.878906 L 58.691406 48.347656 L 56.636719 51.515625 C 56.503906 51.71875 56.253906 51.816406 56.019531 51.753906 C 55.785156 51.6875 55.613281 51.480469 55.601562 51.238281 L 55.34375 46.3125 C 55.34375 46.273438 55.347656 46.238281 55.347656 46.203125 Z M 60.855469 30.574219 C 60.773438 30.554688 60.691406 30.601562 60.671875 30.679688 L 56.597656 45.882812 L 58.453125 46.382812 L 62.527344 31.179688 C 62.550781 31.097656 62.503906 31.015625 62.421875 30.992188 Z M 63.789062 17.621094 L 60.699219 29.144531 C 60.683594 29.199219 60.691406 29.257812 60.722656 29.308594 C 60.753906 29.359375 60.796875 29.394531 60.855469 29.410156 L 63.101562 30.011719 C 63.15625 30.027344 63.214844 30.019531 63.265625 29.988281 C 63.316406 29.960938 63.351562 29.914062 63.367188 29.855469 L 66.457031 18.335938 Z M 66.746094 17.25 L 67.011719 16.265625 C 67.027344 16.210938 67.019531 16.152344 66.988281 16.101562 C 66.957031 16.050781 66.914062 16.015625 66.855469 16 L 64.609375 15.398438 C 64.554688 15.382812 64.496094 15.390625 64.445312 15.421875 C 64.394531 15.449219 64.355469 15.496094 64.34375 15.550781 L 64.078125 16.535156 Z M 30.070312 47.703125 L 30.652344 51.113281 C 30.699219 51.386719 30.542969 51.652344 30.28125 51.742188 C 30.019531 51.828125 29.734375 51.714844 29.601562 51.472656 C 29.601562 51.472656 29.042969 50.417969 28.226562 48.882812 L 26.015625 50.300781 C 25.832031 50.417969 25.722656 50.621094 25.722656 50.839844 C 25.722656 51.054688 25.832031 51.257812 26.015625 51.378906 L 30.179688 54.046875 C 30.390625 54.183594 30.65625 54.183594 30.867188 54.046875 L 35.03125 51.375 C 35.214844 51.257812 35.324219 51.058594 35.324219 50.839844 C 35.324219 50.621094 35.214844 50.417969 35.03125 50.300781 L 30.867188 47.632812 C 30.660156 47.496094 30.390625 47.496094 30.179688 47.632812 Z M 56.152344 63.464844 C 55.890625 63.632812 55.546875 63.554688 55.375 63.292969 C 55.210938 63.035156 55.285156 62.683594 55.546875 62.515625 L 66.765625 55.320312 C 67.023438 55.152344 67.375 55.230469 67.539062 55.492188 C 67.707031 55.753906 67.632812 56.097656 67.371094 56.265625 Z M 42.191406 54.507812 C 41.929688 54.675781 41.582031 54.597656 41.414062 54.335938 C 41.246094 54.078125 41.324219 53.726562 41.582031 53.5625 L 52.800781 46.363281 C 53.0625 46.195312 53.410156 46.273438 53.578125 46.535156 C 53.746094 46.796875 53.671875 47.144531 53.410156 47.3125 Z M 50.957031 63.667969 C 51.988281 63.007812 53.667969 63.007812 54.703125 63.671875 C 55.328125 64.074219 55.609375 64.621094 55.609375 65.148438 C 55.609375 65.675781 55.332031 66.226562 54.703125 66.628906 C 53.667969 67.292969 51.988281 67.292969 50.957031 66.628906 C 50.328125 66.226562 50.046875 65.679688 50.046875 65.152344 C 50.046875 64.621094 50.328125 64.074219 50.957031 63.667969 Z M 51.5625 64.617188 C 51.324219 64.769531 51.171875 64.949219 51.171875 65.152344 C 51.171875 65.351562 51.324219 65.53125 51.566406 65.683594 C 52.261719 66.132812 53.394531 66.128906 54.09375 65.683594 C 54.332031 65.53125 54.484375 65.351562 54.484375 65.148438 C 54.484375 64.949219 54.332031 64.769531 54.09375 64.617188 C 53.394531 64.167969 52.261719 64.167969 51.5625 64.617188 Z M 36.070312 47.949219 C 35.808594 48.117188 35.460938 48.039062 35.292969 47.78125 C 35.125 47.519531 35.203125 47.167969 35.464844 47.003906 L 44.632812 41.121094 C 44.890625 40.953125 45.238281 41.03125 45.40625 41.292969 C 45.574219 41.554688 45.5 41.902344 45.238281 42.070312 Z M 49.171875 58.984375 C 48.910156 59.152344 48.5625 59.078125 48.394531 58.816406 C 48.226562 58.554688 48.304688 58.207031 48.566406 58.039062 L 59.785156 50.84375 C 60.042969 50.675781 60.390625 50.75 60.558594 51.011719 C 60.726562 51.273438 60.652344 51.621094 60.390625 51.789062 Z M 36.648438 54.492188 C 37.683594 53.828125 39.363281 53.828125 40.394531 54.492188 C 41.023438 54.894531 41.304688 55.445312 41.304688 55.972656 C 41.304688 56.5 41.023438 57.050781 40.394531 57.453125 C 39.363281 58.117188 37.683594 58.113281 36.652344 57.453125 C 36.023438 57.046875 35.742188 56.5 35.742188 55.972656 C 35.742188 55.445312 36.023438 54.894531 36.648438 54.492188 Z M 37.257812 55.4375 C 37.019531 55.589844 36.867188 55.769531 36.867188 55.972656 C 36.867188 56.171875 37.019531 56.351562 37.257812 56.503906 C 37.957031 56.953125 39.089844 56.953125 39.789062 56.503906 C 40.027344 56.351562 40.179688 56.171875 40.179688 55.972656 C 40.179688 55.773438 40.027344 55.589844 39.789062 55.4375 C 39.089844 54.992188 37.953125 54.992188 37.257812 55.4375 Z M 43.804688 59.082031 C 44.835938 58.417969 46.515625 58.417969 47.550781 59.082031 C 48.175781 59.484375 48.457031 60.03125 48.457031 60.558594 C 48.457031 61.089844 48.175781 61.636719 47.550781 62.042969 C 46.515625 62.703125 44.835938 62.703125 43.804688 62.039062 C 43.175781 61.636719 42.894531 61.089844 42.894531 60.5625 C 42.894531 60.03125 43.175781 59.484375 43.804688 59.082031 Z M 44.410156 60.027344 C 44.171875 60.179688 44.019531 60.359375 44.019531 60.558594 C 44.019531 60.761719 44.171875 60.941406 44.410156 61.09375 C 45.109375 61.542969 46.242188 61.542969 46.941406 61.09375 C 47.179688 60.941406 47.332031 60.761719 47.332031 60.558594 C 47.332031 60.359375 47.179688 60.179688 46.941406 60.027344 C 46.242188 59.578125 45.109375 59.578125 44.410156 60.027344 Z M 56.636719 49.449219 L 57.957031 47.414062 L 56.507812 47.027344 Z M 18.09375 14.035156 C 20.601562 14.035156 22.636719 16.070312 22.636719 18.578125 C 22.636719 21.082031 20.601562 23.117188 18.09375 23.117188 C 15.585938 23.117188 13.550781 21.082031 13.550781 18.578125 C 13.550781 16.070312 15.585938 14.035156 18.09375 14.035156 Z M 18.09375 15.160156 C 16.207031 15.160156 14.675781 16.691406 14.675781 18.578125 C 14.675781 20.460938 16.207031 21.992188 18.09375 21.992188 C 19.980469 21.992188 21.511719 20.460938 21.511719 18.578125 C 21.511719 16.691406 19.980469 15.160156 18.09375 15.160156 Z M 18.851562 24.105469 C 21.738281 24.105469 24.082031 26.445312 24.082031 29.332031 L 24.082031 32.917969 C 24.082031 33.230469 23.828125 33.480469 23.519531 33.480469 L 12.667969 33.480469 C 12.359375 33.480469 12.105469 33.230469 12.105469 32.917969 L 12.105469 29.332031 C 12.105469 26.445312 14.449219 24.105469 17.335938 24.101562 Z M 18.851562 25.226562 L 17.335938 25.226562 C 15.070312 25.230469 13.230469 27.0625 13.230469 29.332031 L 13.230469 32.355469 L 22.957031 32.355469 L 22.957031 29.332031 C 22.957031 27.066406 21.121094 25.226562 18.851562 25.226562 Z M 46.070312 16.933594 C 47.636719 15.296875 53.21875 9.515625 55.984375 7.257812 C 56.734375 6.640625 57.332031 6.285156 57.625 6.230469 C 57.898438 6.183594 58.09375 6.265625 58.230469 6.382812 C 58.367188 6.5 58.488281 6.695312 58.460938 6.996094 C 58.4375 7.308594 58.125 8 57.566406 8.914062 C 55.109375 12.925781 47.957031 22.109375 47.957031 22.109375 C 47.953125 22.117188 47.945312 22.125 47.941406 22.128906 C 47.492188 22.65625 46.835938 22.964844 46.140625 22.976562 C 45.449219 22.984375 44.78125 22.699219 44.316406 22.1875 L 39.316406 16.691406 C 38.417969 15.707031 38.492188 14.175781 39.476562 13.28125 C 40.464844 12.382812 41.992188 12.453125 42.890625 13.441406 Z M 56.757812 8.074219 C 56.738281 8.089844 56.714844 8.109375 56.695312 8.128906 C 53.488281 10.746094 46.46875 18.144531 46.46875 18.144531 C 46.363281 18.257812 46.214844 18.320312 46.0625 18.320312 C 46.0625 18.320312 45.847656 18.359375 45.644531 18.132812 L 45.542969 18.027344 L 42.058594 14.195312 C 41.582031 13.667969 40.761719 13.632812 40.234375 14.109375 C 39.707031 14.589844 39.667969 15.40625 40.148438 15.9375 L 45.148438 21.429688 C 45.398438 21.703125 45.753906 21.859375 46.125 21.851562 C 46.492188 21.84375 46.839844 21.683594 47.078125 21.40625 C 47.359375 21.050781 54.214844 12.226562 56.609375 8.324219 C 56.660156 8.238281 56.710938 8.15625 56.757812 8.074219 Z M 56.757812 8.074219 " fill-opacity="1" fill-rule="evenodd"/></g></svg>