<svg xmlns="http://www.w3.org/2000/svg" xmlns:xlink="http://www.w3.org/1999/xlink" width="100" zoomAndPan="magnify" viewBox="0 0 75 74.999997" height="100" preserveAspectRatio="xMidYMid meet" version="1.0"><defs><clipPath id="ff7023b341"><path d="M 25 2.496094 L 50 2.496094 L 50 28 L 25 28 Z M 25 2.496094 " clip-rule="nonzero"/></clipPath><clipPath id="5e80dfd785"><path d="M 25 2.496094 L 48 2.496094 L 48 26 L 25 26 Z M 25 2.496094 " clip-rule="nonzero"/></clipPath><clipPath id="0f405154c8"><path d="M 26 49 L 49 49 L 49 72.246094 L 26 72.246094 Z M 26 49 " clip-rule="nonzero"/></clipPath><clipPath id="6f701ab8c3"><path d="M 2.660156 34 L 22 34 L 22 52 L 2.660156 52 Z M 2.660156 34 " clip-rule="nonzero"/></clipPath><clipPath id="266ea0c12b"><path d="M 2.660156 34 L 19 34 L 19 52 L 2.660156 52 Z M 2.660156 34 " clip-rule="nonzero"/></clipPath><clipPath id="a8683afa17"><path d="M 53 34 L 72.410156 34 L 72.410156 52 L 53 52 Z M 53 34 " clip-rule="nonzero"/></clipPath></defs><path fill="#19cfba" d="M 45.039062 57.816406 L 61.765625 57.871094 L 61.765625 46.554688 L 63.957031 46.554688 L 63.957031 58.960938 L 63.949219 58.960938 C 63.949219 59.5625 63.460938 60.046875 62.859375 60.046875 L 45.039062 59.988281 Z M 29.792969 17.152344 L 13.253906 17.097656 L 13.253906 28.476562 L 11.0625 28.476562 L 11.0625 16.011719 L 11.066406 16.011719 C 11.066406 15.410156 11.554688 14.925781 12.160156 14.925781 L 29.792969 14.984375 Z M 29.792969 17.152344 " fill-opacity="1" fill-rule="evenodd"/><g clip-path="url(#ff7023b341)"><path fill="#ffbf31" d="M 28.167969 2.496094 L 46.914062 2.496094 C 48.296875 2.496094 49.429688 3.625 49.429688 5 L 49.429688 24.652344 C 49.429688 26.03125 48.296875 27.15625 46.914062 27.15625 L 28.167969 27.15625 C 26.785156 27.15625 25.65625 26.03125 25.65625 24.652344 L 25.65625 5 C 25.65625 3.625 26.785156 2.496094 28.167969 2.496094 Z M 28.167969 2.496094 " fill-opacity="1" fill-rule="evenodd"/></g><g clip-path="url(#5e80dfd785)"><path fill="#ffe177" d="M 28.167969 2.496094 L 46.914062 2.496094 C 47.078125 2.496094 47.242188 2.515625 47.398438 2.546875 C 47.492188 2.808594 47.546875 3.09375 47.546875 3.386719 L 47.546875 23.039062 C 47.546875 24.417969 46.414062 25.542969 45.03125 25.542969 L 26.285156 25.542969 C 26.121094 25.542969 25.957031 25.527344 25.800781 25.496094 C 25.707031 25.234375 25.65625 24.949219 25.65625 24.652344 L 25.65625 5 C 25.65625 3.625 26.785156 2.496094 28.167969 2.496094 Z M 28.167969 2.496094 " fill-opacity="1" fill-rule="evenodd"/></g><g clip-path="url(#0f405154c8)"><path fill="#e33f65" d="M 29.03125 49.863281 L 46.050781 49.863281 C 47.304688 49.863281 48.332031 50.886719 48.332031 52.136719 L 48.332031 69.976562 C 48.332031 71.226562 47.304688 72.246094 46.050781 72.246094 L 29.03125 72.246094 C 27.777344 72.246094 26.75 71.226562 26.75 69.976562 L 26.75 52.136719 C 26.75 50.886719 27.777344 49.863281 29.03125 49.863281 Z M 29.03125 49.863281 " fill-opacity="1" fill-rule="evenodd"/></g><path fill="#fa6e85" d="M 29.03125 49.863281 L 46.050781 49.863281 C 46.152344 49.863281 46.257812 49.871094 46.355469 49.882812 C 46.417969 50.085938 46.449219 50.300781 46.449219 50.523438 L 46.449219 68.363281 C 46.449219 69.613281 45.421875 70.636719 44.167969 70.636719 L 27.148438 70.636719 C 27.046875 70.636719 26.945312 70.628906 26.84375 70.613281 C 26.78125 70.410156 26.75 70.195312 26.75 69.976562 L 26.75 52.136719 C 26.75 50.886719 27.777344 49.863281 29.03125 49.863281 Z M 29.03125 49.863281 " fill-opacity="1" fill-rule="evenodd"/><path fill="#d1991f" d="M 30.703125 8.527344 C 30.371094 8.027344 30.511719 7.355469 31.015625 7.023438 C 31.519531 6.695312 32.195312 6.835938 32.523438 7.335938 L 33.222656 8.390625 L 35.339844 6.203125 C 35.757812 5.769531 36.449219 5.757812 36.882812 6.175781 C 37.320312 6.589844 37.332031 7.277344 36.914062 7.710938 L 33.847656 10.878906 L 33.84375 10.875 C 33.363281 11.375 32.535156 11.304688 32.148438 10.71875 Z M 38.839844 10.671875 C 38.234375 10.671875 37.742188 10.183594 37.742188 9.582031 C 37.742188 8.980469 38.234375 8.492188 38.839844 8.492188 L 43.46875 8.492188 C 44.074219 8.492188 44.5625 8.980469 44.5625 9.582031 C 44.5625 10.183594 44.074219 10.671875 43.46875 10.671875 Z M 30.703125 21.101562 C 30.371094 20.601562 30.511719 19.925781 31.015625 19.597656 C 31.519531 19.269531 32.195312 19.40625 32.523438 19.910156 L 33.222656 20.964844 L 35.339844 18.777344 C 35.757812 18.34375 36.449219 18.332031 36.882812 18.746094 C 37.320312 19.164062 37.332031 19.851562 36.914062 20.285156 L 33.847656 23.449219 L 33.84375 23.449219 C 33.363281 23.945312 32.535156 23.878906 32.148438 23.292969 Z M 38.839844 23.246094 C 38.234375 23.246094 37.742188 22.757812 37.742188 22.15625 C 37.742188 21.554688 38.234375 21.066406 38.839844 21.066406 L 43.46875 21.066406 C 44.074219 21.066406 44.5625 21.554688 44.5625 22.15625 C 44.5625 22.757812 44.074219 23.246094 43.46875 23.246094 Z M 38.839844 16.960938 C 38.234375 16.960938 37.742188 16.472656 37.742188 15.871094 C 37.742188 15.269531 38.234375 14.78125 38.839844 14.78125 L 43.46875 14.78125 C 44.074219 14.78125 44.5625 15.269531 44.5625 15.871094 C 44.5625 16.472656 44.074219 16.960938 43.46875 16.960938 Z M 33.371094 12.011719 C 31.675781 12.011719 30.300781 13.378906 30.300781 15.066406 C 30.300781 17.78125 33.613281 19.152344 35.542969 17.230469 C 37.472656 15.308594 36.097656 12.011719 33.371094 12.011719 Z M 33.996094 14.445312 C 34.339844 14.789062 34.339844 15.347656 33.996094 15.6875 C 33.441406 16.238281 32.488281 15.847656 32.488281 15.066406 C 32.488281 14.289062 33.441406 13.894531 33.996094 14.445312 Z M 33.996094 14.445312 " fill-opacity="1" fill-rule="evenodd"/><path fill="#bd2d43" d="M 38.921875 63.1875 C 38.316406 63.1875 37.828125 62.699219 37.828125 62.097656 C 37.828125 61.496094 38.316406 61.007812 38.921875 61.007812 L 43.550781 61.007812 C 44.15625 61.007812 44.648438 61.496094 44.648438 62.097656 C 44.648438 62.699219 44.15625 63.1875 43.550781 63.1875 Z M 38.921875 56.902344 C 38.316406 56.902344 37.828125 56.414062 37.828125 55.8125 C 37.828125 55.210938 38.316406 54.722656 38.921875 54.722656 L 43.550781 54.722656 C 44.15625 54.722656 44.648438 55.210938 44.648438 55.8125 C 44.648438 56.414062 44.15625 56.902344 43.550781 56.902344 Z M 30.789062 67.328125 C 30.457031 66.828125 30.597656 66.15625 31.097656 65.828125 C 31.601562 65.496094 32.277344 65.636719 32.609375 66.136719 L 33.304688 67.191406 L 35.425781 65.003906 C 35.84375 64.574219 36.535156 64.558594 36.96875 64.976562 C 37.402344 65.390625 37.417969 66.078125 36.996094 66.511719 L 33.929688 69.679688 C 33.449219 70.175781 32.621094 70.105469 32.234375 69.523438 Z M 38.921875 69.476562 C 38.316406 69.476562 37.828125 68.988281 37.828125 68.382812 C 37.828125 67.78125 38.316406 67.292969 38.921875 67.292969 L 43.550781 67.292969 C 44.15625 67.292969 44.648438 67.78125 44.648438 68.382812 C 44.648438 68.988281 44.15625 69.476562 43.550781 69.476562 Z M 30.789062 61.042969 C 30.457031 60.542969 30.597656 59.867188 31.097656 59.539062 C 31.601562 59.210938 32.277344 59.351562 32.609375 59.851562 L 33.304688 60.90625 L 35.425781 58.71875 C 35.84375 58.285156 36.535156 58.273438 36.96875 58.6875 C 37.402344 59.105469 37.417969 59.792969 36.996094 60.226562 L 33.929688 63.390625 C 33.449219 63.886719 32.621094 63.820312 32.234375 63.234375 Z M 33.507812 52.015625 C 31.8125 52.015625 30.433594 53.382812 30.433594 55.074219 C 30.433594 57.789062 33.75 59.15625 35.679688 57.234375 C 37.609375 55.3125 36.234375 52.015625 33.507812 52.015625 Z M 34.128906 54.453125 C 34.476562 54.792969 34.476562 55.351562 34.128906 55.695312 C 33.578125 56.246094 32.625 55.855469 32.625 55.074219 C 32.625 54.292969 33.578125 53.902344 34.128906 54.453125 Z M 34.128906 54.453125 " fill-opacity="1" fill-rule="evenodd"/><g clip-path="url(#6f701ab8c3)"><path fill="#00bfa9" d="M 12.222656 34.398438 C 17.472656 34.398438 21.773438 38.675781 21.773438 43.902344 L 21.773438 49.53125 C 21.773438 50.402344 21.058594 51.113281 20.183594 51.113281 L 4.261719 51.113281 C 3.386719 51.113281 2.671875 50.402344 2.671875 49.53125 L 2.671875 43.902344 C 2.671875 38.675781 6.96875 34.398438 12.222656 34.398438 Z M 12.222656 34.398438 " fill-opacity="1" fill-rule="evenodd"/></g><g clip-path="url(#266ea0c12b)"><path fill="#19cfba" d="M 16.824219 51.113281 L 4.261719 51.113281 C 3.386719 51.113281 2.671875 50.402344 2.671875 49.53125 L 2.671875 43.902344 C 2.671875 39.242188 6.085938 35.339844 10.542969 34.542969 C 15.003906 35.339844 18.414062 39.242188 18.414062 43.902344 L 18.414062 49.53125 C 18.414062 50.402344 17.699219 51.113281 16.824219 51.113281 Z M 16.824219 51.113281 " fill-opacity="1" fill-rule="evenodd"/></g><path fill="#e8bc8e" d="M 13.914062 23.929688 C 14.214844 24.039062 14.503906 24.179688 14.78125 24.34375 C 15.054688 24.511719 15.3125 24.703125 15.550781 24.921875 C 15.789062 25.140625 16 25.378906 16.191406 25.636719 C 16.382812 25.898438 16.546875 26.171875 16.679688 26.464844 C 16.816406 26.757812 16.921875 27.058594 17 27.371094 C 17.074219 27.683594 17.121094 28 17.132812 28.320312 C 17.148438 28.640625 17.128906 28.960938 17.078125 29.277344 C 17.03125 29.59375 16.949219 29.90625 16.839844 30.207031 C 16.726562 30.507812 16.585938 30.796875 16.417969 31.070312 C 16.25 31.34375 16.058594 31.601562 15.839844 31.835938 C 15.621094 32.074219 15.382812 32.285156 15.121094 32.476562 C 14.859375 32.664062 14.582031 32.828125 14.289062 32.964844 C 13.996094 33.097656 13.695312 33.203125 13.382812 33.28125 C 13.066406 33.355469 12.75 33.398438 12.425781 33.414062 C 12.105469 33.425781 11.785156 33.410156 11.464844 33.359375 C 11.144531 33.308594 10.835938 33.230469 10.53125 33.117188 C 10.226562 33.007812 9.9375 32.871094 9.664062 32.703125 C 9.386719 32.535156 9.132812 32.34375 8.894531 32.125 C 8.65625 31.90625 8.441406 31.667969 8.25 31.410156 C 8.0625 31.148438 7.898438 30.875 7.761719 30.582031 C 7.625 30.292969 7.519531 29.988281 7.445312 29.675781 C 7.367188 29.363281 7.324219 29.046875 7.308594 28.726562 C 7.296875 28.40625 7.316406 28.085938 7.363281 27.769531 C 7.414062 27.453125 7.496094 27.144531 7.605469 26.839844 C 7.71875 26.539062 7.855469 26.25 8.023438 25.976562 C 8.191406 25.703125 8.386719 25.445312 8.605469 25.210938 C 8.824219 24.972656 9.0625 24.761719 9.324219 24.570312 C 9.582031 24.382812 9.859375 24.21875 10.152344 24.085938 C 10.445312 23.949219 10.75 23.84375 11.0625 23.769531 C 11.375 23.691406 11.695312 23.648438 12.015625 23.632812 C 12.339844 23.621094 12.660156 23.640625 12.980469 23.6875 C 13.296875 23.738281 13.609375 23.816406 13.914062 23.929688 Z M 13.914062 23.929688 " fill-opacity="1" fill-rule="nonzero"/><path fill="#fcd4a9" d="M 10.542969 33.125 C 8.65625 32.441406 7.304688 30.640625 7.304688 28.523438 C 7.304688 26.410156 8.65625 24.605469 10.542969 23.925781 C 12.433594 24.605469 13.78125 26.410156 13.78125 28.523438 C 13.78125 30.640625 12.433594 32.441406 10.542969 33.125 Z M 10.542969 33.125 " fill-opacity="1" fill-rule="evenodd"/><g clip-path="url(#a8683afa17)"><path fill="#48a0e8" d="M 62.859375 34.398438 C 68.113281 34.398438 72.410156 38.675781 72.410156 43.902344 L 72.410156 49.53125 C 72.410156 50.402344 71.695312 51.113281 70.820312 51.113281 L 54.898438 51.113281 C 54.023438 51.113281 53.3125 50.402344 53.3125 49.53125 L 53.3125 43.902344 C 53.3125 38.675781 57.609375 34.398438 62.859375 34.398438 Z M 62.859375 34.398438 " fill-opacity="1" fill-rule="evenodd"/></g><path fill="#88c8fe" d="M 67.464844 51.113281 L 54.898438 51.113281 C 54.023438 51.113281 53.3125 50.402344 53.3125 49.53125 L 53.3125 43.902344 C 53.3125 39.242188 56.722656 35.339844 61.183594 34.542969 C 65.640625 35.339844 69.050781 39.242188 69.050781 43.902344 L 69.050781 49.53125 C 69.050781 50.402344 68.339844 51.113281 67.464844 51.113281 Z M 67.464844 51.113281 " fill-opacity="1" fill-rule="evenodd"/><path fill="#e8bc8e" d="M 66.335938 25.066406 C 66.5625 25.292969 66.769531 25.539062 66.945312 25.808594 C 67.125 26.074219 67.277344 26.355469 67.402344 26.652344 C 67.523438 26.949219 67.617188 27.253906 67.679688 27.570312 C 67.742188 27.886719 67.777344 28.203125 67.777344 28.527344 C 67.777344 28.847656 67.742188 29.164062 67.679688 29.480469 C 67.617188 29.796875 67.523438 30.101562 67.402344 30.398438 C 67.277344 30.695312 67.125 30.976562 66.945312 31.246094 C 66.769531 31.511719 66.5625 31.757812 66.335938 31.984375 C 66.109375 32.214844 65.859375 32.414062 65.589844 32.59375 C 65.324219 32.773438 65.039062 32.921875 64.742188 33.046875 C 64.441406 33.167969 64.136719 33.261719 63.820312 33.324219 C 63.503906 33.386719 63.183594 33.417969 62.859375 33.417969 C 62.535156 33.417969 62.21875 33.386719 61.902344 33.324219 C 61.585938 33.261719 61.277344 33.167969 60.980469 33.046875 C 60.679688 32.921875 60.398438 32.773438 60.128906 32.59375 C 59.859375 32.414062 59.613281 32.214844 59.382812 31.984375 C 59.15625 31.757812 58.953125 31.511719 58.773438 31.246094 C 58.59375 30.976562 58.441406 30.695312 58.316406 30.398438 C 58.195312 30.101562 58.101562 29.796875 58.039062 29.480469 C 57.976562 29.164062 57.945312 28.847656 57.945312 28.527344 C 57.945312 28.203125 57.976562 27.886719 58.039062 27.570312 C 58.101562 27.253906 58.195312 26.949219 58.316406 26.652344 C 58.441406 26.355469 58.59375 26.074219 58.773438 25.808594 C 58.953125 25.539062 59.15625 25.292969 59.382812 25.066406 C 59.613281 24.839844 59.859375 24.636719 60.128906 24.457031 C 60.398438 24.277344 60.679688 24.128906 60.976562 24.003906 C 61.277344 23.882812 61.585938 23.789062 61.902344 23.726562 C 62.21875 23.664062 62.535156 23.632812 62.859375 23.632812 C 63.183594 23.632812 63.503906 23.664062 63.820312 23.726562 C 64.136719 23.789062 64.441406 23.882812 64.742188 24.003906 C 65.039062 24.128906 65.324219 24.277344 65.589844 24.457031 C 65.859375 24.636719 66.109375 24.839844 66.335938 25.066406 Z M 66.335938 25.066406 " fill-opacity="1" fill-rule="nonzero"/><path fill="#fcd4a9" d="M 61.183594 33.125 C 59.292969 32.441406 57.945312 30.640625 57.945312 28.523438 C 57.945312 26.410156 59.292969 24.605469 61.183594 23.925781 C 63.070312 24.605469 64.417969 26.410156 64.417969 28.523438 C 64.417969 30.640625 63.070312 32.441406 61.183594 33.125 Z M 61.183594 33.125 " fill-opacity="1" fill-rule="evenodd"/><path fill="#14b5a2" d="M 47.351562 32.9375 C 48.042969 33.316406 48.179688 34.34375 47.351562 34.847656 L 43.738281 37.292969 C 43.242188 37.628906 42.5625 37.5 42.226562 37.003906 C 41.886719 36.507812 42.019531 35.835938 42.515625 35.496094 L 43.277344 34.984375 L 27.886719 34.984375 C 27.28125 34.984375 26.792969 34.496094 26.792969 33.894531 C 26.792969 33.292969 27.28125 32.804688 27.886719 32.804688 L 43.277344 32.804688 L 42.515625 32.289062 C 42.019531 31.953125 41.886719 31.277344 42.226562 30.78125 C 42.5625 30.285156 43.242188 30.15625 43.738281 30.492188 Z M 32.195312 44.410156 C 32.695312 44.746094 32.824219 45.417969 32.484375 45.914062 C 32.148438 46.410156 31.46875 46.542969 30.972656 46.207031 L 27.359375 43.757812 C 26.597656 43.296875 26.597656 42.316406 27.359375 41.847656 L 30.972656 39.402344 C 31.46875 39.066406 32.148438 39.199219 32.484375 39.695312 C 32.824219 40.191406 32.695312 40.863281 32.195312 41.199219 L 31.4375 41.714844 L 46.824219 41.714844 C 47.429688 41.714844 47.921875 42.203125 47.921875 42.804688 C 47.921875 43.40625 47.429688 43.894531 46.824219 43.894531 L 31.4375 43.894531 Z M 32.195312 44.410156 " fill-opacity="1" fill-rule="evenodd"/></svg>