<svg xmlns="http://www.w3.org/2000/svg" xmlns:xlink="http://www.w3.org/1999/xlink" width="100" zoomAndPan="magnify" viewBox="0 0 75 74.999997" height="100" preserveAspectRatio="xMidYMid meet" version="1.0"><defs><clipPath id="c888dc1f46"><path d="M 9 4.089844 L 75 4.089844 L 75 67.839844 L 9 67.839844 Z M 9 4.089844 " clip-rule="nonzero"/></clipPath><clipPath id="526a77ec06"><path d="M 0 4.089844 L 75 4.089844 L 75 67.839844 L 0 67.839844 Z M 0 4.089844 " clip-rule="nonzero"/></clipPath></defs><g clip-path="url(#c888dc1f46)"><path fill="#fff3e1" d="M 74.707031 6.484375 L 65.332031 64.957031 C 65.085938 66.484375 63.773438 67.605469 62.234375 67.605469 L 16.765625 67.605469 L 61.792969 67.605469 C 60.078125 67.605469 58.6875 66.207031 58.6875 64.480469 L 58.6875 61.355469 L 17.769531 61.355469 L 19.253906 52.097656 L 23.773438 49.882812 C 29.023438 47.3125 32.355469 41.953125 32.355469 36.082031 L 32.355469 25.921875 C 29.035156 25.921875 26.0625 24.417969 24.074219 22.050781 L 26.664062 5.890625 C 26.8125 4.984375 27.585938 4.320312 28.496094 4.320312 L 72.878906 4.320312 C 74.019531 4.324219 74.890625 5.351562 74.707031 6.484375 Z M 24.902344 42.664062 L 9.738281 42.664062 L 9.738281 28.761719 L 24.902344 28.761719 Z M 24.902344 42.664062 " fill-opacity="1" fill-rule="nonzero"/><path fill="#ffa300" d="M 61.796875 67.605469 L 12.917969 67.605469 C 11.199219 67.605469 9.808594 66.207031 9.808594 64.480469 L 9.808594 61.355469 L 58.691406 61.355469 L 58.691406 64.480469 C 58.691406 66.207031 60.082031 67.605469 61.796875 67.605469 Z M 72.878906 4.324219 L 28.496094 4.324219 C 27.585938 4.324219 26.8125 4.988281 26.664062 5.890625 L 25.835938 11.058594 L 47.347656 11.058594 C 48.175781 11.058594 48.84375 10.382812 48.84375 9.554688 C 48.84375 8.722656 49.511719 8.050781 50.339844 8.050781 L 74.460938 8.050781 L 74.710938 6.484375 C 74.890625 5.351562 74.019531 4.324219 72.878906 4.324219 Z M 72.878906 4.324219 " fill-opacity="1" fill-rule="nonzero"/></g><path fill="#55d876" d="M 65.828125 17.945312 L 64.507812 24.707031 C 64.320312 25.664062 63.394531 26.441406 62.4375 26.441406 L 50.394531 26.441406 C 49.441406 26.441406 48.820312 25.664062 49.007812 24.707031 L 50.328125 17.945312 C 50.515625 16.984375 51.441406 16.207031 52.398438 16.207031 L 64.4375 16.207031 C 65.394531 16.207031 66.015625 16.984375 65.828125 17.945312 Z M 65.828125 17.945312 " fill-opacity="1" fill-rule="nonzero"/><path fill="#f93262" d="M 22.375 19.289062 L 10.238281 19.289062 C 8.582031 23.191406 4.734375 25.921875 0.253906 25.921875 L 0.253906 36.082031 C 0.253906 41.957031 3.585938 47.3125 8.835938 49.886719 L 16.304688 53.539062 L 23.773438 49.886719 C 29.023438 47.3125 32.355469 41.957031 32.355469 36.082031 L 32.355469 25.921875 C 27.875 25.921875 24.03125 23.191406 22.375 19.289062 Z M 21.875 33.597656 C 20.417969 35.066406 18.957031 36.535156 17.496094 38.003906 C 16.695312 38.808594 14.953125 40.566406 13.910156 41.613281 L 13.183594 40.863281 C 13.160156 40.832031 13.136719 40.800781 13.109375 40.773438 C 13.035156 40.703125 12.964844 40.632812 12.890625 40.566406 C 12.824219 40.503906 12.757812 40.4375 12.691406 40.375 C 11.707031 39.425781 10.722656 38.480469 9.738281 37.535156 L 11.375 35.890625 C 11.511719 36.023438 11.652344 36.15625 11.789062 36.289062 C 12.496094 36.96875 13.203125 37.644531 13.90625 38.324219 C 13.972656 38.257812 14.039062 38.191406 14.105469 38.125 C 15.5625 36.65625 17.027344 35.1875 18.484375 33.71875 C 19.402344 32.792969 20.320312 31.871094 21.238281 30.949219 L 22.875 32.59375 C 22.539062 32.929688 22.207031 33.261719 21.875 33.597656 Z M 21.875 33.597656 " fill-opacity="1" fill-rule="nonzero"/><g clip-path="url(#526a77ec06)"><path fill="#000000" d="M 28.796875 36.160156 L 28.796875 28.167969 L 28.566406 28.167969 C 25.335938 28.167969 22.425781 26.234375 21.15625 23.242188 L 21.097656 23.097656 L 11.515625 23.097656 L 11.457031 23.242188 C 10.1875 26.234375 7.277344 28.167969 4.042969 28.167969 L 3.808594 28.167969 L 3.808594 36.160156 C 3.808594 40.703125 6.433594 44.925781 10.496094 46.914062 L 16.304688 49.757812 L 22.109375 46.914062 C 26.171875 44.921875 28.796875 40.703125 28.796875 36.160156 Z M 16.304688 49.238281 L 10.699219 46.496094 C 6.796875 44.582031 4.273438 40.527344 4.273438 36.160156 L 4.273438 28.628906 C 7.550781 28.539062 10.480469 26.578125 11.820312 23.566406 L 20.789062 23.566406 C 22.132812 26.578125 25.058594 28.539062 28.332031 28.628906 L 28.332031 36.160156 C 28.332031 40.527344 25.8125 44.582031 21.90625 46.496094 Z M 48.78125 24.660156 C 48.675781 25.199219 48.789062 25.710938 49.105469 26.09375 C 49.410156 26.46875 49.871094 26.675781 50.398438 26.675781 L 62.441406 26.675781 C 63.5 26.675781 64.527344 25.8125 64.734375 24.75 L 66.054688 17.988281 C 66.160156 17.449219 66.046875 16.9375 65.730469 16.554688 C 65.425781 16.179688 64.964844 15.972656 64.4375 15.972656 L 52.398438 15.972656 C 51.339844 15.972656 50.308594 16.835938 50.101562 17.898438 Z M 52.398438 16.4375 L 64.4375 16.4375 C 64.824219 16.4375 65.15625 16.585938 65.375 16.851562 C 65.597656 17.125 65.679688 17.5 65.601562 17.902344 L 64.28125 24.660156 C 64.113281 25.515625 63.285156 26.210938 62.4375 26.210938 L 50.394531 26.210938 C 50.011719 26.210938 49.679688 26.066406 49.460938 25.800781 C 49.234375 25.523438 49.15625 25.152344 49.234375 24.75 L 50.554688 17.988281 C 50.722656 17.132812 51.546875 16.4375 52.398438 16.4375 Z M 37.800781 31.539062 L 62.339844 31.539062 L 62.339844 32.003906 L 37.800781 32.003906 Z M 37.800781 36.867188 L 61.46875 36.867188 L 61.46875 37.335938 L 37.800781 37.335938 Z M 37.800781 42.199219 L 60.59375 42.199219 L 60.59375 42.664062 L 37.800781 42.664062 Z M 34.257812 47.527344 L 59.71875 47.527344 L 59.71875 47.992188 L 34.257812 47.992188 Z M 27.5625 52.855469 L 58.847656 52.855469 L 58.847656 53.320312 L 27.5625 53.320312 Z M 48.242188 65.671875 L 18.890625 65.671875 L 18.890625 65.207031 L 48.242188 65.207031 Z M 16.921875 65.671875 L 14.59375 65.671875 L 14.59375 65.207031 L 16.921875 65.207031 Z M 74.972656 5.988281 L 74.90625 5.703125 C 74.90625 5.699219 74.90625 5.695312 74.902344 5.691406 C 74.890625 5.640625 74.878906 5.59375 74.863281 5.542969 C 74.855469 5.53125 74.851562 5.515625 74.847656 5.503906 C 74.832031 5.457031 74.816406 5.410156 74.796875 5.367188 C 74.789062 5.347656 74.78125 5.332031 74.773438 5.316406 C 74.746094 5.257812 74.71875 5.199219 74.6875 5.144531 C 74.664062 5.105469 74.644531 5.066406 74.621094 5.03125 C 74.605469 5.011719 74.589844 4.992188 74.578125 4.96875 C 74.550781 4.929688 74.519531 4.890625 74.488281 4.851562 C 74.480469 4.84375 74.472656 4.835938 74.46875 4.824219 C 74.464844 4.820312 74.457031 4.8125 74.453125 4.808594 C 74.359375 4.699219 74.257812 4.601562 74.144531 4.515625 C 74.140625 4.511719 74.132812 4.507812 74.125 4.503906 C 74.074219 4.464844 74.023438 4.429688 73.96875 4.398438 C 73.960938 4.390625 73.949219 4.382812 73.941406 4.378906 C 73.878906 4.34375 73.820312 4.308594 73.757812 4.28125 C 73.757812 4.28125 73.757812 4.28125 73.753906 4.28125 C 73.6875 4.25 73.621094 4.222656 73.550781 4.199219 C 73.546875 4.195312 73.539062 4.195312 73.535156 4.191406 C 73.476562 4.171875 73.414062 4.15625 73.355469 4.144531 C 73.339844 4.140625 73.320312 4.136719 73.304688 4.132812 C 73.25 4.121094 73.199219 4.113281 73.144531 4.105469 C 73.128906 4.101562 73.109375 4.101562 73.089844 4.097656 C 73.019531 4.09375 72.949219 4.089844 72.878906 4.089844 L 28.496094 4.089844 C 28.433594 4.089844 28.371094 4.09375 28.308594 4.097656 C 28.285156 4.101562 28.261719 4.105469 28.238281 4.109375 C 28.203125 4.113281 28.167969 4.117188 28.132812 4.121094 C 28.101562 4.125 28.070312 4.132812 28.042969 4.140625 C 28.015625 4.148438 27.984375 4.15625 27.957031 4.160156 C 27.925781 4.171875 27.890625 4.179688 27.859375 4.191406 C 27.835938 4.199219 27.808594 4.203125 27.789062 4.214844 C 27.753906 4.226562 27.71875 4.238281 27.683594 4.253906 C 27.664062 4.261719 27.644531 4.269531 27.625 4.277344 C 27.589844 4.292969 27.554688 4.3125 27.523438 4.328125 C 27.503906 4.339844 27.488281 4.347656 27.472656 4.355469 C 27.4375 4.375 27.402344 4.398438 27.367188 4.417969 C 27.355469 4.429688 27.339844 4.4375 27.324219 4.449219 C 27.289062 4.472656 27.257812 4.496094 27.222656 4.523438 C 27.210938 4.53125 27.199219 4.539062 27.1875 4.550781 C 27.152344 4.578125 27.121094 4.605469 27.089844 4.636719 C 27.078125 4.644531 27.066406 4.652344 27.058594 4.664062 C 27.027344 4.695312 26.996094 4.726562 26.964844 4.761719 C 26.957031 4.769531 26.949219 4.777344 26.941406 4.785156 C 26.910156 4.820312 26.878906 4.859375 26.847656 4.894531 C 26.84375 4.902344 26.839844 4.910156 26.832031 4.917969 C 26.804688 4.957031 26.773438 5 26.746094 5.039062 C 26.742188 5.046875 26.738281 5.050781 26.734375 5.058594 C 26.707031 5.101562 26.679688 5.148438 26.65625 5.195312 C 26.65625 5.199219 26.652344 5.203125 26.648438 5.207031 C 26.625 5.257812 26.601562 5.304688 26.578125 5.355469 C 26.578125 5.359375 26.578125 5.359375 26.578125 5.363281 C 26.554688 5.414062 26.535156 5.46875 26.515625 5.527344 C 26.496094 5.582031 26.480469 5.640625 26.464844 5.703125 L 26.398438 5.988281 L 26.414062 5.988281 L 23.925781 21.5 C 23.390625 20.800781 22.941406 20.03125 22.585938 19.195312 L 22.527344 19.054688 L 10.082031 19.054688 L 10.023438 19.195312 C 8.351562 23.136719 4.515625 25.6875 0.253906 25.6875 L 0.0234375 25.6875 L 0.0234375 36.078125 C 0.0234375 39.003906 0.835938 41.859375 2.378906 44.339844 C 3.921875 46.820312 6.117188 48.808594 8.734375 50.089844 L 16.304688 53.796875 L 18.957031 52.5 L 17.574219 61.117188 L 9.578125 61.117188 L 9.578125 64.476562 C 9.578125 66.328125 11.074219 67.835938 12.917969 67.835938 L 62.238281 67.835938 C 63.898438 67.835938 65.296875 66.636719 65.5625 64.988281 L 74.65625 8.28125 L 74.9375 6.515625 C 74.953125 6.441406 74.957031 6.367188 74.964844 6.289062 C 74.96875 6.1875 74.964844 6.085938 74.953125 5.988281 Z M 74.261719 7.816406 L 50.339844 7.816406 C 49.386719 7.816406 48.613281 8.597656 48.613281 9.554688 C 48.613281 10.253906 48.046875 10.824219 47.347656 10.824219 L 26.109375 10.824219 L 26.882812 5.988281 L 74.488281 5.988281 C 74.5 6.082031 74.503906 6.175781 74.5 6.269531 C 74.496094 6.328125 74.492188 6.386719 74.480469 6.445312 Z M 16.304688 53.28125 L 8.9375 49.675781 C 3.800781 47.160156 0.484375 41.824219 0.484375 36.082031 L 0.484375 26.152344 C 4.789062 26.0625 8.644531 23.484375 10.386719 19.523438 L 22.222656 19.523438 C 23.558594 22.558594 26.132812 24.777344 29.199219 25.695312 C 29.214844 25.699219 29.226562 25.703125 29.242188 25.707031 C 29.59375 25.808594 29.949219 25.894531 30.3125 25.964844 C 30.34375 25.96875 30.375 25.976562 30.40625 25.980469 C 30.582031 26.011719 30.761719 26.042969 30.941406 26.0625 C 30.941406 26.0625 30.945312 26.0625 30.945312 26.0625 C 31.117188 26.085938 31.289062 26.101562 31.460938 26.117188 C 31.503906 26.121094 31.550781 26.125 31.59375 26.125 C 31.765625 26.140625 31.9375 26.148438 32.113281 26.152344 C 32.117188 26.152344 32.121094 26.152344 32.121094 26.152344 L 32.121094 36.078125 C 32.121094 40.386719 30.257812 44.464844 27.15625 47.292969 C 26.125 48.238281 24.953125 49.042969 23.671875 49.671875 L 19.042969 51.9375 Z M 10.039062 64.480469 L 10.039062 61.585938 L 58.457031 61.585938 L 58.457031 64.480469 C 58.457031 64.730469 58.488281 64.972656 58.539062 65.203125 L 52.019531 65.203125 L 52.019531 65.671875 L 58.679688 65.671875 C 58.949219 66.386719 59.457031 66.984375 60.105469 67.371094 L 12.917969 67.371094 C 11.328125 67.371094 10.039062 66.074219 10.039062 64.480469 Z M 65.101562 64.917969 C 64.875 66.339844 63.667969 67.371094 62.234375 67.371094 L 61.796875 67.371094 C 60.210938 67.371094 58.921875 66.074219 58.921875 64.480469 L 58.921875 61.121094 L 18.042969 61.121094 L 19.464844 52.253906 L 23.875 50.09375 C 26.492188 48.8125 28.6875 46.824219 30.230469 44.34375 C 31.773438 41.863281 32.585938 39.007812 32.585938 36.082031 L 32.585938 25.691406 L 32.355469 25.691406 C 32.351562 25.691406 32.351562 25.691406 32.347656 25.691406 C 32.179688 25.691406 32.007812 25.683594 31.84375 25.675781 C 31.796875 25.675781 31.753906 25.671875 31.707031 25.667969 C 31.550781 25.660156 31.394531 25.648438 31.242188 25.632812 C 31.226562 25.628906 31.210938 25.628906 31.195312 25.625 C 31.019531 25.609375 30.847656 25.582031 30.675781 25.558594 C 30.644531 25.550781 30.613281 25.546875 30.582031 25.542969 C 30.421875 25.511719 30.261719 25.484375 30.101562 25.449219 C 30.089844 25.445312 30.082031 25.445312 30.070312 25.441406 C 29.894531 25.402344 29.71875 25.359375 29.542969 25.308594 C 29.527344 25.308594 29.515625 25.300781 29.503906 25.300781 C 27.507812 24.738281 25.703125 23.597656 24.320312 21.984375 L 26.035156 11.292969 L 47.347656 11.292969 C 48.300781 11.292969 49.074219 10.511719 49.074219 9.554688 C 49.074219 8.855469 49.640625 8.285156 50.339844 8.285156 L 74.1875 8.285156 Z M 65.101562 64.917969 " fill-opacity="1" fill-rule="nonzero"/></g></svg>