<svg xmlns="http://www.w3.org/2000/svg" xmlns:xlink="http://www.w3.org/1999/xlink" width="100" zoomAndPan="magnify" viewBox="0 0 75 74.999997" height="100" preserveAspectRatio="xMidYMid meet" version="1.0"><defs><clipPath id="9bf6be6c56"><path d="M 33 49 L 42 49 L 42 70.6875 L 33 70.6875 Z M 33 49 " clip-rule="nonzero"/></clipPath><clipPath id="79a03c6ac0"><path d="M 16 4.6875 L 59 4.6875 L 59 48 L 16 48 Z M 16 4.6875 " clip-rule="nonzero"/></clipPath></defs><g clip-path="url(#9bf6be6c56)"><path fill="#004aad" d="M 40.617188 52.792969 L 40.054688 52.792969 L 40.054688 49.875 C 39.214844 49.96875 38.355469 50.015625 37.5 50.015625 C 36.644531 50.015625 35.785156 49.96875 34.945312 49.875 L 34.945312 52.792969 L 34.382812 52.792969 C 33.945312 52.792969 33.601562 53.132812 33.601562 53.570312 L 33.601562 66.523438 C 33.601562 68.675781 35.347656 70.421875 37.5 70.421875 C 39.652344 70.421875 41.398438 68.675781 41.398438 66.523438 L 41.398438 53.570312 C 41.398438 53.132812 41.054688 52.792969 40.617188 52.792969 Z M 40.617188 52.792969 " fill-opacity="1" fill-rule="nonzero"/></g><g clip-path="url(#79a03c6ac0)"><path fill="#004aad" d="M 37.5 4.734375 C 25.636719 4.734375 16.035156 14.351562 16.035156 26.199219 C 16.035156 38.0625 25.636719 47.679688 37.5 47.679688 C 49.363281 47.679688 58.964844 38.0625 58.964844 26.199219 C 58.964844 14.351562 49.363281 4.734375 37.5 4.734375 Z M 37.5 42.566406 C 28.460938 42.566406 21.132812 35.238281 21.132812 26.199219 C 21.132812 17.171875 28.460938 9.832031 37.5 9.832031 C 46.539062 9.832031 53.867188 17.171875 53.867188 26.199219 C 53.867188 35.238281 46.539062 42.566406 37.5 42.566406 Z M 37.5 42.566406 " fill-opacity="1" fill-rule="nonzero"/></g><path fill="#004aad" d="M 31.152344 21.21875 L 31.957031 21.21875 L 31.957031 16.195312 L 30.132812 16.195312 L 30.132812 16.949219 L 31.152344 16.949219 Z M 31.152344 21.21875 " fill-opacity="1" fill-rule="nonzero"/><path fill="#004aad" d="M 35.136719 21.277344 C 36.585938 21.277344 37.183594 20.144531 37.183594 18.675781 C 37.183594 17.210938 36.589844 16.074219 35.136719 16.074219 C 33.679688 16.074219 33.085938 17.210938 33.085938 18.675781 C 33.085938 20.144531 33.683594 21.277344 35.136719 21.277344 Z M 35.136719 16.800781 C 36.082031 16.800781 36.351562 17.730469 36.351562 18.675781 C 36.351562 19.621094 36.082031 20.550781 35.136719 20.550781 C 34.191406 20.550781 33.90625 19.621094 33.90625 18.675781 C 33.90625 17.730469 34.191406 16.800781 35.136719 16.800781 Z M 35.136719 16.800781 " fill-opacity="1" fill-rule="nonzero"/><path fill="#004aad" d="M 38.835938 21.21875 L 39.640625 21.21875 L 39.640625 16.195312 L 37.816406 16.195312 L 37.816406 16.949219 L 38.835938 16.949219 Z M 38.835938 21.21875 " fill-opacity="1" fill-rule="nonzero"/><path fill="#004aad" d="M 42.820312 21.277344 C 44.269531 21.277344 44.867188 20.144531 44.867188 18.675781 C 44.867188 17.210938 44.273438 16.074219 42.820312 16.074219 C 41.363281 16.074219 40.769531 17.210938 40.769531 18.675781 C 40.769531 20.144531 41.367188 21.277344 42.820312 21.277344 Z M 42.820312 16.800781 C 43.765625 16.800781 44.035156 17.730469 44.035156 18.675781 C 44.035156 19.621094 43.765625 20.550781 42.820312 20.550781 C 41.875 20.550781 41.589844 19.621094 41.589844 18.675781 C 41.589844 17.730469 41.875 16.800781 42.820312 16.800781 Z M 42.820312 16.800781 " fill-opacity="1" fill-rule="nonzero"/><path fill="#004aad" d="M 30.132812 32.011719 L 31.152344 32.011719 L 31.152344 36.28125 L 31.957031 36.28125 L 31.957031 31.257812 L 30.132812 31.257812 Z M 30.132812 32.011719 " fill-opacity="1" fill-rule="nonzero"/><path fill="#004aad" d="M 35.136719 31.132812 C 33.679688 31.132812 33.085938 32.269531 33.085938 33.734375 C 33.085938 35.207031 33.683594 36.339844 35.136719 36.339844 C 36.585938 36.339844 37.183594 35.207031 37.183594 33.734375 C 37.183594 32.269531 36.589844 31.132812 35.136719 31.132812 Z M 35.136719 35.613281 C 34.191406 35.613281 33.90625 34.679688 33.90625 33.734375 C 33.90625 32.792969 34.191406 31.859375 35.136719 31.859375 C 36.082031 31.859375 36.351562 32.792969 36.351562 33.734375 C 36.351562 34.683594 36.082031 35.613281 35.136719 35.613281 Z M 35.136719 35.613281 " fill-opacity="1" fill-rule="nonzero"/><path fill="#004aad" d="M 37.816406 32.011719 L 38.835938 32.011719 L 38.835938 36.28125 L 39.640625 36.28125 L 39.640625 31.257812 L 37.816406 31.257812 Z M 37.816406 32.011719 " fill-opacity="1" fill-rule="nonzero"/><path fill="#004aad" d="M 42.820312 31.132812 C 41.363281 31.132812 40.769531 32.269531 40.769531 33.734375 C 40.769531 35.207031 41.367188 36.339844 42.820312 36.339844 C 44.269531 36.339844 44.867188 35.207031 44.867188 33.734375 C 44.867188 32.269531 44.273438 31.132812 42.820312 31.132812 Z M 42.820312 35.613281 C 41.875 35.613281 41.589844 34.679688 41.589844 33.734375 C 41.589844 32.792969 41.875 31.859375 42.820312 31.859375 C 43.765625 31.859375 44.035156 32.792969 44.035156 33.734375 C 44.035156 34.683594 43.765625 35.613281 42.820312 35.613281 Z M 42.820312 35.613281 " fill-opacity="1" fill-rule="nonzero"/><path fill="#004aad" d="M 25.0625 24.480469 L 26.082031 24.480469 L 26.082031 28.75 L 26.886719 28.75 L 26.886719 23.726562 L 25.0625 23.726562 Z M 25.0625 24.480469 " fill-opacity="1" fill-rule="nonzero"/><path fill="#004aad" d="M 30.066406 23.605469 C 28.609375 23.605469 28.015625 24.738281 28.015625 26.207031 C 28.015625 27.675781 28.613281 28.808594 30.066406 28.808594 C 31.515625 28.808594 32.113281 27.675781 32.113281 26.207031 C 32.113281 24.738281 31.519531 23.605469 30.066406 23.605469 Z M 30.066406 28.082031 C 29.121094 28.082031 28.835938 27.148438 28.835938 26.207031 C 28.835938 25.261719 29.121094 24.332031 30.066406 24.332031 C 31.011719 24.332031 31.28125 25.261719 31.28125 26.207031 C 31.28125 27.152344 31.011719 28.082031 30.066406 28.082031 Z M 30.066406 28.082031 " fill-opacity="1" fill-rule="nonzero"/><path fill="#004aad" d="M 33.765625 28.75 L 34.570312 28.75 L 34.570312 23.726562 L 32.746094 23.726562 L 32.746094 24.480469 L 33.765625 24.480469 Z M 33.765625 28.75 " fill-opacity="1" fill-rule="nonzero"/><path fill="#004aad" d="M 37.746094 23.605469 C 36.292969 23.605469 35.699219 24.738281 35.699219 26.207031 C 35.699219 27.675781 36.296875 28.808594 37.746094 28.808594 C 39.199219 28.808594 39.796875 27.675781 39.796875 26.207031 C 39.796875 24.738281 39.203125 23.605469 37.746094 23.605469 Z M 37.746094 28.082031 C 36.804688 28.082031 36.519531 27.148438 36.519531 26.207031 C 36.519531 25.261719 36.804688 24.332031 37.746094 24.332031 C 38.695312 24.332031 38.960938 25.261719 38.960938 26.207031 C 38.960938 27.152344 38.695312 28.082031 37.746094 28.082031 Z M 37.746094 28.082031 " fill-opacity="1" fill-rule="nonzero"/><path fill="#004aad" d="M 41.449219 28.75 L 42.253906 28.75 L 42.253906 23.726562 L 40.429688 23.726562 L 40.429688 24.480469 L 41.449219 24.480469 Z M 41.449219 28.75 " fill-opacity="1" fill-rule="nonzero"/><path fill="#004aad" d="M 45.429688 23.605469 C 43.976562 23.605469 43.382812 24.738281 43.382812 26.207031 C 43.382812 27.675781 43.980469 28.808594 45.429688 28.808594 C 46.882812 28.808594 47.480469 27.675781 47.480469 26.207031 C 47.480469 24.738281 46.886719 23.605469 45.429688 23.605469 Z M 45.429688 28.082031 C 44.488281 28.082031 44.203125 27.148438 44.203125 26.207031 C 44.203125 25.261719 44.484375 24.332031 45.429688 24.332031 C 46.378906 24.332031 46.644531 25.261719 46.644531 26.207031 C 46.644531 27.152344 46.378906 28.082031 45.429688 28.082031 Z M 45.429688 28.082031 " fill-opacity="1" fill-rule="nonzero"/><path fill="#004aad" d="M 48.113281 23.726562 L 48.113281 24.480469 L 49.132812 24.480469 L 49.132812 28.75 L 49.9375 28.75 L 49.9375 23.726562 Z M 48.113281 23.726562 " fill-opacity="1" fill-rule="nonzero"/><path fill="#004aad" d="M 8.191406 31.480469 C 7.261719 31.480469 6.984375 32.394531 6.984375 33.324219 C 6.984375 34.253906 7.265625 35.167969 8.191406 35.167969 C 9.125 35.167969 9.386719 34.253906 9.386719 33.324219 C 9.386719 32.394531 9.125 31.480469 8.191406 31.480469 Z M 8.191406 31.480469 " fill-opacity="1" fill-rule="nonzero"/><path fill="#004aad" d="M 5.074219 20.132812 C 5.847656 20.132812 6.0625 19.375 6.0625 18.609375 C 6.0625 17.839844 5.847656 17.082031 5.074219 17.082031 C 4.308594 17.082031 4.074219 17.839844 4.074219 18.609375 C 4.074219 19.378906 4.308594 20.132812 5.074219 20.132812 Z M 5.074219 20.132812 " fill-opacity="1" fill-rule="nonzero"/><path fill="#004aad" d="M 18.09375 12.449219 L 0.0898438 12.449219 L 0.0898438 39.960938 L 18.09375 39.960938 C 15.320312 36.066406 13.699219 31.3125 13.699219 26.199219 C 13.699219 21.085938 15.320312 16.332031 18.09375 12.449219 Z M 11.277344 16.589844 L 12.761719 16.589844 L 12.761719 20.675781 L 12.105469 20.675781 L 12.105469 17.203125 L 11.277344 17.203125 Z M 9.097656 16.492188 C 10.289062 16.492188 10.761719 17.425781 10.761719 18.609375 C 10.761719 19.789062 10.289062 20.722656 9.097656 20.722656 C 7.90625 20.722656 7.429688 19.789062 7.429688 18.609375 C 7.429688 17.425781 7.90625 16.492188 9.097656 16.492188 Z M 5.074219 16.492188 C 6.265625 16.492188 6.742188 17.425781 6.742188 18.609375 C 6.742188 19.789062 6.265625 20.722656 5.074219 20.722656 C 3.882812 20.722656 3.410156 19.789062 3.410156 18.609375 C 3.410156 17.425781 3.882812 16.492188 5.074219 16.492188 Z M 5.066406 35.828125 L 4.273438 35.828125 L 4.273438 31.628906 L 3.273438 31.628906 L 3.273438 30.886719 L 5.066406 30.886719 Z M 5.164062 28.378906 L 4.394531 28.378906 L 4.394531 24.300781 L 3.421875 24.300781 L 3.421875 23.578125 L 5.164062 23.578125 Z M 6.035156 23.578125 L 7.78125 23.578125 L 7.78125 28.378906 L 7.011719 28.378906 L 7.011719 24.300781 L 6.035156 24.300781 Z M 8.191406 35.882812 C 6.75 35.882812 6.175781 34.753906 6.175781 33.324219 C 6.175781 31.894531 6.75 30.765625 8.191406 30.765625 C 9.632812 30.765625 10.207031 31.894531 10.207031 33.324219 C 10.207031 34.753906 9.632812 35.882812 8.191406 35.882812 Z M 12.625 35.828125 L 11.832031 35.828125 L 11.832031 31.628906 L 10.828125 31.628906 L 10.828125 30.886719 L 12.625 30.886719 Z M 10.816406 28.433594 C 9.417969 28.433594 8.859375 27.335938 8.859375 25.949219 C 8.859375 24.558594 9.417969 23.460938 10.816406 23.460938 C 12.214844 23.460938 12.773438 24.5625 12.773438 25.949219 C 12.773438 27.335938 12.214844 28.433594 10.816406 28.433594 Z M 10.816406 28.433594 " fill-opacity="1" fill-rule="nonzero"/><path fill="#004aad" d="M 10.816406 24.15625 C 9.914062 24.15625 9.640625 25.046875 9.640625 25.949219 C 9.640625 26.851562 9.914062 27.738281 10.816406 27.738281 C 11.722656 27.738281 11.976562 26.851562 11.976562 25.949219 C 11.976562 25.042969 11.722656 24.15625 10.816406 24.15625 Z M 10.816406 24.15625 " fill-opacity="1" fill-rule="nonzero"/><path fill="#004aad" d="M 9.097656 20.132812 C 9.867188 20.132812 10.085938 19.375 10.085938 18.609375 C 10.085938 17.839844 9.867188 17.082031 9.097656 17.082031 C 8.328125 17.082031 8.097656 17.839844 8.097656 18.609375 C 8.097656 19.378906 8.328125 20.132812 9.097656 20.132812 Z M 9.097656 20.132812 " fill-opacity="1" fill-rule="nonzero"/><path fill="#004aad" d="M 64.046875 24.191406 C 63.140625 24.191406 62.886719 25.078125 62.886719 25.984375 C 62.886719 26.886719 63.140625 27.777344 64.046875 27.777344 C 64.949219 27.777344 65.222656 26.890625 65.222656 25.984375 C 65.21875 25.082031 64.949219 24.191406 64.046875 24.191406 Z M 64.046875 24.191406 " fill-opacity="1" fill-rule="nonzero"/><path fill="#004aad" d="M 65.828125 20.132812 C 66.59375 20.132812 66.828125 19.378906 66.828125 18.609375 C 66.828125 17.839844 66.597656 17.082031 65.828125 17.082031 C 65.058594 17.082031 64.839844 17.835938 64.839844 18.609375 C 64.839844 19.375 65.058594 20.132812 65.828125 20.132812 Z M 65.828125 20.132812 " fill-opacity="1" fill-rule="nonzero"/><path fill="#004aad" d="M 66.671875 31.515625 C 65.738281 31.515625 65.476562 32.429688 65.476562 33.359375 C 65.476562 34.289062 65.738281 35.207031 66.671875 35.207031 C 67.597656 35.207031 67.878906 34.292969 67.878906 33.359375 C 67.878906 32.433594 67.597656 31.515625 66.671875 31.515625 Z M 66.671875 31.515625 " fill-opacity="1" fill-rule="nonzero"/><path fill="#004aad" d="M 69.851562 20.132812 C 70.617188 20.132812 70.851562 19.378906 70.851562 18.609375 C 70.851562 17.839844 70.617188 17.082031 69.851562 17.082031 C 69.082031 17.082031 68.863281 17.835938 68.863281 18.609375 C 68.863281 19.375 69.078125 20.132812 69.851562 20.132812 Z M 69.851562 20.132812 " fill-opacity="1" fill-rule="nonzero"/><path fill="#004aad" d="M 56.90625 12.449219 C 59.679688 16.332031 61.300781 21.085938 61.300781 26.199219 C 61.300781 31.3125 59.679688 36.066406 56.90625 39.960938 L 74.910156 39.960938 L 74.910156 12.449219 Z M 69.851562 16.492188 C 71.042969 16.492188 71.515625 17.425781 71.515625 18.609375 C 71.515625 19.789062 71.042969 20.722656 69.851562 20.722656 C 68.660156 20.722656 68.183594 19.789062 68.183594 18.609375 C 68.183594 17.425781 68.660156 16.492188 69.851562 16.492188 Z M 65.828125 16.492188 C 67.019531 16.492188 67.496094 17.425781 67.496094 18.609375 C 67.496094 19.789062 67.019531 20.722656 65.828125 20.722656 C 64.636719 20.722656 64.164062 19.789062 64.164062 18.609375 C 64.164062 17.425781 64.636719 16.492188 65.828125 16.492188 Z M 62.164062 16.589844 L 63.648438 16.589844 L 63.648438 17.203125 L 62.820312 17.203125 L 62.820312 20.675781 L 62.164062 20.675781 Z M 64.035156 31.664062 L 63.03125 31.664062 L 63.03125 35.863281 L 62.238281 35.863281 L 62.238281 30.921875 L 64.035156 30.921875 Z M 62.089844 25.984375 C 62.089844 24.597656 62.648438 23.5 64.046875 23.5 C 65.445312 23.5 66.003906 24.597656 66.003906 25.984375 C 66.003906 27.371094 65.445312 28.46875 64.046875 28.46875 C 62.648438 28.46875 62.089844 27.371094 62.089844 25.984375 Z M 66.671875 35.921875 C 65.230469 35.921875 64.65625 34.789062 64.65625 33.359375 C 64.65625 31.933594 65.230469 30.800781 66.671875 30.800781 C 68.109375 30.800781 68.683594 31.933594 68.683594 33.359375 C 68.683594 34.789062 68.109375 35.921875 66.671875 35.921875 Z M 68.824219 24.335938 L 67.851562 24.335938 L 67.851562 28.414062 L 67.082031 28.414062 L 67.082031 23.617188 L 68.824219 23.617188 Z M 69.699219 23.617188 L 71.441406 23.617188 L 71.441406 24.335938 L 70.46875 24.335938 L 70.46875 28.414062 L 69.699219 28.414062 Z M 71.589844 31.664062 L 70.585938 31.664062 L 70.585938 35.863281 L 69.796875 35.863281 L 69.796875 30.921875 L 71.589844 30.921875 Z M 71.589844 31.664062 " fill-opacity="1" fill-rule="nonzero"/></svg>