<svg xmlns="http://www.w3.org/2000/svg" xmlns:xlink="http://www.w3.org/1999/xlink" width="100" zoomAndPan="magnify" viewBox="0 0 75 74.999997" height="100" preserveAspectRatio="xMidYMid meet" version="1.0"><defs><clipPath id="75a9a15e1c"><path d="M 12.484375 60 L 38 60 L 38 75 L 12.484375 75 Z M 12.484375 60 " clip-rule="nonzero"/></clipPath><clipPath id="c206171052"><path d="M 37 60 L 62.734375 60 L 62.734375 75 L 37 75 Z M 37 60 " clip-rule="nonzero"/></clipPath></defs><path fill="#fdbda0" d="M 55.917969 26.875 C 55.917969 36.578125 50.03125 44.726562 42.066406 47.027344 C 40.601562 47.453125 39.0625 47.679688 37.472656 47.679688 C 37.445312 47.679688 37.414062 47.679688 37.382812 47.679688 C 35.917969 47.667969 34.496094 47.46875 33.128906 47.097656 C 26.210938 45.214844 20.816406 38.933594 19.394531 31.023438 C 19.15625 29.683594 19.03125 28.296875 19.03125 26.875 C 19.03125 26.34375 19.046875 25.820312 19.082031 25.296875 C 19.792969 14.582031 27.707031 6.128906 37.382812 6.074219 C 37.414062 6.074219 37.445312 6.074219 37.472656 6.074219 C 47.660156 6.074219 55.917969 15.386719 55.917969 26.875 " fill-opacity="1" fill-rule="nonzero"/><path fill="#653134" d="M 47.472656 24.359375 C 47.472656 24.945312 47 25.421875 46.414062 25.421875 C 45.828125 25.421875 45.351562 24.945312 45.351562 24.359375 C 45.351562 23.773438 45.828125 23.296875 46.414062 23.296875 C 47 23.296875 47.472656 23.773438 47.472656 24.359375 " fill-opacity="1" fill-rule="nonzero"/><path fill="#653134" d="M 44.144531 23.851562 C 44.144531 23.851562 46.351562 22.503906 49.558594 23.691406 L 44.144531 23.851562 " fill-opacity="1" fill-rule="nonzero"/><path fill="#653134" d="M 43.15625 20.375 C 43.15625 20.375 43.179688 22.242188 43.453125 22.492188 C 43.730469 22.738281 46.042969 20.34375 47.472656 20.683594 C 48.90625 21.027344 51.019531 22.335938 51.019531 22.335938 C 51.019531 22.335938 50.214844 20.5625 48.996094 19.96875 C 47.777344 19.378906 45.570312 18.566406 43.15625 20.375 " fill-opacity="1" fill-rule="nonzero"/><path fill="#fdbda0" d="M 45.800781 60.695312 L 27.816406 60.425781 C 32.441406 58.210938 33.050781 49.5 33.128906 47.097656 C 33.144531 46.707031 33.144531 46.480469 33.144531 46.480469 L 42.074219 46.480469 C 42.070312 46.664062 42.066406 46.847656 42.066406 47.027344 C 42.074219 54.460938 45.800781 60.695312 45.800781 60.695312 " fill-opacity="1" fill-rule="nonzero"/><path fill="#fdbda0" d="M 19.394531 31.023438 C 19.125 31.214844 18.71875 31.335938 18.109375 31.292969 C 15.996094 31.15625 14.570312 23.472656 16.085938 23.011719 C 17.394531 22.613281 18.734375 24.707031 19.082031 25.296875 C 19.136719 25.394531 19.167969 25.449219 19.167969 25.449219 L 19.90625 29.636719 C 19.90625 29.636719 20.066406 30.550781 19.394531 31.023438 " fill-opacity="1" fill-rule="nonzero"/><path fill="#efac92" d="M 37.382812 6.074219 L 37.382812 60.425781 L 27.816406 60.425781 C 32.441406 58.210938 33.050781 49.5 33.128906 47.097656 C 26.210938 45.214844 20.816406 38.933594 19.394531 31.023438 C 19.125 31.214844 18.71875 31.335938 18.109375 31.292969 C 15.996094 31.15625 14.570312 23.472656 16.085938 23.011719 C 17.394531 22.613281 18.734375 24.707031 19.082031 25.296875 C 19.792969 14.582031 27.707031 6.128906 37.382812 6.074219 " fill-opacity="1" fill-rule="nonzero"/><path fill="#653134" d="M 37.625 23.480469 C 37.683594 23.777344 37.714844 24.085938 37.726562 24.390625 C 37.742188 24.699219 37.734375 25.007812 37.707031 25.320312 C 37.652344 25.9375 37.515625 26.558594 37.253906 27.140625 C 37.1875 27.285156 37.113281 27.429688 37.03125 27.566406 C 36.949219 27.707031 36.855469 27.839844 36.757812 27.96875 C 36.65625 28.097656 36.546875 28.21875 36.429688 28.332031 C 36.3125 28.449219 36.183594 28.554688 36.050781 28.648438 C 35.917969 28.746094 35.777344 28.835938 35.632812 28.910156 C 35.484375 28.984375 35.335938 29.054688 35.179688 29.109375 C 35.144531 29.125 35.105469 29.136719 35.066406 29.152344 L 34.953125 29.1875 L 34.847656 29.21875 L 34.746094 29.257812 C 34.613281 29.304688 34.480469 29.355469 34.351562 29.417969 C 34.222656 29.476562 34.101562 29.539062 33.988281 29.613281 C 33.875 29.6875 33.773438 29.769531 33.683594 29.859375 C 33.671875 29.867188 33.664062 29.878906 33.652344 29.890625 C 33.640625 29.902344 33.632812 29.914062 33.621094 29.925781 C 33.601562 29.949219 33.582031 29.972656 33.566406 29.996094 C 33.550781 30.019531 33.535156 30.046875 33.519531 30.070312 C 33.507812 30.09375 33.492188 30.117188 33.480469 30.144531 C 33.460938 30.195312 33.441406 30.246094 33.433594 30.296875 C 33.421875 30.351562 33.417969 30.402344 33.421875 30.457031 C 33.429688 30.671875 33.554688 30.898438 33.734375 31.085938 C 33.824219 31.179688 33.929688 31.265625 34.042969 31.339844 C 34.101562 31.378906 34.160156 31.414062 34.21875 31.445312 C 34.277344 31.476562 34.339844 31.503906 34.40625 31.53125 C 34.660156 31.640625 34.9375 31.699219 35.214844 31.710938 C 35.25 31.710938 35.285156 31.710938 35.320312 31.710938 C 35.355469 31.710938 35.390625 31.710938 35.425781 31.707031 L 35.648438 31.691406 C 35.722656 31.6875 35.792969 31.675781 35.867188 31.667969 C 35.941406 31.660156 36.015625 31.652344 36.085938 31.636719 C 36.378906 31.59375 36.667969 31.519531 36.9375 31.402344 L 37.039062 31.355469 L 37.066406 31.34375 L 37.089844 31.332031 L 37.136719 31.304688 C 37.203125 31.273438 37.265625 31.230469 37.328125 31.191406 C 37.359375 31.167969 37.390625 31.148438 37.417969 31.125 C 37.445312 31.101562 37.476562 31.078125 37.503906 31.050781 C 37.53125 31.023438 37.558594 31 37.582031 30.96875 C 37.59375 30.957031 37.605469 30.941406 37.617188 30.925781 C 37.628906 30.910156 37.640625 30.898438 37.652344 30.878906 C 37.625 30.953125 37.582031 31.019531 37.539062 31.082031 C 37.515625 31.113281 37.488281 31.140625 37.464844 31.171875 C 37.4375 31.199219 37.410156 31.230469 37.382812 31.257812 C 37.328125 31.3125 37.269531 31.363281 37.207031 31.410156 C 37.144531 31.460938 37.078125 31.503906 37.015625 31.546875 C 36.746094 31.714844 36.453125 31.832031 36.152344 31.917969 C 36.078125 31.941406 36 31.957031 35.925781 31.976562 C 35.847656 31.996094 35.773438 32.015625 35.695312 32.027344 L 35.464844 32.066406 C 35.425781 32.074219 35.382812 32.078125 35.34375 32.085938 C 35.304688 32.089844 35.261719 32.09375 35.222656 32.09375 C 35.058594 32.105469 34.890625 32.097656 34.726562 32.074219 C 34.644531 32.066406 34.566406 32.046875 34.484375 32.03125 C 34.402344 32.011719 34.324219 31.988281 34.246094 31.960938 C 33.929688 31.855469 33.628906 31.691406 33.375 31.453125 C 33.25 31.335938 33.132812 31.199219 33.042969 31.039062 C 32.996094 30.957031 32.960938 30.871094 32.929688 30.78125 C 32.898438 30.691406 32.878906 30.597656 32.871094 30.5 C 32.859375 30.402344 32.863281 30.300781 32.878906 30.203125 C 32.894531 30.105469 32.925781 30.011719 32.960938 29.921875 C 32.980469 29.875 33 29.835938 33.023438 29.792969 C 33.046875 29.75 33.070312 29.710938 33.097656 29.671875 C 33.121094 29.632812 33.152344 29.597656 33.179688 29.558594 C 33.195312 29.542969 33.210938 29.527344 33.222656 29.507812 C 33.238281 29.492188 33.253906 29.472656 33.269531 29.457031 C 33.394531 29.328125 33.53125 29.222656 33.671875 29.128906 C 33.8125 29.035156 33.957031 28.957031 34.105469 28.886719 C 34.253906 28.820312 34.40625 28.761719 34.554688 28.707031 L 34.667969 28.671875 L 34.785156 28.632812 L 34.886719 28.601562 C 34.921875 28.589844 34.953125 28.582031 34.988281 28.570312 C 35.253906 28.476562 35.503906 28.355469 35.734375 28.199219 C 36.199219 27.886719 36.570312 27.445312 36.84375 26.9375 C 37.121094 26.429688 37.304688 25.859375 37.425781 25.277344 C 37.488281 24.984375 37.53125 24.6875 37.566406 24.386719 C 37.582031 24.238281 37.597656 24.085938 37.605469 23.933594 C 37.617188 23.785156 37.621094 23.632812 37.625 23.480469 " fill-opacity="1" fill-rule="nonzero"/><path fill="#653134" d="M 33.203125 38.910156 C 33.101562 38.910156 33 38.855469 32.949219 38.761719 C 32.871094 38.621094 32.921875 38.441406 33.0625 38.363281 C 33.164062 38.308594 35.613281 36.980469 37.550781 37.511719 C 39.523438 38.050781 40.433594 38.242188 41.273438 37.085938 C 41.367188 36.953125 41.550781 36.925781 41.679688 37.019531 C 41.808594 37.117188 41.839844 37.296875 41.742188 37.429688 C 41.226562 38.140625 40.617188 38.484375 39.824219 38.515625 C 39.121094 38.546875 38.320312 38.328125 37.398438 38.074219 C 35.6875 37.605469 33.367188 38.863281 33.34375 38.875 C 33.300781 38.902344 33.25 38.910156 33.203125 38.910156 " fill-opacity="1" fill-rule="nonzero"/><path fill="#e27c6c" d="M 22.664062 21.789062 C 22.640625 21.789062 22.617188 21.785156 22.597656 21.769531 C 22.539062 21.734375 22.519531 21.65625 22.554688 21.597656 C 22.582031 21.554688 23.171875 20.605469 24.238281 19.582031 C 24.867188 18.980469 25.527344 18.476562 26.207031 18.089844 C 27.054688 17.601562 27.929688 17.296875 28.808594 17.179688 C 28.875 17.167969 28.941406 17.21875 28.949219 17.289062 C 28.957031 17.355469 28.910156 17.421875 28.839844 17.429688 C 26.925781 17.6875 25.378906 18.839844 24.421875 19.761719 C 23.375 20.765625 22.777344 21.71875 22.773438 21.730469 C 22.746094 21.769531 22.707031 21.789062 22.664062 21.789062 " fill-opacity="1" fill-rule="nonzero"/><path fill="#e27c6c" d="M 35.398438 17.429688 C 35.363281 17.429688 35.332031 17.417969 35.304688 17.390625 C 35.300781 17.386719 34.769531 16.84375 33.589844 16.296875 C 32.496094 15.789062 30.609375 15.175781 27.8125 15.128906 C 27.742188 15.128906 27.6875 15.070312 27.6875 15 C 27.691406 14.933594 27.746094 14.875 27.816406 14.875 C 30.667969 14.925781 32.597656 15.554688 33.710938 16.074219 C 34.929688 16.640625 35.464844 17.195312 35.488281 17.214844 C 35.539062 17.265625 35.535156 17.347656 35.484375 17.394531 C 35.460938 17.417969 35.429688 17.429688 35.398438 17.429688 " fill-opacity="1" fill-rule="nonzero"/><path fill="#e27c6c" d="M 37.253906 14.625 C 37.226562 14.625 37.195312 14.613281 37.167969 14.589844 C 37.148438 14.570312 34.972656 12.578125 32.488281 11.949219 C 32.421875 11.933594 32.378906 11.863281 32.398438 11.796875 C 32.414062 11.730469 32.484375 11.6875 32.550781 11.703125 C 33.882812 12.042969 35.113281 12.757812 35.914062 13.300781 C 36.777344 13.882812 37.320312 14.382812 37.339844 14.402344 C 37.394531 14.453125 37.394531 14.53125 37.347656 14.582031 C 37.324219 14.609375 37.289062 14.625 37.253906 14.625 " fill-opacity="1" fill-rule="nonzero"/><path fill="#e27c6c" d="M 27.445312 31.097656 C 27.402344 31.097656 27.359375 31.078125 27.335938 31.035156 C 27.320312 31.007812 26.929688 30.3125 27.199219 29.347656 C 27.46875 28.378906 28.289062 27.511719 29.640625 26.765625 C 31.027344 25.996094 31.890625 25.042969 32.125 24.007812 C 32.304688 23.230469 32.070312 22.667969 32.070312 22.664062 C 32.039062 22.601562 32.070312 22.523438 32.136719 22.496094 C 32.199219 22.46875 32.273438 22.5 32.300781 22.5625 C 32.3125 22.589844 32.570312 23.191406 32.378906 24.046875 C 32.265625 24.546875 32.027344 25.027344 31.664062 25.476562 C 31.214844 26.03125 30.574219 26.539062 29.761719 26.988281 C 28.476562 27.699219 27.699219 28.511719 27.445312 29.410156 C 27.203125 30.269531 27.550781 30.902344 27.554688 30.910156 C 27.589844 30.96875 27.570312 31.046875 27.507812 31.082031 C 27.488281 31.09375 27.46875 31.097656 27.445312 31.097656 " fill-opacity="1" fill-rule="nonzero"/><path fill="#e27c6c" d="M 23.308594 24.488281 C 23.277344 24.488281 23.246094 24.476562 23.21875 24.449219 C 23.167969 24.402344 23.167969 24.320312 23.214844 24.273438 C 24.070312 23.382812 25.058594 23.351562 25.097656 23.351562 C 25.167969 23.351562 25.226562 23.40625 25.226562 23.476562 C 25.230469 23.546875 25.175781 23.605469 25.105469 23.605469 C 25.09375 23.605469 24.175781 23.640625 23.398438 24.449219 C 23.375 24.472656 23.339844 24.488281 23.308594 24.488281 " fill-opacity="1" fill-rule="nonzero"/><path fill="#e27c6c" d="M 29.316406 39.730469 C 29.253906 39.730469 29.199219 39.679688 29.191406 39.617188 C 29.074219 38.601562 29.160156 37.605469 29.453125 36.648438 C 29.683594 35.886719 30.046875 35.152344 30.527344 34.464844 C 31.34375 33.292969 32.210938 32.675781 32.246094 32.648438 C 32.304688 32.609375 32.382812 32.621094 32.425781 32.679688 C 32.464844 32.738281 32.453125 32.816406 32.394531 32.855469 C 32.382812 32.863281 31.519531 33.484375 30.726562 34.617188 C 30 35.664062 29.1875 37.371094 29.445312 39.585938 C 29.453125 39.65625 29.402344 39.71875 29.332031 39.726562 C 29.328125 39.726562 29.324219 39.730469 29.316406 39.730469 " fill-opacity="1" fill-rule="nonzero"/><path fill="#e27c6c" d="M 31.40625 41.71875 C 31.347656 41.71875 31.296875 41.679688 31.285156 41.625 C 30.921875 40.148438 32.175781 38.800781 32.230469 38.746094 C 32.277344 38.695312 32.355469 38.691406 32.410156 38.738281 C 32.460938 38.789062 32.460938 38.867188 32.414062 38.917969 C 32.402344 38.933594 31.203125 40.222656 31.53125 41.5625 C 31.546875 41.632812 31.503906 41.699219 31.4375 41.714844 C 31.425781 41.71875 31.417969 41.71875 31.40625 41.71875 " fill-opacity="1" fill-rule="nonzero"/><path fill="#653134" d="M 55.917969 25.058594 C 55.917969 25.058594 55.113281 19.605469 50.007812 16.84375 C 44.902344 14.082031 41.003906 13.253906 39.316406 11.875 C 37.625 10.492188 34.9375 3.863281 40.25 3.3125 C 45.5625 2.757812 51.808594 6.628906 55.917969 12.703125 C 60.585938 19.59375 57.804688 25.058594 57.804688 25.058594 L 55.917969 25.058594 " fill-opacity="1" fill-rule="nonzero"/><path fill="#fdbda0" d="M 55.460938 25.449219 C 55.460938 25.449219 57.023438 22.550781 58.542969 23.011719 C 60.058594 23.472656 58.632812 31.15625 56.515625 31.292969 C 54.402344 31.433594 54.722656 29.636719 54.722656 29.636719 L 55.460938 25.449219 " fill-opacity="1" fill-rule="nonzero"/><path fill="#653134" d="M 37.273438 5.589844 C 37.273438 5.589844 37.445312 2.210938 40.039062 0.324219 C 40.039062 0.324219 39.703125 2.367188 40.957031 3.15625 C 40.957031 3.15625 43.855469 0.71875 46.414062 1.109375 C 46.414062 1.109375 44.875 3.074219 45.351562 4.097656 C 45.351562 4.097656 48.652344 3.15625 51.71875 4.253906 C 51.71875 4.253906 49.519531 5.667969 50.148438 6.613281 C 50.148438 6.613281 53.679688 7.160156 55.917969 8.890625 C 55.917969 8.890625 53.132812 8.578125 52.425781 9.285156 L 37.273438 5.589844 " fill-opacity="1" fill-rule="nonzero"/><path fill="#653134" d="M 54.289062 10.582031 C 54.289062 10.582031 57.285156 12.230469 59.171875 18.832031 C 59.171875 18.832031 57.371094 16.828125 55.917969 16.589844 L 54.289062 10.582031 " fill-opacity="1" fill-rule="nonzero"/><path fill="#e5e5e5" d="M 19.167969 25.449219 C 19.167969 25.449219 19.257812 18.90625 24.363281 16.144531 C 29.46875 13.382812 33.367188 12.554688 35.058594 11.175781 C 36.75 9.792969 39.433594 3.164062 34.121094 2.613281 C 28.808594 2.0625 22.566406 5.929688 18.453125 12.003906 C 13.789062 18.894531 16.566406 24.359375 16.566406 24.359375 L 19.167969 25.449219 " fill-opacity="1" fill-rule="nonzero"/><path fill="#e5e5e5" d="M 37.101562 4.890625 C 37.101562 4.890625 36.929688 1.511719 34.335938 -0.375 C 34.335938 -0.375 34.671875 1.667969 33.414062 2.457031 C 33.414062 2.457031 30.515625 0.0195312 27.960938 0.414062 C 27.960938 0.414062 29.496094 2.378906 29.023438 3.398438 C 29.023438 3.398438 25.71875 2.457031 22.65625 3.554688 C 22.65625 3.554688 24.855469 4.96875 24.226562 5.914062 C 24.226562 5.914062 20.691406 6.460938 18.453125 8.191406 C 18.453125 8.191406 21.242188 7.878906 21.949219 8.585938 L 37.101562 4.890625 " fill-opacity="1" fill-rule="nonzero"/><path fill="#e5e5e5" d="M 20.082031 9.882812 C 20.082031 9.882812 17.089844 11.53125 15.199219 18.132812 C 15.199219 18.132812 17 16.128906 18.453125 15.890625 L 20.082031 9.882812 " fill-opacity="1" fill-rule="nonzero"/><path fill="#653134" d="M 27.617188 24.359375 C 27.617188 24.945312 28.09375 25.421875 28.679688 25.421875 C 29.265625 25.421875 29.738281 24.945312 29.738281 24.359375 C 29.738281 23.773438 29.265625 23.296875 28.679688 23.296875 C 28.09375 23.296875 27.617188 23.773438 27.617188 24.359375 " fill-opacity="1" fill-rule="nonzero"/><path fill="#f5f4fb" d="M 30.945312 23.851562 C 30.945312 23.851562 28.738281 22.503906 25.53125 23.691406 L 30.945312 23.851562 " fill-opacity="1" fill-rule="nonzero"/><path fill="#f5f4fb" d="M 31.9375 20.375 C 31.9375 20.375 31.914062 22.242188 31.636719 22.492188 C 31.359375 22.738281 29.050781 20.34375 27.617188 20.683594 C 26.1875 21.027344 24.070312 22.335938 24.070312 22.335938 C 24.070312 22.335938 24.875 20.5625 26.09375 19.96875 C 27.3125 19.378906 29.519531 18.566406 31.9375 20.375 " fill-opacity="1" fill-rule="nonzero"/><path fill="#efac92" d="M 19.394531 31.023438 C 19.125 31.214844 18.71875 31.335938 18.109375 31.292969 C 15.996094 31.15625 14.570312 23.472656 16.085938 23.011719 C 17.394531 22.613281 18.734375 24.707031 19.082031 25.296875 C 19.136719 25.394531 19.167969 25.449219 19.167969 25.449219 L 19.90625 29.636719 C 19.90625 29.636719 20.066406 30.550781 19.394531 31.023438 " fill-opacity="1" fill-rule="nonzero"/><path fill="#f5f4fb" d="M 37.382812 33.25 L 37.382812 35.207031 C 37.382812 35.207031 32.917969 35.007812 31.121094 37.644531 C 31.121094 37.644531 30.972656 36.257812 32.0625 35.207031 C 33.152344 34.152344 33.507812 33.625 33.507812 33.625 L 35.015625 34.152344 L 35.921875 33.25 L 37.382812 33.25 " fill-opacity="1" fill-rule="nonzero"/><path fill="#653134" d="M 37.382812 33.25 L 37.382812 35.207031 C 37.382812 35.207031 41.847656 35.007812 43.644531 37.644531 C 43.644531 37.644531 43.792969 36.257812 42.703125 35.207031 C 41.613281 34.152344 41.257812 33.625 41.257812 33.625 L 39.75 34.152344 L 38.84375 33.25 L 37.382812 33.25 " fill-opacity="1" fill-rule="nonzero"/><g clip-path="url(#75a9a15e1c)"><path fill="#efac92" d="M 37.382812 75.375 L 12.488281 75.375 C 12.488281 67.117188 19.179688 60.425781 27.429688 60.425781 L 37.382812 60.425781 L 37.382812 75.375 " fill-opacity="1" fill-rule="nonzero"/></g><g clip-path="url(#c206171052)"><path fill="#fdbda0" d="M 62.730469 75.375 L 37.382812 75.375 L 37.382812 60.425781 L 47.789062 60.425781 C 56.039062 60.425781 62.730469 67.117188 62.730469 75.375 " fill-opacity="1" fill-rule="nonzero"/></g></svg>