<svg xmlns="http://www.w3.org/2000/svg" xmlns:xlink="http://www.w3.org/1999/xlink" width="500" zoomAndPan="magnify" viewBox="0 0 375 322.499991" height="430" preserveAspectRatio="xMidYMid meet" version="1.0"><defs><clipPath id="4a88b7a21c"><path d="M 29.117188 0 L 183 0 L 183 166 L 29.117188 166 Z M 29.117188 0 " clip-rule="nonzero"/></clipPath><clipPath id="e7f79667a2"><path d="M 192 0 L 345.875 0 L 345.875 166 L 192 166 Z M 192 0 " clip-rule="nonzero"/></clipPath></defs><g clip-path="url(#4a88b7a21c)"><path fill="#495867" d="M 182.035156 165.640625 L 182.035156 0.121094 L 179.675781 1.753906 C 138.535156 30.234375 89.691406 56.414062 39.65625 56.414062 L 29.117188 56.414062 L 29.117188 93.519531 C 29.117188 118.367188 32.902344 142.621094 39.984375 165.640625 Z M 182.035156 165.640625 " fill-opacity="1" fill-rule="nonzero"/></g><g clip-path="url(#e7f79667a2)"><path fill="#bdd5ea" d="M 192.957031 165.640625 L 335.328125 165.640625 C 342.195312 142.972656 345.875 119.078125 345.875 94.558594 L 345.875 56.414062 L 335.335938 56.414062 C 285.296875 56.414062 236.457031 30.234375 195.316406 1.753906 L 192.957031 0.121094 Z M 192.957031 165.640625 " fill-opacity="1" fill-rule="nonzero"/></g><path fill="#bdd5ea" d="M 182.035156 176.566406 L 43.609375 176.566406 C 65.007812 236.035156 108.960938 286.109375 167.835938 314.53125 L 182.035156 321.382812 Z M 182.035156 176.566406 " fill-opacity="1" fill-rule="nonzero"/><path fill="#495867" d="M 192.957031 176.566406 L 192.957031 321.828125 C 258.929688 294.988281 308.75 241.46875 331.769531 176.566406 Z M 192.957031 176.566406 " fill-opacity="1" fill-rule="nonzero"/><path fill="#cccccc" d="M 258.492188 209.332031 C 258.492188 209.871094 258.464844 210.40625 258.414062 210.9375 C 258.363281 211.472656 258.28125 212.003906 258.179688 212.53125 C 258.074219 213.054688 257.941406 213.574219 257.789062 214.089844 C 257.632812 214.601562 257.449219 215.109375 257.246094 215.601562 C 257.039062 216.097656 256.8125 216.582031 256.558594 217.058594 C 256.304688 217.53125 256.03125 217.988281 255.730469 218.4375 C 255.433594 218.882812 255.113281 219.3125 254.773438 219.726562 C 254.433594 220.140625 254.074219 220.539062 253.695312 220.917969 C 253.316406 221.296875 252.917969 221.65625 252.503906 222 C 252.089844 222.339844 251.65625 222.65625 251.210938 222.957031 C 250.765625 223.253906 250.304688 223.53125 249.832031 223.78125 C 249.359375 224.035156 248.875 224.265625 248.378906 224.46875 C 247.882812 224.675781 247.378906 224.855469 246.863281 225.011719 C 246.351562 225.167969 245.832031 225.296875 245.304688 225.402344 C 244.777344 225.507812 244.25 225.585938 243.714844 225.636719 C 243.179688 225.691406 242.644531 225.71875 242.109375 225.71875 C 241.574219 225.71875 241.035156 225.691406 240.503906 225.636719 C 239.96875 225.585938 239.4375 225.507812 238.914062 225.402344 C 238.386719 225.296875 237.867188 225.167969 237.351562 225.011719 C 236.839844 224.855469 236.335938 224.675781 235.839844 224.46875 C 235.34375 224.265625 234.859375 224.035156 234.386719 223.78125 C 233.914062 223.53125 233.453125 223.253906 233.007812 222.957031 C 232.558594 222.65625 232.128906 222.339844 231.714844 222 C 231.300781 221.65625 230.902344 221.296875 230.523438 220.917969 C 230.144531 220.539062 229.785156 220.140625 229.445312 219.726562 C 229.101562 219.3125 228.785156 218.882812 228.484375 218.4375 C 228.1875 217.988281 227.914062 217.53125 227.660156 217.058594 C 227.40625 216.582031 227.175781 216.097656 226.972656 215.601562 C 226.765625 215.109375 226.585938 214.601562 226.429688 214.089844 C 226.273438 213.574219 226.144531 213.054688 226.039062 212.53125 C 225.933594 212.003906 225.855469 211.472656 225.804688 210.9375 C 225.75 210.40625 225.726562 209.871094 225.726562 209.332031 C 225.726562 208.796875 225.75 208.261719 225.804688 207.726562 C 225.855469 207.195312 225.933594 206.664062 226.039062 206.136719 C 226.144531 205.609375 226.273438 205.089844 226.429688 204.578125 C 226.585938 204.0625 226.765625 203.558594 226.972656 203.0625 C 227.175781 202.566406 227.40625 202.082031 227.660156 201.609375 C 227.914062 201.136719 228.1875 200.675781 228.484375 200.230469 C 228.785156 199.785156 229.101562 199.355469 229.445312 198.9375 C 229.785156 198.523438 230.144531 198.128906 230.523438 197.75 C 230.902344 197.367188 231.300781 197.007812 231.714844 196.667969 C 232.128906 196.328125 232.558594 196.007812 233.007812 195.710938 C 233.453125 195.414062 233.914062 195.136719 234.386719 194.882812 C 234.859375 194.632812 235.34375 194.402344 235.839844 194.195312 C 236.335938 193.992188 236.839844 193.8125 237.351562 193.65625 C 237.867188 193.5 238.386719 193.367188 238.914062 193.265625 C 239.4375 193.160156 239.96875 193.082031 240.503906 193.027344 C 241.035156 192.976562 241.574219 192.949219 242.109375 192.949219 C 242.644531 192.949219 243.179688 192.976562 243.714844 193.027344 C 244.25 193.082031 244.777344 193.160156 245.304688 193.265625 C 245.832031 193.367188 246.351562 193.5 246.863281 193.65625 C 247.378906 193.8125 247.882812 193.992188 248.378906 194.195312 C 248.875 194.402344 249.359375 194.632812 249.832031 194.882812 C 250.304688 195.136719 250.765625 195.414062 251.210938 195.710938 C 251.65625 196.007812 252.089844 196.328125 252.503906 196.667969 C 252.917969 197.007812 253.316406 197.367188 253.695312 197.75 C 254.074219 198.128906 254.433594 198.523438 254.773438 198.9375 C 255.113281 199.355469 255.433594 199.785156 255.730469 200.230469 C 256.03125 200.675781 256.304688 201.136719 256.558594 201.609375 C 256.8125 202.082031 257.039062 202.566406 257.246094 203.0625 C 257.449219 203.558594 257.632812 204.0625 257.789062 204.578125 C 257.941406 205.089844 258.074219 205.609375 258.179688 206.136719 C 258.28125 206.664062 258.363281 207.195312 258.414062 207.726562 C 258.464844 208.261719 258.492188 208.796875 258.492188 209.332031 Z M 258.492188 209.332031 " fill-opacity="1" fill-rule="nonzero"/><path fill="#cccccc" d="M 247.570312 225.71875 L 236.648438 225.71875 C 224.582031 225.71875 214.800781 235.5 214.800781 247.5625 L 214.800781 258.484375 L 269.414062 258.484375 L 269.414062 247.5625 C 269.414062 235.5 259.632812 225.71875 247.570312 225.71875 Z M 247.570312 225.71875 " fill-opacity="1" fill-rule="nonzero"/><path fill="#ef486f" d="M 275.816406 79.199219 L 268.09375 86.921875 L 260.371094 79.199219 C 251.839844 70.667969 238.007812 70.667969 229.476562 79.199219 C 220.945312 87.730469 220.945312 101.5625 229.476562 110.09375 L 268.09375 148.710938 L 306.710938 110.09375 C 315.242188 101.5625 315.242188 87.730469 306.710938 79.199219 C 298.175781 70.664062 284.347656 70.664062 275.816406 79.199219 Z M 275.816406 79.199219 " fill-opacity="1" fill-rule="nonzero"/><path fill="#495867" d="M 274.878906 121.398438 C 273.480469 121.398438 272.082031 120.863281 271.015625 119.800781 L 258.492188 107.277344 L 251.429688 114.339844 C 250.40625 115.367188 249.015625 115.9375 247.570312 115.9375 L 214.800781 115.9375 L 214.800781 105.015625 L 245.308594 105.015625 L 254.632812 95.695312 C 256.765625 93.558594 260.21875 93.558594 262.355469 95.695312 L 274.878906 108.214844 L 281.9375 101.15625 C 282.964844 100.128906 284.351562 99.554688 285.800781 99.554688 L 324.027344 99.554688 L 324.027344 110.476562 L 288.0625 110.476562 L 278.738281 119.800781 C 277.671875 120.871094 276.273438 121.398438 274.878906 121.398438 Z M 274.878906 121.398438 " fill-opacity="1" fill-rule="nonzero"/><path fill="#495867" d="M 154.726562 214.792969 L 154.726562 198.410156 L 143.804688 198.410156 L 143.804688 203.871094 L 132.882812 192.949219 L 100.113281 225.71875 L 111.035156 225.71875 L 111.035156 258.484375 L 154.726562 258.484375 L 154.726562 225.71875 L 165.648438 225.71875 Z M 154.726562 214.792969 " fill-opacity="1" fill-rule="nonzero"/><path fill="#ef486f" d="M 161.144531 105.675781 L 142.347656 101.554688 L 126.640625 79.859375 C 125.550781 78.835938 124.078125 78.261719 122.539062 78.261719 L 87.226562 78.261719 C 85.402344 78.261719 83.679688 79.070312 82.582031 80.445312 L 66.914062 100.105469 L 50.960938 111.027344 L 50.960938 132.875 L 171.109375 132.875 L 171.109375 116.492188 C 171.109375 111.054688 166.863281 106.445312 161.144531 105.675781 Z M 161.144531 105.675781 " fill-opacity="1" fill-rule="nonzero"/><path fill="#7891ab" d="M 149.265625 132.875 C 149.265625 133.769531 149.179688 134.660156 149.003906 135.539062 C 148.828125 136.417969 148.570312 137.269531 148.226562 138.097656 C 147.882812 138.925781 147.460938 139.714844 146.964844 140.460938 C 146.464844 141.207031 145.902344 141.894531 145.265625 142.527344 C 144.632812 143.164062 143.941406 143.730469 143.199219 144.226562 C 142.453125 144.726562 141.664062 145.144531 140.835938 145.488281 C 140.007812 145.832031 139.15625 146.089844 138.277344 146.265625 C 137.398438 146.441406 136.507812 146.527344 135.613281 146.527344 C 134.714844 146.527344 133.828125 146.441406 132.949219 146.265625 C 132.070312 146.089844 131.214844 145.832031 130.386719 145.488281 C 129.558594 145.144531 128.773438 144.726562 128.027344 144.226562 C 127.28125 143.730469 126.59375 143.164062 125.957031 142.527344 C 125.324219 141.894531 124.757812 141.207031 124.261719 140.460938 C 123.761719 139.714844 123.339844 138.925781 123 138.097656 C 122.65625 137.269531 122.394531 136.417969 122.222656 135.539062 C 122.046875 134.660156 121.957031 133.769531 121.960938 132.875 C 121.957031 131.976562 122.046875 131.089844 122.222656 130.210938 C 122.394531 129.332031 122.65625 128.476562 123 127.648438 C 123.339844 126.820312 123.761719 126.035156 124.261719 125.289062 C 124.757812 124.542969 125.324219 123.855469 125.957031 123.21875 C 126.59375 122.585938 127.28125 122.019531 128.027344 121.523438 C 128.773438 121.023438 129.558594 120.601562 130.386719 120.261719 C 131.214844 119.917969 132.070312 119.65625 132.949219 119.484375 C 133.828125 119.308594 134.714844 119.222656 135.613281 119.222656 C 136.507812 119.222656 137.398438 119.308594 138.277344 119.484375 C 139.15625 119.65625 140.007812 119.917969 140.835938 120.261719 C 141.664062 120.601562 142.453125 121.023438 143.199219 121.523438 C 143.941406 122.019531 144.632812 122.585938 145.265625 123.21875 C 145.902344 123.855469 146.464844 124.542969 146.964844 125.289062 C 147.460938 126.035156 147.882812 126.820312 148.226562 127.648438 C 148.570312 128.476562 148.828125 129.332031 149.003906 130.210938 C 149.179688 131.089844 149.265625 131.976562 149.265625 132.875 Z M 149.265625 132.875 " fill-opacity="1" fill-rule="nonzero"/><path fill="#7891ab" d="M 94.652344 132.875 C 94.652344 133.769531 94.566406 134.660156 94.390625 135.539062 C 94.214844 136.417969 93.957031 137.269531 93.613281 138.097656 C 93.269531 138.925781 92.847656 139.714844 92.351562 140.460938 C 91.851562 141.207031 91.289062 141.894531 90.652344 142.527344 C 90.019531 143.164062 89.328125 143.730469 88.585938 144.226562 C 87.839844 144.726562 87.050781 145.144531 86.222656 145.488281 C 85.394531 145.832031 84.542969 146.089844 83.664062 146.265625 C 82.78125 146.441406 81.894531 146.527344 81 146.527344 C 80.101562 146.527344 79.214844 146.441406 78.335938 146.265625 C 77.457031 146.089844 76.601562 145.832031 75.773438 145.488281 C 74.945312 145.144531 74.160156 144.726562 73.414062 144.226562 C 72.667969 143.730469 71.976562 143.164062 71.34375 142.527344 C 70.710938 141.894531 70.144531 141.207031 69.644531 140.460938 C 69.148438 139.714844 68.726562 138.925781 68.382812 138.097656 C 68.042969 137.269531 67.78125 136.417969 67.609375 135.539062 C 67.433594 134.660156 67.34375 133.769531 67.34375 132.875 C 67.34375 131.976562 67.433594 131.089844 67.609375 130.210938 C 67.78125 129.332031 68.042969 128.476562 68.382812 127.648438 C 68.726562 126.820312 69.148438 126.035156 69.644531 125.289062 C 70.144531 124.542969 70.710938 123.855469 71.34375 123.21875 C 71.976562 122.585938 72.667969 122.019531 73.414062 121.523438 C 74.160156 121.023438 74.945312 120.601562 75.773438 120.261719 C 76.601562 119.917969 77.457031 119.65625 78.335938 119.484375 C 79.214844 119.308594 80.101562 119.222656 81 119.222656 C 81.894531 119.222656 82.78125 119.308594 83.664062 119.484375 C 84.542969 119.65625 85.394531 119.917969 86.222656 120.261719 C 87.050781 120.601562 87.839844 121.023438 88.585938 121.523438 C 89.328125 122.019531 90.019531 122.585938 90.652344 123.21875 C 91.289062 123.855469 91.851562 124.542969 92.351562 125.289062 C 92.847656 126.035156 93.269531 126.820312 93.613281 127.648438 C 93.957031 128.476562 94.214844 129.332031 94.390625 130.210938 C 94.566406 131.089844 94.652344 131.976562 94.652344 132.875 Z M 94.652344 132.875 " fill-opacity="1" fill-rule="nonzero"/><path fill="#bdd5ea" d="M 87.226562 78.261719 C 85.402344 78.261719 83.679688 79.070312 82.582031 80.445312 L 66.914062 100.105469 L 100.113281 100.105469 L 100.113281 78.261719 Z M 87.226562 78.261719 " fill-opacity="1" fill-rule="nonzero"/><path fill="#bdd5ea" d="M 126.644531 79.859375 C 125.550781 78.835938 124.078125 78.261719 122.539062 78.261719 L 105.574219 78.261719 L 105.574219 100.105469 L 141.304688 100.105469 Z M 126.644531 79.859375 " fill-opacity="1" fill-rule="nonzero"/></svg>