<svg xmlns="http://www.w3.org/2000/svg" xmlns:xlink="http://www.w3.org/1999/xlink" width="500" zoomAndPan="magnify" viewBox="0 0 375 322.499991" height="430" preserveAspectRatio="xMidYMid meet" version="1.0"><defs><clipPath id="989c6c2a37"><path d="M 257 241 L 346.914062 241 L 346.914062 307 L 257 307 Z M 257 241 " clip-rule="nonzero"/></clipPath><clipPath id="43cfed8b26"><path d="M 214 218 L 346.914062 218 L 346.914062 296 L 214 296 Z M 214 218 " clip-rule="nonzero"/></clipPath></defs><path fill="#4f575f" d="M 247.082031 318.3125 L 213.679688 299.019531 C 210.808594 297.355469 210.851562 294.410156 213.652344 292.78125 L 300.769531 242.125 C 303.320312 240.644531 307.324219 240.640625 309.890625 242.125 L 343.285156 261.417969 C 346.152344 263.074219 346.167969 266.011719 343.328125 267.664062 L 256.210938 318.320312 C 253.664062 319.796875 249.660156 319.796875 247.082031 318.3125 Z M 301.605469 243.5625 L 214.488281 294.214844 C 212.773438 295.210938 212.777344 296.578125 214.507812 297.582031 L 247.910156 316.875 C 249.945312 318.046875 253.367188 318.054688 255.375 316.882812 L 342.492188 266.226562 C 344.222656 265.226562 344.207031 263.863281 342.457031 262.855469 L 309.058594 243.558594 C 307.027344 242.386719 303.605469 242.394531 301.605469 243.5625 Z M 301.605469 243.5625 " fill-opacity="1" fill-rule="nonzero"/><path fill="#ebeef4" d="M 171.410156 308.609375 C 148.332031 322.011719 111.207031 321.757812 88.863281 308.863281 C 65.640625 295.433594 65.527344 274.1875 88.609375 260.757812 C 111.667969 247.355469 148.792969 247.101562 172.011719 260.503906 C 194.355469 273.425781 194.492188 295.179688 171.410156 308.609375 Z M 171.410156 308.609375 " fill-opacity="1" fill-rule="nonzero"/><path fill="#ff6161" d="M 129.21875 281.65625 L 90.671875 259.390625 C 89.566406 258.75 89.570312 257.15625 90.667969 256.519531 L 128.957031 234.257812 C 129.464844 233.957031 130.105469 233.957031 130.617188 234.253906 L 169.164062 256.519531 C 170.273438 257.160156 170.265625 258.753906 169.167969 259.390625 L 130.882812 281.65625 C 130.375 281.953125 129.738281 281.957031 129.21875 281.65625 Z M 94.808594 257.949219 L 130.046875 278.300781 L 165.027344 257.960938 L 129.792969 237.609375 Z M 94.808594 257.949219 " fill-opacity="1" fill-rule="nonzero"/><path fill="#e22525" d="M 129.21875 254.789062 L 90.671875 232.523438 C 89.566406 231.878906 89.570312 230.285156 90.667969 229.648438 L 128.957031 207.386719 C 129.464844 207.085938 130.105469 207.085938 130.617188 207.382812 L 169.164062 229.652344 C 169.675781 229.949219 169.996094 230.492188 169.996094 231.085938 C 169.996094 231.679688 169.679688 232.226562 169.167969 232.523438 L 130.882812 254.785156 C 130.375 255.082031 129.738281 255.085938 129.21875 254.789062 Z M 94.808594 231.078125 L 130.046875 251.433594 L 165.023438 231.09375 L 129.792969 210.738281 Z M 94.808594 231.078125 " fill-opacity="1" fill-rule="nonzero"/><path fill="#ff6161" d="M 129.21875 227.921875 L 90.671875 205.652344 C 90.160156 205.355469 89.84375 204.808594 89.84375 204.214844 C 89.84375 203.625 90.15625 203.078125 90.667969 202.78125 L 128.957031 180.515625 C 129.464844 180.21875 130.105469 180.21875 130.617188 180.515625 L 169.164062 202.78125 C 170.273438 203.421875 170.265625 205.015625 169.167969 205.652344 L 130.882812 227.917969 C 130.375 228.214844 129.738281 228.21875 129.21875 227.921875 Z M 94.808594 204.210938 L 130.046875 224.566406 L 165.027344 204.222656 L 129.792969 183.867188 Z M 94.808594 204.210938 " fill-opacity="1" fill-rule="nonzero"/><path fill="#e22525" d="M 129.21875 201.050781 L 90.671875 178.78125 C 89.566406 178.140625 89.570312 176.546875 90.667969 175.910156 L 128.957031 153.648438 C 129.464844 153.347656 130.105469 153.347656 130.617188 153.644531 L 169.164062 175.910156 C 170.273438 176.554688 170.265625 178.148438 169.167969 178.785156 L 130.882812 201.046875 C 130.375 201.34375 129.738281 201.347656 129.21875 201.050781 Z M 94.8125 177.339844 L 130.046875 197.695312 L 165.027344 177.355469 L 129.792969 157 Z M 94.8125 177.339844 " fill-opacity="1" fill-rule="nonzero"/><path fill="#ff6161" d="M 129.21875 174.179688 L 90.671875 151.914062 C 89.566406 151.273438 89.570312 149.679688 90.667969 149.042969 L 128.957031 126.78125 C 129.464844 126.480469 130.105469 126.480469 130.617188 126.777344 L 169.164062 149.042969 C 170.273438 149.683594 170.265625 151.277344 169.167969 151.914062 L 130.882812 174.175781 C 130.375 174.476562 129.738281 174.480469 129.21875 174.179688 Z M 94.808594 150.472656 L 130.046875 170.824219 L 165.027344 150.484375 L 129.792969 130.132812 Z M 94.808594 150.472656 " fill-opacity="1" fill-rule="nonzero"/><path fill="#e22525" d="M 129.21875 147.3125 L 90.671875 125.046875 C 89.566406 124.402344 89.570312 122.808594 90.667969 122.171875 L 128.957031 99.910156 C 129.464844 99.609375 130.105469 99.609375 130.617188 99.90625 L 169.164062 122.175781 C 170.273438 122.816406 170.265625 124.410156 169.167969 125.046875 L 130.882812 147.308594 C 130.375 147.605469 129.738281 147.609375 129.21875 147.3125 Z M 94.808594 123.601562 L 130.046875 143.957031 L 165.023438 123.617188 L 129.792969 103.261719 Z M 94.808594 123.601562 " fill-opacity="1" fill-rule="nonzero"/><path fill="#2a3134" d="M 136.449219 302.066406 L 136.449219 304.933594 C 136.445312 305.886719 135.824219 306.847656 134.5625 307.582031 C 130.589844 309.890625 123.660156 308.269531 123.667969 304.972656 L 123.667969 302.105469 C 123.667969 303.054688 124.300781 304.007812 125.574219 304.742188 C 129.464844 306.988281 136.441406 305.429688 136.449219 302.066406 Z M 136.449219 302.066406 " fill-opacity="1" fill-rule="nonzero"/><path fill="#4f575f" d="M 134.628906 299.476562 C 137.0625 300.882812 137.074219 303.253906 134.5625 304.714844 C 132.050781 306.175781 128.007812 306.148438 125.574219 304.742188 C 123.046875 303.28125 123.035156 300.964844 125.546875 299.503906 C 128.058594 298.046875 132.097656 298.015625 134.628906 299.476562 Z M 134.628906 299.476562 " fill-opacity="1" fill-rule="nonzero"/><path fill="#ff6161" d="M 126.371094 203.160156 L 126.230469 301.445312 C 126.226562 301.988281 126.582031 302.53125 127.292969 302.941406 C 129.5625 304.253906 133.460938 303.253906 133.464844 301.433594 L 133.609375 203.160156 Z M 126.371094 203.160156 " fill-opacity="1" fill-rule="nonzero"/><path fill="#dbe6fa" d="M 133.667969 111.539062 L 133.5625 233.582031 C 133.5625 234.109375 133.203125 234.644531 132.476562 235.066406 C 130.273438 236.347656 126.324219 235.519531 126.328125 233.59375 L 126.429688 111.550781 C 126.429688 112.09375 126.785156 112.636719 127.496094 113.046875 C 129.757812 114.355469 133.660156 113.363281 133.667969 111.539062 Z M 133.667969 111.539062 " fill-opacity="1" fill-rule="nonzero"/><path fill="#2a3134" d="M 172.933594 280.957031 L 172.933594 283.824219 C 172.929688 284.777344 172.308594 285.738281 171.046875 286.472656 C 167.074219 288.78125 160.144531 287.160156 160.15625 283.863281 L 160.152344 280.996094 C 160.152344 281.949219 160.785156 282.898438 162.058594 283.632812 C 165.949219 285.882812 172.925781 284.320312 172.933594 280.957031 Z M 172.933594 280.957031 " fill-opacity="1" fill-rule="nonzero"/><path fill="#4f575f" d="M 171.113281 278.371094 C 173.546875 279.773438 173.558594 282.144531 171.046875 283.605469 C 168.535156 285.066406 164.492188 285.039062 162.058594 283.632812 C 159.53125 282.171875 159.519531 279.859375 162.03125 278.398438 C 164.542969 276.9375 168.585938 276.910156 171.113281 278.371094 Z M 171.113281 278.371094 " fill-opacity="1" fill-rule="nonzero"/><path fill="#ff6161" d="M 162.828125 203.160156 L 162.714844 280.339844 C 162.710938 280.878906 163.066406 281.421875 163.78125 281.835938 C 166.042969 283.140625 169.945312 282.148438 169.949219 280.324219 L 170.0625 203.160156 Z M 162.828125 203.160156 " fill-opacity="1" fill-rule="nonzero"/><path fill="#dbe6fa" d="M 170.152344 82.855469 L 170.046875 212.472656 C 170.046875 213.003906 169.6875 213.535156 168.960938 213.957031 C 166.757812 215.238281 162.808594 214.414062 162.8125 212.484375 L 162.914062 82.871094 C 162.914062 83.410156 163.269531 83.953125 163.980469 84.367188 C 166.242188 85.671875 170.144531 84.679688 170.152344 82.855469 Z M 170.152344 82.855469 " fill-opacity="1" fill-rule="nonzero"/><path fill="#2a3134" d="M 100.09375 281.027344 L 100.09375 283.894531 C 100.089844 284.847656 99.464844 285.808594 98.207031 286.539062 C 94.234375 288.851562 87.304688 287.226562 87.3125 283.933594 L 87.3125 281.066406 C 87.3125 282.015625 87.945312 282.96875 89.21875 283.703125 C 91.652344 285.109375 95.695312 285.136719 98.207031 283.675781 C 99.464844 282.941406 100.089844 281.980469 100.09375 281.027344 Z M 100.09375 281.027344 " fill-opacity="1" fill-rule="nonzero"/><path fill="#4f575f" d="M 98.273438 278.4375 C 100.707031 279.84375 100.71875 282.214844 98.207031 283.675781 C 95.695312 285.136719 91.652344 285.109375 89.21875 283.703125 C 86.691406 282.242188 86.675781 279.925781 89.191406 278.464844 C 91.703125 277.003906 95.742188 276.976562 98.273438 278.4375 Z M 98.273438 278.4375 " fill-opacity="1" fill-rule="nonzero"/><path fill="#ff6161" d="M 89.984375 203.160156 L 89.875 280.40625 C 89.871094 280.949219 90.226562 281.492188 90.9375 281.902344 C 93.203125 283.210938 97.101562 282.214844 97.109375 280.394531 L 97.222656 203.160156 Z M 89.984375 203.160156 " fill-opacity="1" fill-rule="nonzero"/><path fill="#dbe6fa" d="M 97.308594 82.925781 L 97.207031 212.539062 C 97.207031 213.070312 96.847656 213.605469 96.121094 214.023438 C 94.714844 214.84375 92.453125 214.867188 91.039062 214.050781 C 90.328125 213.640625 89.972656 213.097656 89.972656 212.554688 L 90.074219 82.9375 C 90.074219 83.480469 90.429688 84.023438 91.140625 84.433594 C 93.402344 85.742188 97.304688 84.746094 97.308594 82.925781 Z M 97.308594 82.925781 " fill-opacity="1" fill-rule="nonzero"/><path fill="#cbdbf4" d="M 172.742188 81.75 L 172.742188 88.652344 C 172.722656 95.035156 168.546875 101.464844 160.117188 106.367188 C 143.3125 116.136719 116.273438 115.953125 99.996094 106.550781 C 91.484375 101.632812 87.234375 95.269531 87.253906 88.917969 L 87.253906 82.011719 C 87.234375 88.367188 91.484375 94.730469 99.996094 99.644531 C 116.273438 109.046875 143.3125 109.234375 160.117188 99.460938 C 168.546875 94.5625 172.722656 88.128906 172.742188 81.75 Z M 172.742188 81.75 " fill-opacity="1" fill-rule="nonzero"/><path fill="#dbe6fa" d="M 160.554688 64.433594 C 176.832031 73.835938 176.921875 89.691406 160.117188 99.460938 C 143.3125 109.234375 116.273438 109.046875 99.996094 99.644531 C 83.082031 89.875 82.996094 74.386719 99.796875 64.617188 C 116.601562 54.847656 143.640625 54.660156 160.554688 64.433594 Z M 160.554688 64.433594 " fill-opacity="1" fill-rule="nonzero"/><path fill="#4f91ff" d="M 152.214844 50.5 C 152.214844 54.152344 150.917969 56.753906 148.804688 57.96875 L 142.191406 61.785156 C 144.304688 60.570312 145.601562 58.011719 145.601562 54.355469 C 145.640625 46.925781 140.40625 37.914062 133.996094 34.21875 C 130.75 32.351562 127.828125 32.148438 125.71875 33.410156 L 132.332031 29.550781 C 134.441406 28.332031 137.363281 28.496094 140.609375 30.363281 C 147.019531 34.058594 152.257812 43.113281 152.214844 50.5 Z M 152.214844 50.5 " fill-opacity="1" fill-rule="nonzero"/><path fill="#95e2fe" d="M 133.996094 34.214844 C 140.40625 37.917969 145.628906 46.9375 145.609375 54.339844 C 145.585938 61.710938 140.328125 64.707031 133.917969 61.007812 C 127.480469 57.285156 122.285156 48.25 122.304688 40.878906 C 122.328125 33.476562 127.554688 30.496094 133.996094 34.214844 Z M 133.996094 34.214844 " fill-opacity="1" fill-rule="nonzero"/><path fill="#ebf2ff" d="M 149.832031 68.492188 C 160.460938 74.628906 160.515625 84.558594 149.957031 90.699219 C 139.402344 96.835938 122.230469 96.859375 111.601562 90.722656 C 100.976562 84.582031 100.960938 74.628906 111.515625 68.492188 C 122.074219 62.351562 139.207031 62.351562 149.832031 68.492188 Z M 149.832031 68.492188 " fill-opacity="1" fill-rule="nonzero"/><path fill="#4f575f" d="M 130.550781 81.261719 C 129.632812 81.261719 128.890625 80.515625 128.890625 79.601562 L 128.890625 14.503906 C 128.890625 13.585938 129.632812 12.84375 130.550781 12.84375 C 131.46875 12.84375 132.210938 13.585938 132.210938 14.503906 L 132.210938 79.601562 C 132.210938 80.515625 131.46875 81.261719 130.550781 81.261719 Z M 130.550781 81.261719 " fill-opacity="1" fill-rule="nonzero"/><path fill="#4f91ff" d="M 138.988281 58.171875 C 138.988281 61.828125 137.6875 64.425781 135.578125 65.644531 L 128.964844 69.5 C 131.074219 68.28125 132.375 65.683594 132.375 62.03125 C 132.414062 54.640625 127.179688 45.585938 120.769531 41.894531 C 117.523438 40.027344 114.601562 39.863281 112.492188 41.082031 L 119.105469 37.226562 C 121.214844 36.007812 124.136719 36.167969 127.382812 38.078125 C 133.792969 41.773438 139.027344 50.785156 138.988281 58.171875 Z M 138.988281 58.171875 " fill-opacity="1" fill-rule="nonzero"/><path fill="#95e2fe" d="M 120.769531 41.90625 C 127.179688 45.609375 132.402344 54.628906 132.382812 62.03125 C 132.363281 69.398438 127.105469 72.398438 120.695312 68.695312 C 114.253906 64.976562 109.058594 55.9375 109.082031 48.570312 C 109.101562 41.167969 114.328125 38.183594 120.769531 41.90625 Z M 120.769531 41.90625 " fill-opacity="1" fill-rule="nonzero"/><path fill="#ff6161" d="M 140.046875 9.414062 C 140.046875 14.691406 135.828125 18.910156 130.554688 18.910156 C 125.28125 18.910156 121.0625 14.691406 121.0625 9.414062 C 121.0625 4.136719 125.28125 -0.0820312 130.554688 -0.0820312 C 135.828125 -0.0820312 140.046875 4.136719 140.046875 9.414062 Z M 140.046875 9.414062 " fill-opacity="1" fill-rule="nonzero"/><path fill="#cbdbf4" d="M 86.683594 121.746094 L 83.515625 122.394531 C 86.75 121.730469 90.277344 122.296875 93.730469 124.289062 L 96.898438 123.640625 C 93.449219 121.644531 89.917969 121.078125 86.683594 121.746094 Z M 86.683594 121.746094 " fill-opacity="1" fill-rule="nonzero"/><path fill="#bbcfef" d="M 93.265625 170.003906 L 96.433594 169.351562 C 102.117188 168.183594 106.902344 163.214844 108.78125 155.5 C 111.730469 143.402344 106.410156 129.132812 96.898438 123.640625 L 93.730469 124.289062 C 103.242188 129.785156 108.5625 144.054688 105.613281 156.152344 C 103.734375 163.867188 98.949219 168.835938 93.265625 170.003906 Z M 93.265625 170.003906 " fill-opacity="1" fill-rule="nonzero"/><path fill="#ebf2ff" d="M 93.730469 124.289062 C 84.210938 118.792969 74.113281 124.152344 71.164062 136.25 C 68.210938 148.359375 73.527344 162.609375 83.046875 168.109375 C 92.558594 173.601562 102.660156 168.257812 105.613281 156.152344 C 108.5625 144.054688 103.242188 129.785156 93.730469 124.289062 Z M 93.730469 124.289062 " fill-opacity="1" fill-rule="nonzero"/><path fill="#cbdbf4" d="M 95.367188 129.816406 C 88.25 125.707031 80.699219 129.714844 78.492188 138.761719 C 76.285156 147.8125 80.261719 158.46875 87.378906 162.582031 C 94.488281 166.691406 102.042969 162.695312 104.25 153.640625 C 106.457031 144.59375 102.476562 133.925781 95.367188 129.816406 Z M 95.367188 129.816406 " fill-opacity="1" fill-rule="nonzero"/><path fill="#bbcfef" d="M 99.449219 136.257812 C 95.464844 133.957031 91.234375 136.203125 90 141.265625 C 88.765625 146.335938 90.992188 152.304688 94.976562 154.605469 C 98.957031 156.90625 103.1875 154.667969 104.425781 149.597656 C 105.660156 144.535156 103.429688 138.558594 99.449219 136.257812 Z M 99.449219 136.257812 " fill-opacity="1" fill-rule="nonzero"/><path fill="#cbdbf4" d="M 182.171875 156.03125 L 185.339844 156.683594 C 182.105469 156.015625 178.578125 156.582031 175.125 158.578125 L 171.957031 157.925781 C 175.410156 155.929688 178.9375 155.363281 182.171875 156.03125 Z M 182.171875 156.03125 " fill-opacity="1" fill-rule="nonzero"/><path fill="#bbcfef" d="M 175.59375 204.289062 L 172.421875 203.636719 C 166.738281 202.46875 161.953125 197.5 160.074219 189.785156 C 157.125 177.6875 162.445312 163.417969 171.957031 157.925781 L 175.125 158.578125 C 165.617188 164.070312 160.292969 178.339844 163.242188 190.4375 C 165.125 198.152344 169.90625 203.121094 175.59375 204.289062 Z M 175.59375 204.289062 " fill-opacity="1" fill-rule="nonzero"/><path fill="#ebf2ff" d="M 175.125 158.578125 C 184.644531 153.078125 194.742188 158.4375 197.691406 170.535156 C 200.644531 182.644531 195.328125 196.894531 185.808594 202.394531 C 176.300781 207.890625 166.195312 202.542969 163.242188 190.4375 C 160.292969 178.339844 165.617188 164.070312 175.125 158.578125 Z M 175.125 158.578125 " fill-opacity="1" fill-rule="nonzero"/><path fill="#cbdbf4" d="M 173.492188 164.105469 C 180.609375 159.992188 188.160156 164 190.363281 173.046875 C 192.570312 182.097656 188.597656 192.757812 181.476562 196.867188 C 174.367188 200.976562 166.8125 196.980469 164.605469 187.925781 C 162.398438 178.882812 166.378906 168.210938 173.492188 164.105469 Z M 173.492188 164.105469 " fill-opacity="1" fill-rule="nonzero"/><path fill="#bbcfef" d="M 169.40625 170.542969 C 173.394531 168.242188 177.621094 170.488281 178.855469 175.550781 C 180.09375 180.621094 177.867188 186.589844 173.878906 188.890625 C 169.898438 191.191406 165.667969 188.953125 164.429688 183.882812 C 163.195312 178.820312 165.425781 172.84375 169.40625 170.542969 Z M 169.40625 170.542969 " fill-opacity="1" fill-rule="nonzero"/><path fill="#4f575f" d="M 218.195312 180.988281 L 172.832031 182.046875 C 172.617188 182.050781 172.386719 181.910156 172.21875 181.644531 C 171.898438 181.089844 171.863281 180.183594 172.164062 179.597656 C 172.339844 179.316406 172.542969 179.164062 172.757812 179.15625 L 218.121094 178.101562 C 217.464844 178.117188 217.003906 179.613281 217.605469 180.582031 C 217.777344 180.867188 217.980469 180.996094 218.195312 180.988281 Z M 218.195312 180.988281 " fill-opacity="1" fill-rule="nonzero"/><path fill="#ccd0d9" d="M 218.996094 179.527344 C 219 179.71875 218.984375 179.902344 218.945312 180.082031 C 218.90625 180.257812 218.851562 180.414062 218.777344 180.550781 C 218.699219 180.6875 218.613281 180.792969 218.511719 180.871094 C 218.414062 180.945312 218.308594 180.984375 218.195312 180.988281 C 218.085938 180.988281 217.980469 180.957031 217.875 180.886719 C 217.773438 180.8125 217.679688 180.710938 217.597656 180.578125 C 217.515625 180.445312 217.453125 180.292969 217.40625 180.117188 C 217.359375 179.941406 217.335938 179.757812 217.332031 179.566406 C 217.328125 179.375 217.34375 179.191406 217.382812 179.011719 C 217.417969 178.835938 217.476562 178.679688 217.550781 178.542969 C 217.625 178.40625 217.714844 178.300781 217.8125 178.222656 C 217.914062 178.148438 218.019531 178.109375 218.128906 178.105469 C 218.242188 178.105469 218.347656 178.136719 218.453125 178.207031 C 218.554688 178.28125 218.648438 178.382812 218.730469 178.515625 C 218.808594 178.648438 218.875 178.800781 218.921875 178.976562 C 218.964844 179.152344 218.992188 179.335938 218.996094 179.527344 Z M 218.996094 179.527344 " fill-opacity="1" fill-rule="nonzero"/><path fill="#ff6161" d="M 220.113281 177.875 C 221.0625 179.421875 220.566406 181.433594 219.035156 182.371094 C 217.503906 183.304688 215.492188 182.835938 214.542969 181.289062 C 213.605469 179.757812 214.09375 177.730469 215.625 176.796875 C 217.152344 175.859375 219.179688 176.34375 220.113281 177.875 Z M 220.113281 177.875 " fill-opacity="1" fill-rule="nonzero"/><path fill="#ff6161" d="M 200.410156 203.851562 C 194.007812 189.867188 196.105469 168.261719 205.089844 155.691406 C 214.285156 142.824219 227.347656 143.96875 233.933594 158.355469 C 240.335938 172.347656 238.234375 193.953125 229.253906 206.523438 C 219.976562 219.507812 206.925781 218.097656 200.410156 203.851562 Z M 206.4375 156.65625 C 197.765625 168.796875 195.738281 189.65625 201.917969 203.160156 C 208.011719 216.480469 219.523438 217.285156 227.90625 205.558594 C 236.582031 193.421875 238.605469 172.554688 232.421875 159.046875 C 226.410156 145.898438 214.929688 144.777344 206.4375 156.65625 Z M 206.4375 156.65625 " fill-opacity="1" fill-rule="nonzero"/><path fill="#ff6161" d="M 206.832031 194.863281 C 202.957031 186.390625 204.230469 173.308594 209.667969 165.695312 C 215.210938 157.945312 223.386719 158.339844 227.511719 167.347656 C 231.386719 175.820312 230.117188 188.90625 224.675781 196.519531 C 219.003906 204.457031 210.867188 203.675781 206.832031 194.863281 Z M 211.015625 166.664062 C 205.886719 173.84375 204.6875 186.183594 208.34375 194.171875 C 211.859375 201.867188 218.429688 202.40625 223.328125 195.550781 C 228.457031 188.375 229.65625 176.03125 226 168.039062 C 222.570312 160.535156 216.042969 159.625 211.015625 166.664062 Z M 211.015625 166.664062 " fill-opacity="1" fill-rule="nonzero"/><path fill="#ff6161" d="M 211.464844 188.386719 C 209.410156 183.890625 210.082031 176.949219 212.96875 172.910156 C 216.011719 168.644531 220.621094 168.894531 222.882812 173.828125 C 224.9375 178.320312 224.265625 185.265625 221.378906 189.308594 C 218.289062 193.628906 213.695312 193.253906 211.464844 188.386719 Z M 214.316406 173.875 C 211.738281 177.480469 211.136719 183.679688 212.972656 187.695312 C 213.785156 189.46875 214.941406 190.511719 216.234375 190.636719 C 220.773438 191.03125 224.296875 180.910156 221.371094 174.519531 C 219.679688 170.816406 216.660156 170.589844 214.316406 173.875 Z M 214.316406 173.875 " fill-opacity="1" fill-rule="nonzero"/><path fill="#4f575f" d="M 51.238281 152.714844 L 96.234375 146.828125 C 96.445312 146.800781 96.648438 146.625 96.777344 146.335938 C 97.007812 145.738281 96.902344 144.839844 96.519531 144.304688 C 96.304688 144.054688 96.078125 143.933594 95.867188 143.960938 L 50.871094 149.847656 C 51.085938 149.820312 51.308594 149.941406 51.5 150.210938 C 52.125 151 51.972656 152.621094 51.238281 152.714844 Z M 51.238281 152.714844 " fill-opacity="1" fill-rule="nonzero"/><path fill="#ccd0d9" d="M 51.875 151.175781 C 51.902344 151.363281 51.902344 151.550781 51.886719 151.730469 C 51.867188 151.910156 51.828125 152.074219 51.765625 152.21875 C 51.707031 152.363281 51.632812 152.476562 51.539062 152.5625 C 51.449219 152.648438 51.347656 152.699219 51.238281 152.710938 C 51.128906 152.726562 51.019531 152.703125 50.90625 152.644531 C 50.796875 152.585938 50.695312 152.496094 50.597656 152.371094 C 50.503906 152.246094 50.425781 152.101562 50.359375 151.929688 C 50.292969 151.761719 50.25 151.582031 50.226562 151.390625 C 50.199219 151.203125 50.199219 151.019531 50.214844 150.835938 C 50.234375 150.65625 50.273438 150.496094 50.335938 150.351562 C 50.394531 150.207031 50.46875 150.089844 50.5625 150.003906 C 50.652344 149.917969 50.753906 149.871094 50.863281 149.855469 C 50.972656 149.839844 51.082031 149.863281 51.195312 149.921875 C 51.304688 149.980469 51.40625 150.074219 51.503906 150.195312 C 51.597656 150.320312 51.675781 150.46875 51.742188 150.636719 C 51.808594 150.808594 51.851562 150.984375 51.875 151.175781 Z M 51.875 151.175781 " fill-opacity="1" fill-rule="nonzero"/><path fill="#ff6161" d="M 48.867188 149.929688 C 48.167969 151.605469 48.964844 153.515625 50.621094 154.207031 C 52.273438 154.898438 54.191406 154.128906 54.894531 152.453125 C 55.585938 150.796875 54.792969 148.867188 53.140625 148.175781 C 51.484375 147.484375 49.558594 148.273438 48.867188 149.929688 Z M 48.867188 149.929688 " fill-opacity="1" fill-rule="nonzero"/><path fill="#ff6161" d="M 44.203125 179.640625 C 33.410156 168.589844 28.039062 147.554688 32.234375 132.746094 C 36.523438 117.59375 49.226562 114.34375 60.332031 125.710938 C 71.125 136.761719 76.496094 157.789062 72.304688 172.589844 C 68.039062 187.660156 55.363281 191.0625 44.203125 179.640625 Z M 33.828125 133.199219 C 29.78125 147.496094 34.96875 167.808594 45.390625 178.480469 C 55.5625 188.890625 66.75 186.117188 70.710938 172.136719 C 74.757812 157.847656 69.566406 137.542969 59.144531 126.871094 C 48.957031 116.445312 37.769531 119.261719 33.828125 133.199219 Z M 33.828125 133.199219 " fill-opacity="1" fill-rule="nonzero"/><path fill="#ff6161" d="M 47.203125 169.050781 C 40.667969 162.359375 37.414062 149.621094 39.953125 140.652344 C 42.585938 131.347656 50.496094 129.292969 57.332031 136.300781 C 63.867188 142.992188 67.121094 155.726562 64.585938 164.6875 C 61.949219 174.015625 54.023438 176.035156 47.203125 169.050781 Z M 41.546875 141.105469 C 39.152344 149.5625 42.222656 161.578125 48.386719 167.890625 C 54.296875 173.9375 60.691406 172.355469 62.988281 164.234375 C 65.382812 155.785156 62.3125 143.769531 56.148438 137.460938 C 50.242188 131.417969 43.847656 132.976562 41.546875 141.105469 Z M 41.546875 141.105469 " fill-opacity="1" fill-rule="nonzero"/><path fill="#ff6161" d="M 49.363281 161.421875 C 45.894531 157.871094 44.167969 151.109375 45.515625 146.351562 C 46.957031 141.25 51.417969 140.085938 55.171875 143.929688 C 60.65625 149.542969 61.144531 162.007812 55.058594 163.558594 C 52.933594 164.097656 50.898438 162.992188 49.363281 161.421875 Z M 47.109375 146.804688 C 45.164062 153.679688 50.347656 163.066406 54.652344 161.949219 C 55.90625 161.628906 56.890625 160.417969 57.425781 158.539062 C 58.625 154.296875 57.082031 148.261719 53.984375 145.089844 C 51.160156 142.199219 48.21875 142.890625 47.109375 146.804688 Z M 47.109375 146.804688 " fill-opacity="1" fill-rule="nonzero"/><g clip-path="url(#989c6c2a37)"><path fill="#dbdfe6" d="M 346.328125 241.375 L 346.308594 253.199219 C 346.308594 254.070312 345.726562 254.921875 344.605469 255.585938 L 257.484375 306.246094 L 257.523438 294.402344 L 344.628906 243.761719 C 345.769531 243.097656 346.328125 242.226562 346.328125 241.375 Z M 346.328125 241.375 " fill-opacity="1" fill-rule="nonzero"/></g><path fill="#ccd0d9" d="M 257.523438 294.402344 L 257.484375 306.246094 C 255.203125 307.574219 251.492188 307.574219 249.191406 306.246094 L 215.789062 286.953125 C 214.625 286.269531 214.066406 285.398438 214.066406 284.527344 L 214.085938 272.679688 C 214.085938 273.574219 214.667969 274.445312 215.828125 275.109375 L 249.210938 294.402344 C 251.511719 295.726562 255.246094 295.726562 257.523438 294.402344 Z M 257.523438 294.402344 " fill-opacity="1" fill-rule="nonzero"/><g clip-path="url(#43cfed8b26)"><path fill="#ebeef4" d="M 344.59375 238.941406 C 346.898438 240.273438 346.925781 242.421875 344.636719 243.753906 L 257.519531 294.40625 C 255.242188 295.730469 251.523438 295.730469 249.21875 294.398438 L 215.820312 275.105469 C 213.53125 273.78125 213.515625 271.625 215.792969 270.304688 L 302.910156 219.648438 C 305.199219 218.316406 308.90625 218.324219 311.195312 219.648438 Z M 344.59375 238.941406 " fill-opacity="1" fill-rule="nonzero"/></g><path fill="#304ccf" d="M 318.460938 228.132812 L 312.441406 224.632812 L 312.410156 212.636719 L 318.425781 216.132812 Z M 318.460938 228.132812 " fill-opacity="1" fill-rule="nonzero"/><path fill="#4f91ff" d="M 298.5 236.886719 L 292.484375 233.386719 C 297.855469 236.507812 307.902344 228.886719 312.441406 224.632812 L 318.460938 228.132812 C 313.886719 232.414062 303.851562 239.996094 298.5 236.886719 Z M 298.5 236.886719 " fill-opacity="1" fill-rule="nonzero"/><path fill="#4f91ff" d="M 325.769531 203.660156 C 325.21875 203.386719 324.261719 203.289062 322.746094 204.164062 L 310.917969 210.996094 C 309.628906 211.742188 308.589844 212.734375 307.828125 213.960938 C 307.257812 214.875 306.578125 216.355469 306.585938 218.199219 C 306.589844 219.554688 306.992188 220.507812 307.761719 220.941406 L 301.742188 217.441406 C 300.980469 217.011719 300.570312 216.058594 300.566406 214.699219 C 300.558594 211.988281 302.070312 209.136719 304.902344 207.496094 L 316.730469 200.664062 C 318.332031 199.738281 319.304688 199.90625 319.84375 200.210938 Z M 325.769531 203.660156 " fill-opacity="1" fill-rule="nonzero"/><path fill="#4f91ff" d="M 319.40625 179.34375 L 325.421875 182.84375 C 325.246094 182.738281 325.046875 182.65625 324.832031 182.59375 L 318.8125 179.09375 C 319.03125 179.15625 319.226562 179.238281 319.40625 179.34375 Z M 319.40625 179.34375 " fill-opacity="1" fill-rule="nonzero"/><path fill="#4f91ff" d="M 324.832031 182.589844 C 319.699219 180.707031 313.3125 183.195312 308.597656 185.925781 C 294.449219 194.101562 284.457031 210.34375 284.511719 229.65625 C 284.527344 236.167969 285.675781 244.558594 291.324219 247.84375 L 285.308594 244.34375 C 279.667969 241.0625 278.511719 232.707031 278.492188 226.15625 C 278.4375 206.683594 288.574219 190.515625 302.582031 182.425781 C 307.304688 179.699219 313.6875 177.207031 318.8125 179.09375 Z M 324.832031 182.589844 " fill-opacity="1" fill-rule="nonzero"/><path fill="#457aef" d="M 308.597656 185.925781 C 313.347656 183.179688 319.707031 180.710938 324.832031 182.59375 C 329.328125 183.902344 324.828125 194.691406 319.964844 193.78125 C 315.976562 192.527344 312.195312 194.011719 308.558594 196.113281 C 298.410156 201.976562 294.160156 212.339844 294.195312 224.0625 C 294.210938 230.550781 295.515625 234.773438 298.070312 236.605469 C 303.34375 240.402344 313.726562 232.566406 318.460938 228.132812 L 318.425781 216.132812 L 310.945312 220.457031 C 308.183594 222.050781 306.59375 220.867188 306.585938 218.199219 C 306.578125 216.359375 307.257812 214.878906 307.828125 213.960938 C 308.589844 212.734375 309.628906 211.738281 310.917969 210.996094 L 322.746094 204.164062 C 324.347656 203.238281 325.324219 203.40625 325.859375 203.710938 C 326.394531 204.015625 327.035156 204.765625 327.042969 206.609375 L 327.097656 226.441406 C 327.105469 228.914062 326.238281 231.203125 324.453125 233.101562 C 322.453125 235.183594 320.101562 237.3125 317.433594 239.457031 C 298.953125 254.308594 284.578125 253.101562 284.511719 229.65625 C 284.457031 210.359375 294.433594 194.105469 308.597656 185.925781 Z M 308.597656 185.925781 " fill-opacity="1" fill-rule="nonzero"/><path fill="#4f91ff" d="M 240.617188 278.261719 L 234.601562 274.761719 C 231.070312 272.707031 235.476562 263.019531 240.132812 264.03125 C 243.839844 264.90625 247.40625 263.761719 250.71875 261.847656 C 255.78125 258.925781 259.117188 253.96875 259.097656 247.933594 C 259.089844 245.003906 258.390625 243.09375 256.949219 242.101562 C 256.882812 242.058594 256.816406 242.015625 256.75 241.976562 L 262.765625 245.476562 C 265.886719 247.289062 265.425781 253.472656 264.152344 256.875 C 262.792969 260.515625 260.082031 263.414062 256.738281 265.347656 C 253.425781 267.261719 249.855469 268.40625 246.152344 267.527344 C 241.484375 266.515625 237.101562 276.21875 240.617188 278.261719 Z M 240.617188 278.261719 " fill-opacity="1" fill-rule="nonzero"/><path fill="#4f91ff" d="M 263.824219 230.769531 L 269.84375 234.269531 C 263.789062 230.75 254.535156 237.382812 249.972656 242.789062 L 243.953125 239.289062 C 246.328125 236.476562 249.011719 234.144531 252.089844 232.367188 C 255.707031 230.277344 260.21875 228.671875 263.824219 230.769531 Z M 263.824219 230.769531 " fill-opacity="1" fill-rule="nonzero"/><path fill="#4f91ff" d="M 270.898438 209.792969 C 269.882812 209.214844 268.578125 209.726562 267.5625 210.3125 L 245.101562 223.289062 C 242.421875 224.832031 240.621094 227.863281 240.632812 231.027344 L 240.707031 257.464844 C 240.710938 259.226562 241.355469 259.976562 241.902344 260.292969 L 235.882812 256.796875 C 235.339844 256.480469 234.695312 255.726562 234.691406 253.96875 L 234.613281 227.53125 C 234.609375 224.335938 236.425781 221.324219 239.082031 219.792969 L 261.550781 206.8125 C 262.5625 206.230469 263.871094 205.714844 264.882812 206.292969 Z M 270.898438 209.792969 " fill-opacity="1" fill-rule="nonzero"/><path fill="#457aef" d="M 267.566406 210.3125 C 270.449219 208.644531 272.050781 209.804688 272.058594 212.648438 C 272.070312 215.519531 270.457031 218.5 267.59375 220.152344 L 249.9375 230.355469 L 249.972656 242.789062 C 256.042969 235.59375 267.527344 228.976562 272.46875 236.886719 C 273.785156 239.011719 274.457031 241.984375 274.46875 245.730469 C 274.511719 260.453125 263.003906 275.34375 248.761719 278.65625 C 246.066406 279.28125 243.589844 279.246094 241.382812 278.546875 C 236.5625 277.539062 241.164062 266.449219 246.152344 267.527344 C 249.855469 268.40625 253.425781 267.261719 256.738281 265.347656 C 261.796875 262.425781 265.132812 257.464844 265.117188 251.433594 C 265.109375 248.503906 264.40625 246.59375 262.964844 245.601562 C 260.089844 243.636719 255.074219 247.378906 252.722656 249.9375 C 249.695312 253.246094 249.5 255.238281 247.476562 257.765625 C 244.742188 261.191406 240.71875 261.886719 240.707031 257.46875 L 240.632812 231.027344 C 240.621094 227.855469 242.429688 224.832031 245.101562 223.289062 Z M 267.566406 210.3125 " fill-opacity="1" fill-rule="nonzero"/><path fill="#4dcdf3" d="M 307.714844 23.519531 L 321.675781 31.636719 C 313.882812 27.105469 303.664062 32.949219 297.214844 39.351562 L 283.257812 31.234375 C 285.707031 28.800781 288.351562 26.738281 291.113281 25.144531 C 297.597656 21.398438 303.472656 21.050781 307.714844 23.519531 Z M 307.714844 23.519531 " fill-opacity="1" fill-rule="nonzero"/><path fill="#71d8f8" d="M 289.894531 28.558594 C 284.824219 25.605469 277.835938 26.023438 270.09375 30.480469 C 257.3125 37.894531 246.5625 54.027344 243.332031 69.40625 L 229.378906 61.269531 C 232.582031 45.917969 243.332031 29.757812 256.140625 22.371094 C 263.855469 17.914062 270.875 17.496094 275.941406 20.449219 Z M 289.894531 28.558594 " fill-opacity="1" fill-rule="nonzero"/><path fill="#4dcdf3" d="M 222.523438 126.722656 L 208.566406 118.605469 C 204.375 116.167969 201.773438 110.988281 201.753906 103.621094 C 201.703125 86.085938 215.820312 65.945312 229.371094 61.28125 L 243.332031 69.398438 C 229.753906 74.070312 215.664062 94.238281 215.710938 111.738281 C 215.734375 119.101562 218.332031 124.285156 222.523438 126.722656 Z M 222.523438 126.722656 " fill-opacity="1" fill-rule="nonzero"/><path fill="#95e2fe" d="M 270.09375 30.492188 C 283.203125 22.921875 294.234375 27.007812 297.214844 39.351562 C 312.140625 24.527344 328.425781 27.867188 328.480469 46.59375 C 328.519531 61.425781 318.101562 79.480469 305.222656 86.921875 L 239.140625 125.09375 C 226.242188 132.546875 215.753906 126.566406 215.710938 111.738281 C 215.664062 94.203125 229.777344 74.0625 243.332031 69.398438 C 246.550781 54.023438 257.300781 37.882812 270.09375 30.492188 Z M 270.09375 30.492188 " fill-opacity="1" fill-rule="nonzero"/><path fill="#ebf2ff" d="M 270.59375 42.214844 C 280.433594 36.53125 288.714844 39.601562 290.949219 48.863281 C 302.152344 37.738281 314.375 40.242188 314.417969 54.300781 C 314.449219 65.429688 306.628906 78.984375 296.960938 84.566406 L 247.359375 113.222656 C 237.679688 118.8125 229.808594 114.324219 229.777344 103.195312 C 229.738281 90.035156 240.332031 74.917969 250.507812 71.417969 C 252.921875 59.875 260.992188 47.761719 270.59375 42.214844 Z M 270.59375 42.214844 " fill-opacity="1" fill-rule="nonzero"/><path fill="#4f575f" d="M 276.964844 82.96875 C 276.972656 86.035156 274.820312 89.769531 272.152344 91.308594 C 267.855469 93.789062 265.722656 89.027344 268.710938 83.804688 C 271.761719 78.558594 276.949219 78.066406 276.964844 82.96875 Z M 274.199219 86.933594 C 274.761719 85.953125 275.046875 84.933594 275.042969 84.078125 C 275.035156 81.027344 271.828125 81.535156 270.070312 84.582031 C 268.238281 87.800781 269.589844 90.578125 272.144531 89.101562 C 272.890625 88.671875 273.636719 87.921875 274.199219 86.933594 " fill-opacity="1" fill-rule="nonzero"/><path fill="#4f575f" d="M 272.105469 74.277344 C 275.402344 72.371094 278.730469 71.90625 281.253906 73.347656 C 281.878906 73.703125 281.402344 75.152344 280.589844 75.621094 C 280.34375 75.761719 280.097656 75.796875 279.914062 75.683594 C 277.757812 74.453125 274.9375 74.851562 272.109375 76.484375 C 269.28125 78.117188 266.46875 80.976562 264.335938 84.683594 C 264.0625 85.15625 263.441406 85.742188 262.980469 85.464844 C 262.601562 85.261719 262.597656 84.5625 262.976562 83.90625 C 265.484375 79.558594 268.792969 76.191406 272.105469 74.277344 Z M 272.105469 74.277344 " fill-opacity="1" fill-rule="nonzero"/><path fill="#4f575f" d="M 272.089844 68.351562 C 276.628906 65.726562 281.175781 65.085938 284.648438 67.066406 C 285.230469 67.398438 284.847656 68.828125 283.972656 69.335938 C 283.730469 69.476562 283.484375 69.511719 283.296875 69.410156 C 280.203125 67.632812 276.152344 68.199219 272.09375 70.542969 C 268.035156 72.886719 264.007812 76.992188 260.921875 82.332031 C 260.652344 82.800781 260.035156 83.367188 259.566406 83.117188 C 259.199219 82.890625 259.195312 82.191406 259.5625 81.554688 C 263.011719 75.578125 267.546875 70.972656 272.089844 68.351562 Z M 272.089844 68.351562 " fill-opacity="1" fill-rule="nonzero"/><path fill="#4f575f" d="M 272.074219 62.410156 C 277.84375 59.074219 283.621094 58.265625 288.027344 60.777344 C 288.40625 60.996094 288.410156 61.695312 288.03125 62.335938 C 287.757812 62.820312 287.144531 63.386719 286.675781 63.121094 C 282.648438 60.824219 277.367188 61.5625 272.078125 64.617188 C 266.789062 67.671875 261.53125 73.023438 257.519531 79.960938 C 257.246094 80.4375 256.625 81.023438 256.164062 80.746094 C 255.785156 80.542969 255.78125 79.839844 256.160156 79.1875 C 260.539062 71.601562 266.300781 65.742188 272.074219 62.410156 Z M 272.074219 62.410156 " fill-opacity="1" fill-rule="nonzero"/></svg>