<svg xmlns="http://www.w3.org/2000/svg" xmlns:xlink="http://www.w3.org/1999/xlink" width="500" zoomAndPan="magnify" viewBox="0 0 375 322.499991" height="430" preserveAspectRatio="xMidYMid meet" version="1.0"><defs><clipPath id="2970f4bbfc"><path d="M 15 264 L 373 264 L 373 313.949219 L 15 313.949219 Z M 15 264 " clip-rule="nonzero"/></clipPath><clipPath id="180153d492"><path d="M 5 264 L 363 264 L 363 313.949219 L 5 313.949219 Z M 5 264 " clip-rule="nonzero"/></clipPath><clipPath id="bc8fdfdfa5"><path d="M 110 273 L 125 273 L 125 313.949219 L 110 313.949219 Z M 110 273 " clip-rule="nonzero"/></clipPath><clipPath id="f0ac91f130"><path d="M 342 157 L 374.707031 157 L 374.707031 190 L 342 190 Z M 342 157 " clip-rule="nonzero"/></clipPath><clipPath id="4b95ec19bc"><path d="M 55 8.425781 L 167 8.425781 L 167 72 L 55 72 Z M 55 8.425781 " clip-rule="nonzero"/></clipPath><clipPath id="d676783448"><path d="M 0.289062 230 L 21 230 L 21 251 L 0.289062 251 Z M 0.289062 230 " clip-rule="nonzero"/></clipPath></defs><path fill="#66ccce" d="M 309.847656 27.628906 C 304.542969 27.628906 300.078125 31.15625 298.78125 35.945312 C 298.554688 35.929688 298.328125 35.921875 298.097656 35.921875 C 292.847656 35.921875 288.589844 40.183594 288.589844 45.441406 C 288.589844 50.699219 292.847656 54.964844 298.097656 54.964844 C 301.21875 54.964844 303.984375 53.460938 305.71875 51.140625 C 306.699219 51.640625 307.808594 51.925781 308.988281 51.925781 C 310.882812 51.925781 312.613281 51.1875 313.894531 49.980469 C 315.441406 52.320312 318.070312 53.859375 321.046875 53.859375 C 324.332031 53.859375 327.191406 51.984375 328.640625 49.226562 C 329.550781 49.882812 330.664062 50.273438 331.867188 50.273438 C 334.910156 50.273438 337.378906 47.800781 337.378906 44.753906 C 337.378906 41.703125 334.910156 39.234375 331.867188 39.234375 C 330.539062 39.234375 329.324219 39.699219 328.371094 40.480469 C 326.851562 37.992188 324.140625 36.332031 321.046875 36.332031 L 321.011719 36.335938 C 319.859375 31.347656 315.296875 27.628906 309.847656 27.628906 " fill-opacity="1" fill-rule="evenodd"/><path fill="#ffffff" d="M 298.808594 39.957031 C 295.421875 39.957031 292.578125 42.207031 291.753906 45.257812 C 291.609375 45.25 291.460938 45.242188 291.316406 45.242188 C 287.96875 45.242188 285.253906 47.960938 285.253906 51.308594 C 285.253906 54.664062 287.96875 57.382812 291.316406 57.382812 C 293.304688 57.382812 295.070312 56.425781 296.175781 54.945312 C 296.800781 55.265625 297.507812 55.449219 298.257812 55.449219 C 299.46875 55.449219 300.570312 54.976562 301.386719 54.203125 C 302.375 55.695312 304.046875 56.679688 305.945312 56.679688 C 308.042969 56.679688 309.867188 55.484375 310.792969 53.726562 C 311.371094 54.144531 312.078125 54.390625 312.847656 54.390625 C 314.789062 54.390625 316.359375 52.816406 316.359375 50.875 C 316.359375 48.929688 314.789062 47.351562 312.847656 47.351562 C 312 47.351562 311.226562 47.648438 310.617188 48.148438 C 309.648438 46.5625 307.917969 45.503906 305.945312 45.503906 L 305.925781 45.503906 C 305.1875 42.328125 302.28125 39.957031 298.808594 39.957031 " fill-opacity="1" fill-rule="evenodd"/><path fill="#fbc707" d="M 186.8125 47.734375 C 269.859375 47.734375 337.210938 115.164062 337.210938 198.316406 C 337.210938 201.527344 337.09375 204.710938 336.898438 207.875 L 36.722656 207.875 C 36.527344 204.710938 36.414062 201.527344 36.414062 198.316406 C 36.414062 115.164062 103.761719 47.734375 186.8125 47.734375 " fill-opacity="1" fill-rule="evenodd"/><g clip-path="url(#2970f4bbfc)"><path fill="#5d6068" d="M 231.808594 264.300781 L 347.589844 264.300781 C 361.226562 264.300781 372.382812 275.472656 372.382812 289.128906 C 372.382812 302.785156 361.226562 313.957031 347.589844 313.957031 L 133.855469 313.957031 C 127.992188 313.957031 123.199219 309.15625 123.199219 303.289062 C 123.199219 297.417969 127.992188 292.617188 133.855469 292.617188 L 196.152344 292.617188 C 198.023438 292.640625 199.582031 291.015625 199.582031 289.121094 C 199.582031 287.230469 198.023438 285.609375 196.152344 285.628906 L 26.0625 285.628906 C 20.203125 285.628906 15.40625 280.828125 15.40625 274.960938 C 15.40625 269.09375 20.203125 264.292969 26.0625 264.292969 L 231.808594 264.292969 L 231.808594 264.300781 " fill-opacity="1" fill-rule="evenodd"/></g><path fill="#93998f" d="M 226.394531 302.394531 L 228.953125 302.394531 C 229.742188 302.394531 230.382812 303.039062 230.382812 303.828125 C 230.382812 304.613281 229.742188 305.257812 228.953125 305.257812 L 226.394531 305.257812 C 225.605469 305.257812 224.960938 304.613281 224.960938 303.828125 C 224.960938 303.039062 225.605469 302.394531 226.394531 302.394531 " fill-opacity="1" fill-rule="evenodd"/><path fill="#93998f" d="M 235.140625 302.394531 L 237.695312 302.394531 C 238.480469 302.394531 239.125 303.039062 239.125 303.828125 C 239.125 304.613281 238.480469 305.257812 237.695312 305.257812 L 235.140625 305.257812 C 234.351562 305.257812 233.707031 304.613281 233.707031 303.828125 C 233.707031 303.039062 234.351562 302.394531 235.140625 302.394531 " fill-opacity="1" fill-rule="evenodd"/><path fill="#93998f" d="M 243.882812 302.394531 L 246.441406 302.394531 C 247.226562 302.394531 247.875 303.039062 247.875 303.828125 C 247.875 304.613281 247.226562 305.257812 246.441406 305.257812 L 243.882812 305.257812 C 243.09375 305.257812 242.453125 304.613281 242.453125 303.828125 C 242.453125 303.039062 243.09375 302.394531 243.882812 302.394531 " fill-opacity="1" fill-rule="evenodd"/><path fill="#93998f" d="M 252.628906 302.394531 L 255.183594 302.394531 C 255.972656 302.394531 256.617188 303.039062 256.617188 303.828125 C 256.617188 304.613281 255.972656 305.257812 255.183594 305.257812 L 252.628906 305.257812 C 251.839844 305.257812 251.199219 304.613281 251.199219 303.828125 C 251.199219 303.039062 251.839844 302.394531 252.628906 302.394531 " fill-opacity="1" fill-rule="evenodd"/><path fill="#93998f" d="M 261.371094 302.394531 L 263.929688 302.394531 C 264.71875 302.394531 265.363281 303.039062 265.363281 303.828125 C 265.363281 304.613281 264.71875 305.257812 263.929688 305.257812 L 261.371094 305.257812 C 260.585938 305.257812 259.941406 304.613281 259.941406 303.828125 C 259.941406 303.039062 260.585938 302.394531 261.371094 302.394531 " fill-opacity="1" fill-rule="evenodd"/><path fill="#93998f" d="M 270.117188 302.394531 L 272.671875 302.394531 C 273.460938 302.394531 274.105469 303.039062 274.105469 303.828125 C 274.105469 304.613281 273.460938 305.257812 272.671875 305.257812 L 270.117188 305.257812 C 269.328125 305.257812 268.6875 304.613281 268.6875 303.828125 C 268.6875 303.039062 269.328125 302.394531 270.117188 302.394531 " fill-opacity="1" fill-rule="evenodd"/><path fill="#93998f" d="M 278.859375 302.394531 L 281.421875 302.394531 C 282.207031 302.394531 282.851562 303.039062 282.851562 303.828125 C 282.851562 304.613281 282.207031 305.257812 281.421875 305.257812 L 278.859375 305.257812 C 278.074219 305.257812 277.429688 304.613281 277.429688 303.828125 C 277.429688 303.039062 278.074219 302.394531 278.859375 302.394531 " fill-opacity="1" fill-rule="evenodd"/><path fill="#93998f" d="M 287.605469 302.394531 L 290.164062 302.394531 C 290.949219 302.394531 291.59375 303.039062 291.59375 303.828125 C 291.59375 304.613281 290.949219 305.257812 290.164062 305.257812 L 287.605469 305.257812 C 286.816406 305.257812 286.175781 304.613281 286.175781 303.828125 C 286.175781 303.039062 286.816406 302.394531 287.605469 302.394531 " fill-opacity="1" fill-rule="evenodd"/><path fill="#93998f" d="M 296.347656 302.394531 L 298.910156 302.394531 C 299.695312 302.394531 300.339844 303.039062 300.339844 303.828125 C 300.339844 304.613281 299.695312 305.257812 298.910156 305.257812 L 296.347656 305.257812 C 295.5625 305.257812 294.917969 304.613281 294.917969 303.828125 C 294.917969 303.039062 295.5625 302.394531 296.347656 302.394531 " fill-opacity="1" fill-rule="evenodd"/><path fill="#93998f" d="M 305.097656 302.394531 L 307.652344 302.394531 C 308.4375 302.394531 309.082031 303.039062 309.082031 303.828125 C 309.082031 304.613281 308.4375 305.257812 307.652344 305.257812 L 305.097656 305.257812 C 304.308594 305.257812 303.664062 304.613281 303.664062 303.828125 C 303.664062 303.039062 304.308594 302.394531 305.097656 302.394531 " fill-opacity="1" fill-rule="evenodd"/><path fill="#93998f" d="M 313.839844 302.394531 L 316.398438 302.394531 C 317.183594 302.394531 317.828125 303.039062 317.828125 303.828125 C 317.828125 304.613281 317.183594 305.257812 316.398438 305.257812 L 313.839844 305.257812 C 313.050781 305.257812 312.40625 304.613281 312.40625 303.828125 C 312.40625 303.039062 313.050781 302.394531 313.839844 302.394531 " fill-opacity="1" fill-rule="evenodd"/><path fill="#93998f" d="M 322.585938 302.394531 L 325.140625 302.394531 C 325.925781 302.394531 326.574219 303.039062 326.574219 303.828125 C 326.574219 304.613281 325.925781 305.257812 325.140625 305.257812 L 322.585938 305.257812 C 321.796875 305.257812 321.152344 304.613281 321.152344 303.828125 C 321.152344 303.039062 321.796875 302.394531 322.585938 302.394531 " fill-opacity="1" fill-rule="evenodd"/><path fill="#93998f" d="M 331.328125 302.394531 L 333.886719 302.394531 C 334.675781 302.394531 335.320312 303.039062 335.320312 303.828125 C 335.320312 304.613281 334.675781 305.257812 333.886719 305.257812 L 331.328125 305.257812 C 330.542969 305.257812 329.894531 304.613281 329.894531 303.828125 C 329.894531 303.039062 330.542969 302.394531 331.328125 302.394531 " fill-opacity="1" fill-rule="evenodd"/><path fill="#93998f" d="M 340.074219 302.394531 L 342.628906 302.394531 C 343.417969 302.394531 344.0625 303.039062 344.0625 303.828125 C 344.0625 304.613281 343.417969 305.257812 342.628906 305.257812 L 340.074219 305.257812 C 339.285156 305.257812 338.640625 304.613281 338.640625 303.828125 C 338.640625 303.039062 339.285156 302.394531 340.074219 302.394531 " fill-opacity="1" fill-rule="evenodd"/><path fill="#93998f" d="M 348.816406 302.394531 L 351.375 302.394531 C 352.164062 302.394531 352.808594 303.039062 352.808594 303.828125 C 352.808594 304.613281 352.164062 305.257812 351.375 305.257812 L 348.816406 305.257812 C 348.03125 305.257812 347.386719 304.613281 347.386719 303.828125 C 347.386719 303.039062 348.03125 302.394531 348.816406 302.394531 " fill-opacity="1" fill-rule="evenodd"/><path fill="#93998f" d="M 137.035156 302.394531 L 139.59375 302.394531 C 140.378906 302.394531 141.023438 303.039062 141.023438 303.828125 C 141.023438 304.613281 140.378906 305.257812 139.59375 305.257812 L 137.035156 305.257812 C 136.246094 305.257812 135.605469 304.613281 135.605469 303.828125 C 135.605469 303.039062 136.246094 302.394531 137.035156 302.394531 " fill-opacity="1" fill-rule="evenodd"/><path fill="#93998f" d="M 145.78125 302.394531 L 148.335938 302.394531 C 149.125 302.394531 149.769531 303.039062 149.769531 303.828125 C 149.769531 304.613281 149.125 305.257812 148.335938 305.257812 L 145.78125 305.257812 C 144.992188 305.257812 144.347656 304.613281 144.347656 303.828125 C 144.347656 303.039062 144.992188 302.394531 145.78125 302.394531 " fill-opacity="1" fill-rule="evenodd"/><path fill="#93998f" d="M 154.523438 302.394531 L 157.082031 302.394531 C 157.871094 302.394531 158.511719 303.039062 158.511719 303.828125 C 158.511719 304.613281 157.871094 305.257812 157.082031 305.257812 L 154.523438 305.257812 C 153.734375 305.257812 153.09375 304.613281 153.09375 303.828125 C 153.09375 303.039062 153.734375 302.394531 154.523438 302.394531 " fill-opacity="1" fill-rule="evenodd"/><path fill="#93998f" d="M 163.269531 302.394531 L 165.824219 302.394531 C 166.617188 302.394531 167.257812 303.039062 167.257812 303.828125 C 167.257812 304.613281 166.617188 305.257812 165.824219 305.257812 L 163.269531 305.257812 C 162.480469 305.257812 161.835938 304.613281 161.835938 303.828125 C 161.835938 303.039062 162.480469 302.394531 163.269531 302.394531 " fill-opacity="1" fill-rule="evenodd"/><path fill="#93998f" d="M 172.011719 302.394531 L 174.570312 302.394531 C 175.359375 302.394531 176.003906 303.039062 176.003906 303.828125 C 176.003906 304.613281 175.359375 305.257812 174.570312 305.257812 L 172.011719 305.257812 C 171.222656 305.257812 170.582031 304.613281 170.582031 303.828125 C 170.582031 303.039062 171.222656 302.394531 172.011719 302.394531 " fill-opacity="1" fill-rule="evenodd"/><path fill="#93998f" d="M 180.757812 302.394531 L 183.316406 302.394531 C 184.105469 302.394531 184.746094 303.039062 184.746094 303.828125 C 184.746094 304.613281 184.105469 305.257812 183.316406 305.257812 L 180.757812 305.257812 C 179.972656 305.257812 179.328125 304.613281 179.328125 303.828125 C 179.328125 303.039062 179.972656 302.394531 180.757812 302.394531 " fill-opacity="1" fill-rule="evenodd"/><path fill="#93998f" d="M 189.503906 302.394531 L 192.058594 302.394531 C 192.847656 302.394531 193.492188 303.039062 193.492188 303.828125 C 193.492188 304.613281 192.847656 305.257812 192.058594 305.257812 L 189.503906 305.257812 C 188.714844 305.257812 188.070312 304.613281 188.070312 303.828125 C 188.070312 303.039062 188.714844 302.394531 189.503906 302.394531 " fill-opacity="1" fill-rule="evenodd"/><path fill="#93998f" d="M 198.246094 302.394531 L 200.804688 302.394531 C 201.59375 302.394531 202.234375 303.039062 202.234375 303.828125 C 202.234375 304.613281 201.59375 305.257812 200.804688 305.257812 L 198.246094 305.257812 C 197.460938 305.257812 196.816406 304.613281 196.816406 303.828125 C 196.816406 303.039062 197.460938 302.394531 198.246094 302.394531 " fill-opacity="1" fill-rule="evenodd"/><path fill="#93998f" d="M 206.992188 302.394531 L 209.546875 302.394531 C 210.335938 302.394531 210.980469 303.039062 210.980469 303.828125 C 210.980469 304.613281 210.335938 305.257812 209.546875 305.257812 L 206.992188 305.257812 C 206.203125 305.257812 205.558594 304.613281 205.558594 303.828125 C 205.558594 303.039062 206.203125 302.394531 206.992188 302.394531 " fill-opacity="1" fill-rule="evenodd"/><path fill="#93998f" d="M 215.738281 302.394531 L 218.292969 302.394531 C 219.082031 302.394531 219.722656 303.039062 219.722656 303.828125 C 219.722656 304.613281 219.082031 305.257812 218.292969 305.257812 L 215.738281 305.257812 C 214.949219 305.257812 214.304688 304.613281 214.304688 303.828125 C 214.304688 303.039062 214.949219 302.394531 215.738281 302.394531 " fill-opacity="1" fill-rule="evenodd"/><g clip-path="url(#180153d492)"><path fill="#5d6068" d="M 221.425781 264.300781 L 337.210938 264.300781 C 350.847656 264.300781 362.007812 275.472656 362.007812 289.128906 C 362.007812 302.785156 350.847656 313.957031 337.210938 313.957031 L 123.472656 313.957031 C 117.609375 313.957031 112.816406 309.15625 112.816406 303.289062 C 112.816406 297.417969 117.609375 292.617188 123.472656 292.617188 L 185.769531 292.617188 C 187.640625 292.640625 189.199219 291.015625 189.199219 289.121094 C 189.199219 287.230469 187.640625 285.609375 185.769531 285.628906 L 15.683594 285.628906 C 9.820312 285.628906 5.023438 280.828125 5.023438 274.960938 C 5.023438 269.09375 9.820312 264.292969 15.683594 264.292969 L 221.425781 264.292969 L 221.425781 264.300781 " fill-opacity="1" fill-rule="evenodd"/></g><path fill="#93998f" d="M 216.011719 302.394531 L 218.570312 302.394531 C 219.355469 302.394531 220.003906 303.039062 220.003906 303.828125 C 220.003906 304.613281 219.355469 305.257812 218.570312 305.257812 L 216.011719 305.257812 C 215.222656 305.257812 214.582031 304.613281 214.582031 303.828125 C 214.582031 303.039062 215.222656 302.394531 216.011719 302.394531 " fill-opacity="1" fill-rule="evenodd"/><path fill="#93998f" d="M 224.757812 302.394531 L 227.3125 302.394531 C 228.101562 302.394531 228.746094 303.039062 228.746094 303.828125 C 228.746094 304.613281 228.101562 305.257812 227.3125 305.257812 L 224.757812 305.257812 C 223.972656 305.257812 223.324219 304.613281 223.324219 303.828125 C 223.324219 303.039062 223.972656 302.394531 224.757812 302.394531 " fill-opacity="1" fill-rule="evenodd"/><path fill="#93998f" d="M 233.5 302.394531 L 236.058594 302.394531 C 236.847656 302.394531 237.492188 303.039062 237.492188 303.828125 C 237.492188 304.613281 236.847656 305.257812 236.058594 305.257812 L 233.5 305.257812 C 232.714844 305.257812 232.070312 304.613281 232.070312 303.828125 C 232.070312 303.039062 232.714844 302.394531 233.5 302.394531 " fill-opacity="1" fill-rule="evenodd"/><path fill="#93998f" d="M 242.246094 302.394531 L 244.800781 302.394531 C 245.59375 302.394531 246.234375 303.039062 246.234375 303.828125 C 246.234375 304.613281 245.59375 305.257812 244.800781 305.257812 L 242.246094 305.257812 C 241.460938 305.257812 240.816406 304.613281 240.816406 303.828125 C 240.816406 303.039062 241.460938 302.394531 242.246094 302.394531 " fill-opacity="1" fill-rule="evenodd"/><path fill="#93998f" d="M 250.988281 302.394531 L 253.550781 302.394531 C 254.335938 302.394531 254.980469 303.039062 254.980469 303.828125 C 254.980469 304.613281 254.335938 305.257812 253.550781 305.257812 L 250.988281 305.257812 C 250.203125 305.257812 249.558594 304.613281 249.558594 303.828125 C 249.558594 303.039062 250.203125 302.394531 250.988281 302.394531 " fill-opacity="1" fill-rule="evenodd"/><path fill="#93998f" d="M 259.734375 302.394531 L 262.292969 302.394531 C 263.082031 302.394531 263.722656 303.039062 263.722656 303.828125 C 263.722656 304.613281 263.082031 305.257812 262.292969 305.257812 L 259.734375 305.257812 C 258.949219 305.257812 258.304688 304.613281 258.304688 303.828125 C 258.304688 303.039062 258.949219 302.394531 259.734375 302.394531 " fill-opacity="1" fill-rule="evenodd"/><path fill="#93998f" d="M 268.480469 302.394531 L 271.035156 302.394531 C 271.824219 302.394531 272.46875 303.039062 272.46875 303.828125 C 272.46875 304.613281 271.824219 305.257812 271.035156 305.257812 L 268.480469 305.257812 C 267.691406 305.257812 267.046875 304.613281 267.046875 303.828125 C 267.046875 303.039062 267.691406 302.394531 268.480469 302.394531 " fill-opacity="1" fill-rule="evenodd"/><path fill="#93998f" d="M 277.226562 302.394531 L 279.78125 302.394531 C 280.570312 302.394531 281.210938 303.039062 281.210938 303.828125 C 281.210938 304.613281 280.570312 305.257812 279.78125 305.257812 L 277.226562 305.257812 C 276.4375 305.257812 275.792969 304.613281 275.792969 303.828125 C 275.792969 303.039062 276.4375 302.394531 277.226562 302.394531 " fill-opacity="1" fill-rule="evenodd"/><path fill="#93998f" d="M 285.96875 302.394531 L 288.527344 302.394531 C 289.3125 302.394531 289.957031 303.039062 289.957031 303.828125 C 289.957031 304.613281 289.3125 305.257812 288.527344 305.257812 L 285.96875 305.257812 C 285.179688 305.257812 284.535156 304.613281 284.535156 303.828125 C 284.535156 303.039062 285.179688 302.394531 285.96875 302.394531 " fill-opacity="1" fill-rule="evenodd"/><path fill="#93998f" d="M 294.714844 302.394531 L 297.269531 302.394531 C 298.058594 302.394531 298.699219 303.039062 298.699219 303.828125 C 298.699219 304.613281 298.058594 305.257812 297.269531 305.257812 L 294.714844 305.257812 C 293.925781 305.257812 293.28125 304.613281 293.28125 303.828125 C 293.28125 303.039062 293.925781 302.394531 294.714844 302.394531 " fill-opacity="1" fill-rule="evenodd"/><path fill="#93998f" d="M 303.457031 302.394531 L 306.015625 302.394531 C 306.804688 302.394531 307.445312 303.039062 307.445312 303.828125 C 307.445312 304.613281 306.804688 305.257812 306.015625 305.257812 L 303.457031 305.257812 C 302.671875 305.257812 302.027344 304.613281 302.027344 303.828125 C 302.027344 303.039062 302.671875 302.394531 303.457031 302.394531 " fill-opacity="1" fill-rule="evenodd"/><path fill="#93998f" d="M 312.203125 302.394531 L 314.757812 302.394531 C 315.546875 302.394531 316.191406 303.039062 316.191406 303.828125 C 316.191406 304.613281 315.546875 305.257812 314.757812 305.257812 L 312.203125 305.257812 C 311.414062 305.257812 310.773438 304.613281 310.773438 303.828125 C 310.773438 303.039062 311.414062 302.394531 312.203125 302.394531 " fill-opacity="1" fill-rule="evenodd"/><path fill="#93998f" d="M 320.945312 302.394531 L 323.503906 302.394531 C 324.292969 302.394531 324.9375 303.039062 324.9375 303.828125 C 324.9375 304.613281 324.292969 305.257812 323.503906 305.257812 L 320.945312 305.257812 C 320.15625 305.257812 319.515625 304.613281 319.515625 303.828125 C 319.515625 303.039062 320.15625 302.394531 320.945312 302.394531 " fill-opacity="1" fill-rule="evenodd"/><path fill="#93998f" d="M 329.691406 302.394531 L 332.246094 302.394531 C 333.039062 302.394531 333.679688 303.039062 333.679688 303.828125 C 333.679688 304.613281 333.039062 305.257812 332.246094 305.257812 L 329.691406 305.257812 C 328.90625 305.257812 328.261719 304.613281 328.261719 303.828125 C 328.261719 303.039062 328.90625 302.394531 329.691406 302.394531 " fill-opacity="1" fill-rule="evenodd"/><path fill="#93998f" d="M 338.433594 302.394531 L 340.992188 302.394531 C 341.78125 302.394531 342.425781 303.039062 342.425781 303.828125 C 342.425781 304.613281 341.78125 305.257812 340.992188 305.257812 L 338.433594 305.257812 C 337.648438 305.257812 337.003906 304.613281 337.003906 303.828125 C 337.003906 303.039062 337.648438 302.394531 338.433594 302.394531 " fill-opacity="1" fill-rule="evenodd"/><path fill="#93998f" d="M 126.65625 302.394531 L 129.210938 302.394531 C 129.996094 302.394531 130.640625 303.039062 130.640625 303.828125 C 130.640625 304.613281 129.996094 305.257812 129.210938 305.257812 L 126.65625 305.257812 C 125.867188 305.257812 125.222656 304.613281 125.222656 303.828125 C 125.222656 303.039062 125.867188 302.394531 126.65625 302.394531 " fill-opacity="1" fill-rule="evenodd"/><path fill="#93998f" d="M 135.398438 302.394531 L 137.957031 302.394531 C 138.742188 302.394531 139.386719 303.039062 139.386719 303.828125 C 139.386719 304.613281 138.742188 305.257812 137.957031 305.257812 L 135.398438 305.257812 C 134.609375 305.257812 133.964844 304.613281 133.964844 303.828125 C 133.964844 303.039062 134.609375 302.394531 135.398438 302.394531 " fill-opacity="1" fill-rule="evenodd"/><path fill="#93998f" d="M 144.144531 302.394531 L 146.699219 302.394531 C 147.488281 302.394531 148.132812 303.039062 148.132812 303.828125 C 148.132812 304.613281 147.488281 305.257812 146.699219 305.257812 L 144.144531 305.257812 C 143.355469 305.257812 142.710938 304.613281 142.710938 303.828125 C 142.710938 303.039062 143.355469 302.394531 144.144531 302.394531 " fill-opacity="1" fill-rule="evenodd"/><path fill="#93998f" d="M 152.886719 302.394531 L 155.445312 302.394531 C 156.234375 302.394531 156.878906 303.039062 156.878906 303.828125 C 156.878906 304.613281 156.234375 305.257812 155.445312 305.257812 L 152.886719 305.257812 C 152.097656 305.257812 151.457031 304.613281 151.457031 303.828125 C 151.457031 303.039062 152.097656 302.394531 152.886719 302.394531 " fill-opacity="1" fill-rule="evenodd"/><path fill="#93998f" d="M 161.632812 302.394531 L 164.1875 302.394531 C 164.976562 302.394531 165.621094 303.039062 165.621094 303.828125 C 165.621094 304.613281 164.976562 305.257812 164.1875 305.257812 L 161.632812 305.257812 C 160.847656 305.257812 160.203125 304.613281 160.203125 303.828125 C 160.203125 303.039062 160.847656 302.394531 161.632812 302.394531 " fill-opacity="1" fill-rule="evenodd"/><path fill="#93998f" d="M 170.375 302.394531 L 172.933594 302.394531 C 173.722656 302.394531 174.367188 303.039062 174.367188 303.828125 C 174.367188 304.613281 173.722656 305.257812 172.933594 305.257812 L 170.375 305.257812 C 169.589844 305.257812 168.945312 304.613281 168.945312 303.828125 C 168.945312 303.039062 169.589844 302.394531 170.375 302.394531 " fill-opacity="1" fill-rule="evenodd"/><path fill="#93998f" d="M 179.121094 302.394531 L 181.675781 302.394531 C 182.464844 302.394531 183.109375 303.039062 183.109375 303.828125 C 183.109375 304.613281 182.464844 305.257812 181.675781 305.257812 L 179.121094 305.257812 C 178.335938 305.257812 177.691406 304.613281 177.691406 303.828125 C 177.691406 303.039062 178.335938 302.394531 179.121094 302.394531 " fill-opacity="1" fill-rule="evenodd"/><path fill="#93998f" d="M 187.863281 302.394531 L 190.425781 302.394531 C 191.210938 302.394531 191.855469 303.039062 191.855469 303.828125 C 191.855469 304.613281 191.210938 305.257812 190.425781 305.257812 L 187.863281 305.257812 C 187.078125 305.257812 186.433594 304.613281 186.433594 303.828125 C 186.433594 303.039062 187.078125 302.394531 187.863281 302.394531 " fill-opacity="1" fill-rule="evenodd"/><path fill="#93998f" d="M 196.609375 302.394531 L 199.167969 302.394531 C 199.953125 302.394531 200.597656 303.039062 200.597656 303.828125 C 200.597656 304.613281 199.953125 305.257812 199.167969 305.257812 L 196.609375 305.257812 C 195.824219 305.257812 195.179688 304.613281 195.179688 303.828125 C 195.179688 303.039062 195.824219 302.394531 196.609375 302.394531 " fill-opacity="1" fill-rule="evenodd"/><path fill="#93998f" d="M 205.355469 302.394531 L 207.914062 302.394531 C 208.699219 302.394531 209.34375 303.039062 209.34375 303.828125 C 209.34375 304.613281 208.699219 305.257812 207.914062 305.257812 L 205.355469 305.257812 C 204.566406 305.257812 203.921875 304.613281 203.921875 303.828125 C 203.921875 303.039062 204.566406 302.394531 205.355469 302.394531 " fill-opacity="1" fill-rule="evenodd"/><path fill="#5d6068" d="M 151.855469 207.710938 L 36.078125 207.710938 C 22.441406 207.710938 11.28125 218.882812 11.28125 232.539062 C 11.28125 246.195312 22.441406 257.367188 36.078125 257.367188 L 249.8125 257.367188 C 255.671875 257.367188 260.46875 252.5625 260.46875 246.695312 C 260.46875 240.828125 255.671875 236.027344 249.8125 236.027344 L 187.515625 236.027344 C 185.640625 236.050781 184.085938 234.421875 184.085938 232.53125 C 184.085938 230.644531 185.640625 229.015625 187.515625 229.039062 L 357.601562 229.039062 C 363.464844 229.039062 368.257812 224.238281 368.257812 218.371094 C 368.257812 212.5 363.464844 207.699219 357.601562 207.699219 L 151.855469 207.699219 L 151.855469 207.710938 " fill-opacity="1" fill-rule="evenodd"/><path fill="#93998f" d="M 157.269531 245.804688 L 154.714844 245.804688 C 153.929688 245.804688 153.285156 246.449219 153.285156 247.234375 C 153.285156 248.027344 153.929688 248.667969 154.714844 248.667969 L 157.269531 248.667969 C 158.058594 248.667969 158.703125 248.027344 158.703125 247.234375 C 158.703125 246.449219 158.058594 245.804688 157.269531 245.804688 " fill-opacity="1" fill-rule="evenodd"/><path fill="#93998f" d="M 148.527344 245.804688 L 145.96875 245.804688 C 145.183594 245.804688 144.535156 246.449219 144.535156 247.234375 C 144.535156 248.027344 145.183594 248.667969 145.96875 248.667969 L 148.527344 248.667969 C 149.316406 248.667969 149.960938 248.027344 149.960938 247.234375 C 149.960938 246.449219 149.316406 245.804688 148.527344 245.804688 " fill-opacity="1" fill-rule="evenodd"/><path fill="#93998f" d="M 139.78125 245.804688 L 137.226562 245.804688 C 136.4375 245.804688 135.792969 246.449219 135.792969 247.234375 C 135.792969 248.027344 136.4375 248.667969 137.226562 248.667969 L 139.78125 248.667969 C 140.570312 248.667969 141.214844 248.027344 141.214844 247.234375 C 141.214844 246.449219 140.570312 245.804688 139.78125 245.804688 " fill-opacity="1" fill-rule="evenodd"/><path fill="#93998f" d="M 131.039062 245.804688 L 128.480469 245.804688 C 127.691406 245.804688 127.046875 246.449219 127.046875 247.234375 C 127.046875 248.027344 127.691406 248.667969 128.480469 248.667969 L 131.039062 248.667969 C 131.824219 248.667969 132.472656 248.027344 132.472656 247.234375 C 132.472656 246.449219 131.824219 245.804688 131.039062 245.804688 " fill-opacity="1" fill-rule="evenodd"/><path fill="#93998f" d="M 122.292969 245.804688 L 119.738281 245.804688 C 118.949219 245.804688 118.304688 246.449219 118.304688 247.234375 C 118.304688 248.027344 118.949219 248.667969 119.738281 248.667969 L 122.292969 248.667969 C 123.078125 248.667969 123.722656 248.027344 123.722656 247.234375 C 123.722656 246.449219 123.078125 245.804688 122.292969 245.804688 " fill-opacity="1" fill-rule="evenodd"/><path fill="#93998f" d="M 113.550781 245.804688 L 110.992188 245.804688 C 110.203125 245.804688 109.558594 246.449219 109.558594 247.234375 C 109.558594 248.027344 110.203125 248.667969 110.992188 248.667969 L 113.550781 248.667969 C 114.335938 248.667969 114.980469 248.027344 114.980469 247.234375 C 114.980469 246.449219 114.335938 245.804688 113.550781 245.804688 " fill-opacity="1" fill-rule="evenodd"/><path fill="#93998f" d="M 104.804688 245.804688 L 102.246094 245.804688 C 101.460938 245.804688 100.816406 246.449219 100.816406 247.234375 C 100.816406 248.027344 101.460938 248.667969 102.246094 248.667969 L 104.804688 248.667969 C 105.589844 248.667969 106.234375 248.027344 106.234375 247.234375 C 106.234375 246.449219 105.589844 245.804688 104.804688 245.804688 " fill-opacity="1" fill-rule="evenodd"/><path fill="#93998f" d="M 96.0625 245.804688 L 93.5 245.804688 C 92.714844 245.804688 92.070312 246.449219 92.070312 247.234375 C 92.070312 248.027344 92.714844 248.667969 93.5 248.667969 L 96.0625 248.667969 C 96.847656 248.667969 97.492188 248.027344 97.492188 247.234375 C 97.492188 246.449219 96.847656 245.804688 96.0625 245.804688 " fill-opacity="1" fill-rule="evenodd"/><path fill="#93998f" d="M 87.3125 245.804688 L 84.757812 245.804688 C 83.972656 245.804688 83.328125 246.449219 83.328125 247.234375 C 83.328125 248.027344 83.972656 248.667969 84.757812 248.667969 L 87.3125 248.667969 C 88.101562 248.667969 88.746094 248.027344 88.746094 247.234375 C 88.746094 246.449219 88.101562 245.804688 87.3125 245.804688 " fill-opacity="1" fill-rule="evenodd"/><path fill="#93998f" d="M 78.570312 245.804688 L 76.011719 245.804688 C 75.226562 245.804688 74.582031 246.449219 74.582031 247.234375 C 74.582031 248.027344 75.226562 248.667969 76.011719 248.667969 L 78.570312 248.667969 C 79.359375 248.667969 80.003906 248.027344 80.003906 247.234375 C 80.003906 246.449219 79.359375 245.804688 78.570312 245.804688 " fill-opacity="1" fill-rule="evenodd"/><path fill="#93998f" d="M 69.824219 245.804688 L 67.269531 245.804688 C 66.484375 245.804688 65.839844 246.449219 65.839844 247.234375 C 65.839844 248.027344 66.484375 248.667969 67.269531 248.667969 L 69.824219 248.667969 C 70.613281 248.667969 71.257812 248.027344 71.257812 247.234375 C 71.257812 246.449219 70.613281 245.804688 69.824219 245.804688 " fill-opacity="1" fill-rule="evenodd"/><path fill="#93998f" d="M 61.082031 245.804688 L 58.523438 245.804688 C 57.738281 245.804688 57.09375 246.449219 57.09375 247.234375 C 57.09375 248.027344 57.738281 248.667969 58.523438 248.667969 L 61.082031 248.667969 C 61.871094 248.667969 62.515625 248.027344 62.515625 247.234375 C 62.515625 246.449219 61.871094 245.804688 61.082031 245.804688 " fill-opacity="1" fill-rule="evenodd"/><path fill="#93998f" d="M 52.335938 245.804688 L 49.78125 245.804688 C 48.992188 245.804688 48.347656 246.449219 48.347656 247.234375 C 48.347656 248.027344 48.992188 248.667969 49.78125 248.667969 L 52.335938 248.667969 C 53.125 248.667969 53.769531 248.027344 53.769531 247.234375 C 53.769531 246.449219 53.125 245.804688 52.335938 245.804688 " fill-opacity="1" fill-rule="evenodd"/><path fill="#93998f" d="M 43.59375 245.804688 L 41.035156 245.804688 C 40.246094 245.804688 39.601562 246.449219 39.601562 247.234375 C 39.601562 248.027344 40.246094 248.667969 41.035156 248.667969 L 43.59375 248.667969 C 44.378906 248.667969 45.023438 248.027344 45.023438 247.234375 C 45.023438 246.449219 44.378906 245.804688 43.59375 245.804688 " fill-opacity="1" fill-rule="evenodd"/><path fill="#93998f" d="M 34.847656 245.804688 L 32.292969 245.804688 C 31.503906 245.804688 30.859375 246.449219 30.859375 247.234375 C 30.859375 248.027344 31.503906 248.667969 32.292969 248.667969 L 34.847656 248.667969 C 35.632812 248.667969 36.277344 248.027344 36.277344 247.234375 C 36.277344 246.449219 35.632812 245.804688 34.847656 245.804688 " fill-opacity="1" fill-rule="evenodd"/><path fill="#93998f" d="M 246.628906 245.804688 L 244.070312 245.804688 C 243.285156 245.804688 242.640625 246.449219 242.640625 247.234375 C 242.640625 248.027344 243.285156 248.667969 244.070312 248.667969 L 246.628906 248.667969 C 247.417969 248.667969 248.0625 248.027344 248.0625 247.234375 C 248.0625 246.449219 247.417969 245.804688 246.628906 245.804688 " fill-opacity="1" fill-rule="evenodd"/><path fill="#93998f" d="M 237.882812 245.804688 L 235.328125 245.804688 C 234.542969 245.804688 233.898438 246.449219 233.898438 247.234375 C 233.898438 248.027344 234.542969 248.667969 235.328125 248.667969 L 237.882812 248.667969 C 238.675781 248.667969 239.316406 248.027344 239.316406 247.234375 C 239.316406 246.449219 238.675781 245.804688 237.882812 245.804688 " fill-opacity="1" fill-rule="evenodd"/><path fill="#93998f" d="M 229.140625 245.804688 L 226.582031 245.804688 C 225.792969 245.804688 225.152344 246.449219 225.152344 247.234375 C 225.152344 248.027344 225.792969 248.667969 226.582031 248.667969 L 229.140625 248.667969 C 229.929688 248.667969 230.574219 248.027344 230.574219 247.234375 C 230.574219 246.449219 229.929688 245.804688 229.140625 245.804688 " fill-opacity="1" fill-rule="evenodd"/><path fill="#93998f" d="M 220.394531 245.804688 L 217.839844 245.804688 C 217.050781 245.804688 216.410156 246.449219 216.410156 247.234375 C 216.410156 248.027344 217.050781 248.667969 217.839844 248.667969 L 220.394531 248.667969 C 221.183594 248.667969 221.828125 248.027344 221.828125 247.234375 C 221.828125 246.449219 221.183594 245.804688 220.394531 245.804688 " fill-opacity="1" fill-rule="evenodd"/><path fill="#93998f" d="M 211.652344 245.804688 L 209.09375 245.804688 C 208.308594 245.804688 207.664062 246.449219 207.664062 247.234375 C 207.664062 248.027344 208.308594 248.667969 209.09375 248.667969 L 211.652344 248.667969 C 212.441406 248.667969 213.082031 248.027344 213.082031 247.234375 C 213.082031 246.449219 212.441406 245.804688 211.652344 245.804688 " fill-opacity="1" fill-rule="evenodd"/><path fill="#93998f" d="M 202.90625 245.804688 L 200.351562 245.804688 C 199.5625 245.804688 198.917969 246.449219 198.917969 247.234375 C 198.917969 248.027344 199.5625 248.667969 200.351562 248.667969 L 202.90625 248.667969 C 203.695312 248.667969 204.335938 248.027344 204.335938 247.234375 C 204.335938 246.449219 203.695312 245.804688 202.90625 245.804688 " fill-opacity="1" fill-rule="evenodd"/><path fill="#93998f" d="M 194.164062 245.804688 L 191.605469 245.804688 C 190.816406 245.804688 190.171875 246.449219 190.171875 247.234375 C 190.171875 248.027344 190.816406 248.667969 191.605469 248.667969 L 194.164062 248.667969 C 194.949219 248.667969 195.59375 248.027344 195.59375 247.234375 C 195.59375 246.449219 194.949219 245.804688 194.164062 245.804688 " fill-opacity="1" fill-rule="evenodd"/><path fill="#93998f" d="M 185.417969 245.804688 L 182.863281 245.804688 C 182.074219 245.804688 181.429688 246.449219 181.429688 247.234375 C 181.429688 248.027344 182.074219 248.667969 182.863281 248.667969 L 185.417969 248.667969 C 186.207031 248.667969 186.847656 248.027344 186.847656 247.234375 C 186.847656 246.449219 186.207031 245.804688 185.417969 245.804688 " fill-opacity="1" fill-rule="evenodd"/><path fill="#93998f" d="M 176.675781 245.804688 L 174.117188 245.804688 C 173.328125 245.804688 172.683594 246.449219 172.683594 247.234375 C 172.683594 248.027344 173.328125 248.667969 174.117188 248.667969 L 176.675781 248.667969 C 177.460938 248.667969 178.105469 248.027344 178.105469 247.234375 C 178.105469 246.449219 177.460938 245.804688 176.675781 245.804688 " fill-opacity="1" fill-rule="evenodd"/><path fill="#93998f" d="M 167.929688 245.804688 L 165.371094 245.804688 C 164.585938 245.804688 163.941406 246.449219 163.941406 247.234375 C 163.941406 248.027344 164.585938 248.667969 165.371094 248.667969 L 167.929688 248.667969 C 168.71875 248.667969 169.359375 248.027344 169.359375 247.234375 C 169.359375 246.449219 168.71875 245.804688 167.929688 245.804688 " fill-opacity="1" fill-rule="evenodd"/><path fill="#d0a816" d="M 300.945312 263.90625 L 222.078125 263.90625 C 220.589844 263.90625 219.367188 265.132812 219.367188 266.625 L 219.367188 289.464844 C 219.367188 290.964844 220.589844 292.1875 222.078125 292.1875 L 230.773438 292.1875 C 230.625 291.503906 230.542969 290.800781 230.542969 290.078125 C 230.542969 284.695312 234.902344 280.332031 240.277344 280.332031 C 245.652344 280.332031 250.011719 284.695312 250.011719 290.078125 C 250.011719 290.800781 249.929688 291.503906 249.78125 292.1875 L 274.5625 292.1875 C 274.414062 291.503906 274.332031 290.800781 274.332031 290.078125 C 274.332031 284.695312 278.691406 280.332031 284.066406 280.332031 C 289.441406 280.332031 293.800781 284.695312 293.800781 290.078125 C 293.800781 290.800781 293.722656 291.503906 293.570312 292.1875 L 314.964844 292.1875 C 316.457031 292.1875 317.679688 290.964844 317.679688 289.464844 C 317.679688 288.035156 316.535156 286.277344 315.472656 284.117188 C 312.519531 278.109375 312.136719 263.90625 300.945312 263.90625 " fill-opacity="1" fill-rule="evenodd"/><path fill="#ed1c24" d="M 219.367188 272.300781 L 219.367188 279.605469 C 219.898438 279.894531 220.503906 280.058594 221.148438 280.058594 C 223.226562 280.058594 224.921875 278.355469 224.921875 276.28125 L 224.921875 275.628906 C 224.921875 273.550781 223.226562 271.851562 221.148438 271.851562 C 220.503906 271.851562 219.898438 272.011719 219.367188 272.300781 " fill-opacity="1" fill-rule="evenodd"/><path fill="#faed19" d="M 281.703125 247.183594 C 279.453125 247.183594 277.207031 247.183594 274.960938 247.183594 C 269.820312 247.183594 271.441406 250.679688 273.554688 253.214844 L 282.476562 263.90625 L 300.945312 263.90625 C 302.59375 263.90625 302.503906 263.382812 301.308594 262.21875 L 288.203125 249.429688 C 285.683594 246.96875 285.253906 247.183594 281.703125 247.183594 " fill-opacity="1" fill-rule="evenodd"/><path fill="#85d8f7" d="M 283.195312 250.097656 C 281.832031 250.097656 280.464844 250.097656 279.101562 250.097656 C 276.277344 250.097656 276.792969 252.222656 278.199219 253.886719 L 286.695312 263.90625 L 300.074219 263.90625 L 288.507812 252.277344 C 286.371094 250.128906 286.230469 250.097656 283.195312 250.097656 " fill-opacity="1" fill-rule="evenodd"/><path fill="#122126" d="M 284.066406 282.398438 C 279.832031 282.398438 276.394531 285.835938 276.394531 290.082031 C 276.394531 294.320312 279.832031 297.761719 284.066406 297.761719 C 288.304688 297.761719 291.738281 294.320312 291.738281 290.082031 C 291.738281 285.835938 288.304688 282.398438 284.066406 282.398438 " fill-opacity="1" fill-rule="evenodd"/><path fill="#6b8095" d="M 284.066406 285.835938 C 281.730469 285.835938 279.832031 287.738281 279.832031 290.082031 C 279.832031 292.421875 281.730469 294.320312 284.066406 294.320312 C 286.40625 294.320312 288.304688 292.421875 288.304688 290.082031 C 288.304688 287.738281 286.40625 285.835938 284.066406 285.835938 " fill-opacity="1" fill-rule="evenodd"/><path fill="#91dbe3" d="M 284.066406 288.265625 C 283.066406 288.265625 282.253906 289.078125 282.253906 290.082031 C 282.253906 291.078125 283.066406 291.894531 284.066406 291.894531 C 285.066406 291.894531 285.878906 291.078125 285.878906 290.082031 C 285.878906 289.078125 285.066406 288.265625 284.066406 288.265625 " fill-opacity="1" fill-rule="evenodd"/><path fill="#122126" d="M 240.34375 282.398438 C 236.105469 282.398438 232.667969 285.835938 232.667969 290.082031 C 232.667969 294.320312 236.105469 297.761719 240.34375 297.761719 C 244.578125 297.761719 248.011719 294.320312 248.011719 290.082031 C 248.011719 285.835938 244.578125 282.398438 240.34375 282.398438 " fill-opacity="1" fill-rule="evenodd"/><path fill="#6b8095" d="M 240.34375 285.835938 C 238.003906 285.835938 236.105469 287.738281 236.105469 290.082031 C 236.105469 292.421875 238.003906 294.320312 240.34375 294.320312 C 242.683594 294.320312 244.578125 292.421875 244.578125 290.082031 C 244.578125 287.738281 242.683594 285.835938 240.34375 285.835938 " fill-opacity="1" fill-rule="evenodd"/><path fill="#91dbe3" d="M 240.34375 288.265625 C 239.34375 288.265625 238.53125 289.078125 238.53125 290.082031 C 238.53125 291.078125 239.34375 291.894531 240.34375 291.894531 C 241.34375 291.894531 242.152344 291.078125 242.152344 290.082031 C 242.152344 289.078125 241.34375 288.265625 240.34375 288.265625 " fill-opacity="1" fill-rule="evenodd"/><path fill="#d8ecf7" d="M 219.367188 279.605469 L 219.367188 283.136719 L 222.234375 283.136719 L 222.234375 279.898438 C 221.890625 280.003906 221.527344 280.058594 221.148438 280.058594 C 220.503906 280.058594 219.898438 279.894531 219.367188 279.605469 " fill-opacity="1" fill-rule="evenodd"/><path fill="#dba614" d="M 251.683594 263.90625 L 253.449219 263.90625 L 253.449219 279.675781 L 251.683594 279.675781 Z M 251.683594 263.90625 " fill-opacity="1" fill-rule="evenodd"/><path fill="#e6cf7d" d="M 257.492188 270.960938 L 263.203125 270.960938 L 263.203125 268.632812 L 257.492188 268.632812 Z M 257.492188 270.960938 " fill-opacity="1" fill-rule="nonzero"/><path fill="#e6cf7d" d="M 299.347656 277.367188 L 253.449219 277.367188 L 253.449219 272.609375 L 296.972656 272.609375 C 298.28125 272.609375 299.347656 273.679688 299.347656 274.988281 L 299.347656 277.367188 M 251.683594 277.367188 L 226.015625 277.367188 L 226.015625 272.609375 L 251.683594 272.609375 L 251.683594 277.367188 " fill-opacity="1" fill-rule="nonzero"/><path fill="#edce7b" d="M 251.683594 277.367188 L 253.449219 277.367188 L 253.449219 272.609375 L 251.683594 272.609375 Z M 251.683594 277.367188 " fill-opacity="1" fill-rule="nonzero"/><path fill="#faed19" d="M 303.46875 268.644531 C 300.683594 270.75 300.832031 275.636719 303.792969 279.5625 C 306.75 283.480469 311.410156 284.957031 314.191406 282.851562 C 314.390625 282.703125 314.574219 282.535156 314.742188 282.355469 C 313.300781 278.324219 312.285156 272.382812 309.421875 268.335938 C 307.269531 267.40625 305.058594 267.4375 303.46875 268.644531 " fill-opacity="1" fill-rule="evenodd"/><path fill="#bb5524" d="M 313.359375 277.832031 C 312.941406 276.371094 312.488281 274.855469 311.945312 273.382812 C 310.109375 270.957031 307.230469 270.046875 305.507812 271.347656 C 303.785156 272.652344 303.875 275.679688 305.707031 278.109375 C 307.542969 280.539062 310.429688 281.453125 312.148438 280.148438 C 312.855469 279.613281 313.257812 278.789062 313.359375 277.832031 " fill-opacity="1" fill-rule="evenodd"/><path fill="#edf9f9" d="M 307.292969 273.714844 C 306.496094 274.316406 306.539062 275.714844 307.386719 276.839844 C 308.234375 277.960938 309.570312 278.386719 310.367188 277.78125 C 311.164062 277.183594 311.121094 275.78125 310.273438 274.65625 C 309.421875 273.53125 308.089844 273.109375 307.292969 273.714844 " fill-opacity="1" fill-rule="evenodd"/><path fill="#d85926" d="M 264.277344 256.5625 C 263.386719 256.5625 262.65625 257.292969 262.65625 258.191406 L 262.65625 263.90625 L 271.160156 263.90625 L 264.277344 256.5625 " fill-opacity="1" fill-rule="evenodd"/><path fill="#bb5324" d="M 234.664062 256.5625 C 233.769531 256.5625 233.039062 257.292969 233.039062 258.191406 L 233.039062 263.90625 L 241.539062 263.90625 L 234.664062 256.5625 " fill-opacity="1" fill-rule="evenodd"/><path fill="#872125" d="M 231.414062 258.308594 C 232.308594 258.308594 233.039062 258.867188 233.039062 259.542969 L 233.039062 263.90625 L 224.535156 263.90625 L 231.414062 258.308594 " fill-opacity="1" fill-rule="evenodd"/><path fill="#639933" d="M 34.398438 172.277344 C 43.070312 172.277344 50.144531 165.195312 50.144531 156.507812 C 50.144531 147.824219 43.070312 140.742188 34.398438 140.742188 C 25.71875 140.742188 18.648438 147.824219 18.648438 156.507812 C 18.648438 165.195312 25.71875 172.277344 34.398438 172.277344 " fill-opacity="1" fill-rule="evenodd"/><path fill="#8fd34e" d="M 31.609375 146.1875 C 35.601562 146.1875 38.855469 142.925781 38.855469 138.929688 C 38.855469 134.929688 35.601562 131.671875 31.609375 131.671875 C 27.617188 131.671875 24.363281 134.929688 24.363281 138.929688 C 24.363281 142.925781 27.617188 146.1875 31.609375 146.1875 " fill-opacity="1" fill-rule="evenodd"/><path fill="#75b63d" d="M 39.414062 154.277344 C 44.171875 154.277344 48.054688 150.390625 48.054688 145.625 C 48.054688 140.863281 44.171875 136.972656 39.414062 136.972656 C 34.652344 136.972656 30.773438 140.863281 30.773438 145.625 C 30.773438 150.390625 34.652344 154.277344 39.414062 154.277344 " fill-opacity="1" fill-rule="evenodd"/><path fill="#8fd350" d="M 26.589844 176.328125 C 31.964844 176.328125 36.347656 171.9375 36.347656 166.554688 C 36.347656 161.179688 31.964844 156.792969 26.589844 156.792969 C 21.21875 156.792969 16.835938 161.179688 16.835938 166.554688 C 16.835938 171.9375 21.21875 176.328125 26.589844 176.328125 " fill-opacity="1" fill-rule="evenodd"/><path fill="#8d3a27" d="M 41.210938 170.730469 L 41.210938 175.914062 C 41.210938 176.917969 40.390625 177.742188 39.390625 177.742188 L 35.300781 177.742188 L 35.300781 210.050781 C 35.300781 210.550781 34.894531 210.960938 34.398438 210.960938 C 33.898438 210.960938 33.488281 210.550781 33.488281 210.050781 L 33.488281 187.714844 L 29.214844 187.714844 C 28.210938 187.714844 27.390625 186.894531 27.390625 185.886719 L 27.390625 176.292969 L 27.414062 176.289062 L 27.539062 176.277344 L 27.628906 176.273438 L 27.699219 176.261719 L 27.769531 176.257812 L 27.792969 176.253906 L 27.882812 176.242188 L 28.027344 176.21875 L 28.03125 176.21875 L 28.054688 176.214844 L 28.101562 176.210938 L 28.121094 176.207031 L 28.148438 176.199219 L 28.167969 176.199219 L 28.378906 176.164062 L 28.449219 176.148438 L 28.472656 176.144531 L 28.492188 176.140625 L 28.519531 176.136719 L 28.585938 176.121094 L 28.613281 176.117188 L 28.65625 176.105469 L 28.679688 176.101562 L 28.703125 176.09375 L 28.726562 176.09375 L 28.863281 176.0625 L 28.882812 176.054688 L 28.882812 184.332031 C 28.882812 185.335938 29.703125 186.160156 30.707031 186.160156 L 33.488281 186.160156 L 33.488281 173.460938 C 33.859375 173.09375 34.191406 172.699219 34.5 172.277344 C 34.769531 172.277344 35.035156 172.269531 35.300781 172.253906 L 35.300781 176.1875 L 37.894531 176.1875 C 38.898438 176.1875 39.71875 175.367188 39.71875 174.363281 L 39.71875 171.355469 L 39.742188 171.34375 L 39.882812 171.296875 L 39.933594 171.277344 L 39.957031 171.265625 L 40.050781 171.230469 L 40.078125 171.21875 L 40.097656 171.210938 L 40.25 171.152344 L 40.449219 171.070312 L 40.476562 171.0625 L 40.476562 171.058594 L 40.566406 171.023438 C 40.660156 170.980469 40.753906 170.941406 40.847656 170.902344 L 40.867188 170.890625 L 40.890625 170.878906 L 40.894531 170.878906 L 40.914062 170.871094 C 41.015625 170.824219 41.109375 170.777344 41.210938 170.730469 " fill-opacity="1" fill-rule="evenodd"/><path fill="#639933" d="M 117.804688 274.710938 C 126.480469 274.710938 133.554688 267.628906 133.554688 258.945312 C 133.554688 250.261719 126.480469 243.175781 117.804688 243.175781 C 109.128906 243.175781 102.058594 250.261719 102.058594 258.945312 C 102.058594 267.628906 109.128906 274.710938 117.804688 274.710938 " fill-opacity="1" fill-rule="evenodd"/><path fill="#8fd34e" d="M 115.015625 248.617188 C 119.007812 248.617188 122.265625 245.355469 122.265625 241.363281 C 122.265625 237.363281 119.007812 234.105469 115.015625 234.105469 C 111.027344 234.105469 107.769531 237.363281 107.769531 241.363281 C 107.769531 245.355469 111.027344 248.617188 115.015625 248.617188 " fill-opacity="1" fill-rule="evenodd"/><path fill="#75b63d" d="M 122.824219 256.710938 C 127.582031 256.710938 131.460938 252.824219 131.460938 248.058594 C 131.460938 243.292969 127.582031 239.40625 122.824219 239.40625 C 118.0625 239.40625 114.179688 243.292969 114.179688 248.058594 C 114.179688 252.824219 118.0625 256.710938 122.824219 256.710938 " fill-opacity="1" fill-rule="evenodd"/><path fill="#8fd350" d="M 110 278.757812 C 115.371094 278.757812 119.753906 274.371094 119.753906 268.992188 C 119.753906 263.609375 115.371094 259.222656 110 259.222656 C 104.625 259.222656 100.242188 263.609375 100.242188 268.992188 C 100.242188 274.371094 104.625 278.757812 110 278.757812 " fill-opacity="1" fill-rule="evenodd"/><g clip-path="url(#bc8fdfdfa5)"><path fill="#8d3a27" d="M 124.621094 273.164062 L 124.621094 278.351562 C 124.621094 279.355469 123.800781 280.175781 122.796875 280.175781 L 118.710938 280.175781 L 118.710938 312.488281 C 118.710938 312.984375 118.304688 313.390625 117.804688 313.390625 C 117.308594 313.390625 116.898438 312.984375 116.898438 312.488281 L 116.898438 290.148438 L 112.621094 290.148438 C 111.617188 290.148438 110.796875 289.324219 110.796875 288.324219 L 110.796875 278.726562 L 110.824219 278.726562 L 110.949219 278.710938 L 111.035156 278.703125 L 111.0625 278.703125 L 111.109375 278.695312 L 111.179688 278.6875 L 111.203125 278.683594 L 111.289062 278.675781 L 111.433594 278.652344 L 111.464844 278.652344 L 111.511719 278.644531 L 111.53125 278.636719 L 111.554688 278.636719 L 111.671875 278.617188 L 111.761719 278.601562 L 111.789062 278.59375 L 111.855469 278.582031 L 111.882812 278.578125 L 111.902344 278.574219 L 111.925781 278.570312 L 111.996094 278.554688 L 112.015625 278.546875 L 112.042969 278.546875 L 112.0625 278.539062 L 112.089844 278.535156 L 112.109375 278.53125 L 112.136719 278.523438 L 112.269531 278.492188 L 112.292969 278.488281 L 112.292969 286.765625 C 112.292969 287.769531 113.113281 288.59375 114.117188 288.59375 L 116.898438 288.59375 L 116.898438 275.894531 C 117.265625 275.53125 117.601562 275.132812 117.90625 274.710938 C 118.175781 274.710938 118.441406 274.703125 118.710938 274.6875 L 118.710938 278.621094 L 121.304688 278.621094 C 122.304688 278.621094 123.125 277.800781 123.125 276.792969 L 123.125 273.789062 L 123.152344 273.777344 L 123.292969 273.726562 L 123.320312 273.71875 L 123.34375 273.710938 L 123.460938 273.664062 L 123.484375 273.65625 L 123.507812 273.644531 L 123.660156 273.585938 L 123.859375 273.503906 L 123.886719 273.492188 L 123.972656 273.457031 C 124.066406 273.417969 124.164062 273.375 124.257812 273.332031 L 124.300781 273.3125 L 124.324219 273.300781 C 124.421875 273.257812 124.519531 273.210938 124.617188 273.164062 L 124.621094 273.164062 " fill-opacity="1" fill-rule="evenodd"/></g><g clip-path="url(#f0ac91f130)"><path fill="#639933" d="M 358.613281 189.132812 C 367.285156 189.132812 374.363281 182.050781 374.363281 173.363281 C 374.363281 164.679688 367.285156 157.59375 358.613281 157.59375 C 349.9375 157.59375 342.863281 164.679688 342.863281 173.363281 C 342.863281 182.050781 349.9375 189.132812 358.613281 189.132812 " fill-opacity="1" fill-rule="evenodd"/></g><path fill="#8fd34e" d="M 355.824219 163.039062 C 359.816406 163.039062 363.070312 159.777344 363.070312 155.78125 C 363.070312 151.78125 359.816406 148.527344 355.824219 148.527344 C 351.832031 148.527344 348.574219 151.78125 348.574219 155.78125 C 348.574219 159.777344 351.832031 163.039062 355.824219 163.039062 " fill-opacity="1" fill-rule="evenodd"/><path fill="#75b63d" d="M 363.632812 171.128906 C 368.386719 171.128906 372.269531 167.246094 372.269531 162.476562 C 372.269531 157.714844 368.386719 153.828125 363.632812 153.828125 C 358.871094 153.828125 354.988281 157.714844 354.988281 162.476562 C 354.988281 167.246094 358.871094 171.128906 363.632812 171.128906 " fill-opacity="1" fill-rule="evenodd"/><path fill="#8fd350" d="M 350.808594 193.179688 C 356.179688 193.179688 360.5625 188.792969 360.5625 183.410156 C 360.5625 178.03125 356.179688 173.644531 350.808594 173.644531 C 345.433594 173.644531 341.050781 178.03125 341.050781 183.410156 C 341.050781 188.792969 345.433594 193.179688 350.808594 193.179688 " fill-opacity="1" fill-rule="evenodd"/><path fill="#8d3a27" d="M 365.425781 187.582031 L 365.425781 192.769531 C 365.425781 193.777344 364.609375 194.597656 363.601562 194.597656 L 359.515625 194.597656 L 359.515625 226.90625 C 359.515625 227.402344 359.109375 227.8125 358.613281 227.8125 C 358.117188 227.8125 357.707031 227.402344 357.707031 226.90625 L 357.707031 204.566406 L 353.429688 204.566406 C 352.425781 204.566406 351.605469 203.746094 351.605469 202.742188 L 351.605469 193.148438 L 351.628906 193.144531 L 351.84375 193.125 L 351.890625 193.117188 L 351.914062 193.117188 L 351.988281 193.109375 L 352.011719 193.101562 L 352.09375 193.09375 L 352.242188 193.074219 L 352.246094 193.074219 L 352.316406 193.0625 L 352.363281 193.058594 L 352.386719 193.050781 L 352.480469 193.035156 L 352.570312 193.019531 L 352.597656 193.015625 L 352.664062 193 L 352.734375 192.988281 L 352.804688 192.972656 L 352.824219 192.96875 L 352.871094 192.960938 L 352.898438 192.953125 L 352.917969 192.949219 L 352.941406 192.945312 L 353.078125 192.914062 L 353.101562 192.90625 L 353.101562 201.1875 C 353.101562 202.191406 353.921875 203.011719 354.925781 203.011719 L 357.707031 203.011719 L 357.707031 190.316406 C 358.070312 189.949219 358.410156 189.554688 358.710938 189.132812 C 358.980469 189.128906 359.25 189.121094 359.515625 189.105469 L 359.515625 193.042969 L 362.113281 193.042969 C 363.113281 193.042969 363.933594 192.21875 363.933594 191.214844 L 363.933594 188.207031 L 363.960938 188.199219 L 364.101562 188.148438 L 364.125 188.136719 L 364.171875 188.121094 L 364.269531 188.085938 L 364.289062 188.074219 L 364.316406 188.066406 L 364.464844 188.003906 L 364.667969 187.925781 L 364.691406 187.914062 L 364.78125 187.875 C 364.875 187.835938 364.96875 187.792969 365.0625 187.753906 L 365.085938 187.742188 L 365.128906 187.722656 C 365.226562 187.675781 365.328125 187.628906 365.421875 187.582031 L 365.425781 187.582031 " fill-opacity="1" fill-rule="evenodd"/><g clip-path="url(#4b95ec19bc)"><path fill="#66ccce" d="M 118.203125 8.4375 C 130.355469 8.4375 140.578125 16.519531 143.550781 27.480469 C 144.066406 27.445312 144.585938 27.421875 145.109375 27.421875 C 157.136719 27.421875 166.886719 37.1875 166.886719 49.226562 C 166.886719 61.269531 157.136719 71.03125 145.109375 71.03125 C 137.972656 71.03125 131.632812 67.589844 127.660156 62.273438 C 125.417969 63.429688 122.871094 64.078125 120.175781 64.078125 C 115.828125 64.078125 111.875 62.386719 108.941406 59.617188 C 105.398438 64.976562 99.382812 68.503906 92.558594 68.503906 C 85.03125 68.503906 78.488281 64.210938 75.164062 57.902344 C 73.085938 59.402344 70.539062 60.289062 67.785156 60.289062 C 60.8125 60.289062 55.160156 54.625 55.160156 47.648438 C 55.160156 40.667969 60.8125 35.007812 67.785156 35.007812 C 70.820312 35.007812 73.609375 36.082031 75.789062 37.871094 C 79.269531 32.171875 85.476562 28.371094 92.558594 28.371094 L 92.632812 28.371094 C 95.28125 16.960938 105.726562 8.4375 118.203125 8.4375 " fill-opacity="1" fill-rule="evenodd"/></g><path fill="#ffffff" d="M 143.488281 36.667969 C 151.234375 36.667969 157.75 41.816406 159.644531 48.804688 C 159.976562 48.785156 160.308594 48.769531 160.640625 48.769531 C 168.308594 48.769531 174.527344 54.996094 174.527344 62.671875 C 174.527344 70.347656 168.308594 76.574219 160.640625 76.574219 C 156.089844 76.574219 152.050781 74.378906 149.515625 70.988281 C 148.082031 71.722656 146.460938 72.140625 144.742188 72.140625 C 141.96875 72.140625 139.449219 71.0625 137.578125 69.296875 C 135.320312 72.710938 131.488281 74.960938 127.136719 74.960938 C 122.335938 74.960938 118.164062 72.226562 116.042969 68.203125 C 114.722656 69.15625 113.097656 69.722656 111.339844 69.722656 C 106.898438 69.722656 103.292969 66.113281 103.292969 61.664062 C 103.292969 57.214844 106.898438 53.605469 111.339844 53.605469 C 113.277344 53.605469 115.054688 54.292969 116.445312 55.433594 C 118.664062 51.796875 122.621094 49.375 127.136719 49.375 L 127.183594 49.375 C 128.875 42.101562 135.53125 36.667969 143.488281 36.667969 " fill-opacity="1" fill-rule="evenodd"/><path fill="#66ccce" d="M 279.046875 81.425781 C 272.308594 81.425781 266.640625 85.910156 264.988281 91.988281 C 264.707031 91.96875 264.417969 91.957031 264.125 91.957031 C 257.457031 91.957031 252.046875 97.371094 252.046875 104.050781 C 252.046875 110.726562 257.457031 116.144531 264.125 116.144531 C 268.085938 116.144531 271.601562 114.234375 273.800781 111.289062 C 275.046875 111.925781 276.457031 112.289062 277.953125 112.289062 C 280.363281 112.289062 282.554688 111.347656 284.1875 109.816406 C 286.152344 112.789062 289.488281 114.742188 293.273438 114.742188 C 297.445312 114.742188 301.074219 112.363281 302.921875 108.859375 C 304.070312 109.695312 305.484375 110.183594 307.011719 110.183594 C 310.878906 110.183594 314.011719 107.042969 314.011719 103.171875 C 314.011719 99.304688 310.878906 96.164062 307.011719 96.164062 C 305.328125 96.164062 303.78125 96.757812 302.574219 97.753906 C 300.640625 94.589844 297.199219 92.480469 293.273438 92.480469 L 293.230469 92.484375 C 291.761719 86.152344 285.96875 81.425781 279.046875 81.425781 " fill-opacity="1" fill-rule="evenodd"/><path fill="#ffffff" d="M 265.023438 97.085938 C 260.726562 97.085938 257.117188 99.941406 256.0625 103.816406 C 255.878906 103.804688 255.699219 103.796875 255.507812 103.796875 C 251.257812 103.796875 247.8125 107.25 247.8125 111.507812 C 247.8125 115.765625 251.257812 119.21875 255.507812 119.21875 C 258.035156 119.21875 260.277344 118 261.679688 116.117188 C 262.472656 116.527344 263.375 116.761719 264.328125 116.761719 C 265.867188 116.761719 267.261719 116.160156 268.300781 115.183594 C 269.554688 117.078125 271.683594 118.320312 274.09375 118.320312 C 276.753906 118.320312 279.070312 116.804688 280.242188 114.574219 C 280.980469 115.105469 281.882812 115.417969 282.851562 115.417969 C 285.320312 115.417969 287.320312 113.417969 287.320312 110.945312 C 287.320312 108.480469 285.320312 106.476562 282.851562 106.476562 C 281.78125 106.476562 280.792969 106.859375 280.023438 107.492188 C 278.792969 105.476562 276.597656 104.132812 274.09375 104.132812 L 274.066406 104.132812 C 273.128906 100.097656 269.4375 97.085938 265.023438 97.085938 " fill-opacity="1" fill-rule="evenodd"/><path fill="#fde27c" d="M 288.914062 207.585938 L 139.425781 207.585938 L 139.425781 201.148438 C 139.425781 199.867188 138.382812 198.820312 137.105469 198.820312 L 136.042969 198.820312 C 133.90625 190.042969 125.304688 178.929688 117.050781 178.929688 L 86.894531 178.929688 C 97.011719 133.007812 137.910156 98.640625 186.8125 98.640625 C 243.3125 98.640625 289.128906 144.515625 289.128906 201.082031 C 289.128906 203.269531 289.050781 205.433594 288.914062 207.585938 M 132.507812 198.820312 L 119.210938 198.820312 L 119.210938 182.140625 C 125.050781 184.6875 131.398438 192.324219 132.507812 198.820312 M 115.867188 198.820312 L 84.519531 198.820312 C 84.644531 193.207031 85.214844 187.703125 86.203125 182.347656 L 115.867188 182.347656 L 115.867188 198.820312 " fill-opacity="1" fill-rule="nonzero"/><path fill="#ef3520" d="M 119.210938 182.140625 C 125.050781 184.6875 131.398438 192.324219 132.507812 198.820312 L 119.210938 198.820312 L 119.210938 182.140625 M 115.867188 182.347656 L 115.867188 198.820312 L 80.496094 198.820312 L 80.496094 182.347656 L 115.867188 182.347656 M 137.105469 198.820312 L 136.042969 198.820312 C 133.90625 190.042969 125.304688 178.929688 117.050781 178.929688 L 74.890625 178.929688 L 74.890625 181.089844 L 76.175781 181.089844 L 76.0625 198.820312 L 59.535156 198.820312 C 46.140625 198.820312 40.722656 225.890625 48.328125 225.890625 L 66.066406 225.890625 C 65.894531 225.164062 65.800781 224.402344 65.800781 223.621094 C 65.800781 218.152344 70.230469 213.71875 75.691406 213.71875 C 81.148438 213.71875 85.578125 218.152344 85.578125 223.621094 C 85.578125 224.402344 85.488281 225.164062 85.3125 225.890625 L 110.210938 225.890625 C 110.039062 225.164062 109.945312 224.402344 109.945312 223.621094 C 109.945312 218.152344 114.375 213.71875 119.835938 213.71875 C 125.296875 213.71875 129.722656 218.152344 129.722656 223.621094 C 129.722656 224.402344 129.632812 225.164062 129.460938 225.890625 L 137.105469 225.890625 C 138.382812 225.890625 139.425781 224.847656 139.425781 223.566406 L 139.425781 201.148438 C 139.425781 199.867188 138.382812 198.820312 137.105469 198.820312 " fill-opacity="1" fill-rule="evenodd"/><path fill="#bc232a" d="M 128.144531 218.25 C 129.144531 219.800781 129.722656 221.640625 129.722656 223.621094 C 129.722656 224.402344 129.632812 225.164062 129.460938 225.890625 L 137.105469 225.890625 C 138.382812 225.890625 139.425781 224.847656 139.425781 223.566406 L 139.425781 218.25 Z M 84 218.25 C 85 219.800781 85.578125 221.640625 85.578125 223.621094 C 85.578125 224.402344 85.488281 225.164062 85.3125 225.890625 L 110.210938 225.890625 C 110.039062 225.164062 109.945312 224.402344 109.945312 223.621094 C 109.945312 221.640625 110.527344 219.800781 111.527344 218.25 Z M 44.914062 218.25 C 44.597656 222.570312 45.664062 225.890625 48.328125 225.890625 L 66.066406 225.890625 C 65.894531 225.164062 65.800781 224.402344 65.800781 223.621094 C 65.800781 221.640625 66.382812 219.800781 67.378906 218.25 L 44.914062 218.25 " fill-opacity="1" fill-rule="evenodd"/><path fill="#f9e919" d="M 53.363281 200.945312 C 50.082031 203.347656 47.667969 207.484375 46.265625 211.703125 C 46.5 213.1875 47.152344 214.445312 48.207031 215.199219 C 50.65625 216.949219 54.339844 215.328125 56.433594 211.585938 C 58.523438 207.84375 58.238281 203.390625 55.789062 201.644531 C 55.0625 201.125 54.230469 200.902344 53.363281 200.945312 " fill-opacity="1" fill-rule="evenodd"/><path fill="#e3eb24" d="M 44.9375 217.972656 C 44.820312 219.347656 44.835938 220.625 44.996094 221.734375 L 49.300781 221.734375 C 50.335938 221.734375 51.179688 220.890625 51.179688 219.855469 C 51.179688 218.820312 50.335938 217.972656 49.300781 217.972656 L 44.9375 217.972656 " fill-opacity="1" fill-rule="evenodd"/><path fill="#f68920" d="M 139.425781 215.625 L 139.425781 210.558594 C 139.121094 210.394531 138.773438 210.304688 138.402344 210.304688 L 137.753906 210.304688 C 136.554688 210.304688 135.574219 211.285156 135.574219 212.492188 L 135.574219 213.695312 C 135.574219 214.894531 136.554688 215.882812 137.753906 215.882812 L 138.402344 215.882812 C 138.773438 215.882812 139.121094 215.789062 139.425781 215.625 " fill-opacity="1" fill-rule="evenodd"/><path fill="#8cd9dc" d="M 115.867188 182.347656 L 80.496094 182.347656 L 80.496094 198.820312 L 115.867188 198.820312 L 115.867188 182.347656 " fill-opacity="1" fill-rule="evenodd"/><path fill="#8fdadc" d="M 119.210938 182.140625 C 125.050781 184.6875 131.398438 192.324219 132.507812 198.820312 L 119.210938 198.820312 L 119.210938 182.140625 " fill-opacity="1" fill-rule="evenodd"/><path fill="#254872" d="M 132.070312 196.988281 C 132.257812 197.605469 132.40625 198.21875 132.507812 198.820312 L 119.210938 198.820312 L 119.210938 196.988281 L 132.070312 196.988281 " fill-opacity="1" fill-rule="evenodd"/><path fill="#254872" d="M 115.867188 196.988281 L 80.496094 196.988281 L 80.496094 198.820312 L 115.867188 198.820312 L 115.867188 196.988281 " fill-opacity="1" fill-rule="evenodd"/><path fill="#c2eae6" d="M 100.6875 182.347656 L 94.074219 182.347656 L 94.074219 196.988281 L 100.6875 196.988281 L 100.6875 182.347656 " fill-opacity="1" fill-rule="evenodd"/><path fill="#cceef0" d="M 90.101562 182.347656 L 88.503906 182.347656 L 88.503906 196.988281 L 90.101562 196.988281 L 90.101562 182.347656 " fill-opacity="1" fill-rule="evenodd"/><path fill="#cceeee" d="M 103.542969 182.347656 L 102.359375 182.347656 L 102.359375 196.988281 L 103.542969 196.988281 L 103.542969 182.347656 " fill-opacity="1" fill-rule="evenodd"/><path fill="#6992a0" d="M 112.175781 182.347656 L 109.601562 182.347656 L 109.601562 196.988281 L 112.175781 196.988281 L 112.175781 182.347656 " fill-opacity="1" fill-rule="evenodd"/><path fill="#8cd9d8" d="M 60.234375 198.820312 L 74.890625 180.007812 L 74.890625 181.089844 L 76.175781 181.089844 L 76.0625 198.820312 L 60.234375 198.820312 " fill-opacity="1" fill-rule="evenodd"/><path fill="#cceeee" d="M 73.949219 181.21875 L 74.890625 180.007812 L 74.890625 181.089844 L 76.175781 181.089844 L 76.074219 196.988281 L 73.949219 196.988281 L 73.949219 181.21875 " fill-opacity="1" fill-rule="evenodd"/><path fill="#264773" d="M 60.234375 198.820312 L 61.660156 196.988281 L 76.074219 196.988281 L 76.0625 198.820312 L 60.234375 198.820312 " fill-opacity="1" fill-rule="evenodd"/><path fill="#15231a" d="M 119.835938 214.90625 C 115.027344 214.90625 111.132812 218.808594 111.132812 223.621094 C 111.132812 228.429688 115.027344 232.335938 119.835938 232.335938 C 124.640625 232.335938 128.539062 228.429688 128.539062 223.621094 C 128.539062 218.808594 124.640625 214.90625 119.835938 214.90625 " fill-opacity="1" fill-rule="evenodd"/><path fill="#6c6e7c" d="M 119.835938 219.15625 C 117.375 219.15625 115.378906 221.15625 115.378906 223.621094 C 115.378906 226.082031 117.375 228.078125 119.835938 228.078125 C 122.296875 228.078125 124.292969 226.082031 124.292969 223.621094 C 124.292969 221.15625 122.296875 219.15625 119.835938 219.15625 " fill-opacity="1" fill-rule="evenodd"/><path fill="#f5dac3" d="M 119.835938 222.085938 C 118.992188 222.085938 118.304688 222.773438 118.304688 223.621094 C 118.304688 224.464844 118.992188 225.152344 119.835938 225.152344 C 120.679688 225.152344 121.367188 224.464844 121.367188 223.621094 C 121.367188 222.773438 120.679688 222.085938 119.835938 222.085938 " fill-opacity="1" fill-rule="evenodd"/><path fill="#15231a" d="M 75.792969 214.90625 C 70.988281 214.90625 67.089844 218.808594 67.089844 223.621094 C 67.089844 228.429688 70.988281 232.335938 75.792969 232.335938 C 80.601562 232.335938 84.496094 228.429688 84.496094 223.621094 C 84.496094 218.808594 80.601562 214.90625 75.792969 214.90625 " fill-opacity="1" fill-rule="evenodd"/><path fill="#6c6e7c" d="M 75.792969 219.15625 C 73.332031 219.15625 71.339844 221.15625 71.339844 223.621094 C 71.339844 226.082031 73.332031 228.078125 75.792969 228.078125 C 78.253906 228.078125 80.25 226.082031 80.25 223.621094 C 80.25 221.15625 78.253906 219.15625 75.792969 219.15625 " fill-opacity="1" fill-rule="evenodd"/><path fill="#f5dac3" d="M 75.792969 222.085938 C 74.949219 222.085938 74.265625 222.773438 74.265625 223.621094 C 74.265625 224.464844 74.949219 225.152344 75.792969 225.152344 C 76.640625 225.152344 77.324219 224.464844 77.324219 223.621094 C 77.324219 222.773438 76.640625 222.085938 75.792969 222.085938 " fill-opacity="1" fill-rule="evenodd"/><path fill="#f5dac3" d="M 54.03125 204.089844 C 52.625 203.316406 50.617188 204.265625 49.550781 206.210938 C 48.480469 208.160156 48.753906 210.367188 50.160156 211.140625 C 51.566406 211.910156 53.570312 210.964844 54.640625 209.015625 C 55.707031 207.070312 55.433594 204.863281 54.03125 204.089844 " fill-opacity="1" fill-rule="evenodd"/><path fill="#f57652" d="M 134.875 208.210938 L 59.257812 208.210938 L 59.257812 204.03125 C 59.257812 201.957031 60.949219 200.265625 63.015625 200.265625 L 134.875 200.265625 L 134.875 208.210938 " fill-opacity="1" fill-rule="nonzero"/><path fill="#db9c15" d="M 170.402344 204.230469 L 204.484375 204.230469 C 205.605469 204.230469 206.523438 205.144531 206.523438 206.269531 L 206.523438 215.644531 C 206.523438 216.765625 205.605469 217.683594 204.484375 217.683594 L 170.402344 217.683594 C 169.28125 217.683594 168.359375 216.765625 168.359375 215.644531 L 168.359375 206.269531 C 168.359375 205.144531 169.28125 204.230469 170.402344 204.230469 " fill-opacity="1" fill-rule="evenodd"/><path fill="#db9c15" d="M 170.402344 221.53125 L 204.484375 221.53125 C 205.605469 221.53125 206.523438 222.449219 206.523438 223.574219 L 206.523438 232.945312 C 206.523438 234.070312 205.605469 234.988281 204.484375 234.988281 L 170.402344 234.988281 C 169.28125 234.988281 168.359375 234.070312 168.359375 232.945312 L 168.359375 223.574219 C 168.359375 222.449219 169.28125 221.53125 170.402344 221.53125 " fill-opacity="1" fill-rule="evenodd"/><path fill="#db9c15" d="M 170.402344 238.832031 L 204.484375 238.832031 C 205.605469 238.832031 206.523438 239.75 206.523438 240.875 L 206.523438 250.246094 C 206.523438 251.371094 205.605469 252.289062 204.484375 252.289062 L 170.402344 252.289062 C 169.28125 252.289062 168.359375 251.371094 168.359375 250.246094 L 168.359375 240.875 C 168.359375 239.75 169.28125 238.832031 170.402344 238.832031 " fill-opacity="1" fill-rule="evenodd"/><path fill="#db9c15" d="M 185.28125 257.097656 L 189.601562 257.097656 L 189.601562 294.34375 C 189.601562 295.535156 188.632812 296.507812 187.445312 296.507812 C 186.253906 296.507812 185.28125 295.535156 185.28125 294.34375 L 185.28125 257.097656 " fill-opacity="1" fill-rule="evenodd"/><path fill="#faf7e3" d="M 181.441406 199.664062 L 193.441406 199.664062 C 194.894531 199.664062 196.082031 200.851562 196.082031 202.308594 L 196.082031 254.453125 C 196.082031 255.90625 194.894531 257.097656 193.441406 257.097656 L 181.441406 257.097656 C 179.988281 257.097656 178.800781 255.90625 178.800781 254.453125 L 178.800781 202.308594 C 178.800781 200.851562 179.988281 199.664062 181.441406 199.664062 " fill-opacity="1" fill-rule="evenodd"/><path fill="#faba14" d="M 187.445312 221.652344 C 191.152344 221.652344 194.164062 224.664062 194.164062 228.378906 C 194.164062 232.097656 191.152344 235.109375 187.445312 235.109375 C 183.730469 235.109375 180.71875 232.097656 180.71875 228.378906 C 180.71875 224.664062 183.730469 221.652344 187.445312 221.652344 " fill-opacity="1" fill-rule="evenodd"/><path fill="#bc232a" d="M 187.445312 204.230469 C 191.152344 204.230469 194.164062 207.242188 194.164062 210.957031 C 194.164062 214.671875 191.152344 217.683594 187.445312 217.683594 C 183.730469 217.683594 180.71875 214.671875 180.71875 210.957031 C 180.71875 207.242188 183.730469 204.230469 187.445312 204.230469 " fill-opacity="1" fill-rule="evenodd"/><path fill="#7ab948" d="M 187.445312 239.070312 C 191.152344 239.070312 194.164062 242.085938 194.164062 245.804688 C 194.164062 249.515625 191.152344 252.527344 187.445312 252.527344 C 183.730469 252.527344 180.71875 249.515625 180.71875 245.804688 C 180.71875 242.085938 183.730469 239.070312 187.445312 239.070312 " fill-opacity="1" fill-rule="evenodd"/><path fill="#639933" d="M 18.101562 246.3125 C 26.777344 246.3125 33.851562 239.226562 33.851562 230.542969 C 33.851562 221.855469 26.777344 214.773438 18.101562 214.773438 C 9.425781 214.773438 2.351562 221.855469 2.351562 230.542969 C 2.351562 239.226562 9.425781 246.3125 18.101562 246.3125 " fill-opacity="1" fill-rule="evenodd"/><path fill="#8fd34e" d="M 15.3125 220.21875 C 19.308594 220.21875 22.558594 216.957031 22.558594 212.960938 C 22.558594 208.960938 19.308594 205.703125 15.3125 205.703125 C 11.320312 205.703125 8.066406 208.960938 8.066406 212.960938 C 8.066406 216.957031 11.320312 220.21875 15.3125 220.21875 " fill-opacity="1" fill-rule="evenodd"/><path fill="#75b63d" d="M 23.121094 228.308594 C 27.878906 228.308594 31.757812 224.421875 31.757812 219.65625 C 31.757812 214.894531 27.878906 211.007812 23.121094 211.007812 C 18.359375 211.007812 14.476562 214.894531 14.476562 219.65625 C 14.476562 224.421875 18.359375 228.308594 23.121094 228.308594 " fill-opacity="1" fill-rule="evenodd"/><g clip-path="url(#d676783448)"><path fill="#8fd350" d="M 10.296875 250.355469 C 15.671875 250.355469 20.054688 245.972656 20.054688 240.589844 C 20.054688 235.207031 15.671875 230.824219 10.296875 230.824219 C 4.921875 230.824219 0.539062 235.207031 0.539062 240.589844 C 0.539062 245.972656 4.921875 250.355469 10.296875 250.355469 " fill-opacity="1" fill-rule="evenodd"/></g><path fill="#8d3a27" d="M 24.917969 244.761719 L 24.917969 249.949219 C 24.917969 250.949219 24.09375 251.773438 23.09375 251.773438 L 19.007812 251.773438 L 19.007812 284.082031 C 19.007812 284.582031 18.597656 284.992188 18.101562 284.992188 C 17.605469 284.992188 17.195312 284.582031 17.195312 284.082031 L 17.195312 261.746094 L 12.917969 261.746094 C 11.914062 261.746094 11.09375 260.925781 11.09375 259.917969 L 11.09375 250.324219 L 11.121094 250.320312 L 11.246094 250.3125 L 11.332031 250.304688 L 11.382812 250.296875 L 11.40625 250.292969 L 11.476562 250.285156 L 11.5 250.28125 L 11.585938 250.273438 L 11.734375 250.25 L 11.757812 250.246094 L 11.804688 250.242188 L 11.875 250.230469 L 11.945312 250.214844 L 11.96875 250.214844 L 12.0625 250.199219 L 12.085938 250.191406 L 12.152344 250.179688 L 12.179688 250.175781 L 12.199219 250.171875 L 12.222656 250.167969 L 12.292969 250.152344 L 12.316406 250.148438 L 12.339844 250.140625 L 12.359375 250.140625 L 12.40625 250.125 L 12.429688 250.125 L 12.566406 250.089844 L 12.589844 250.085938 L 12.589844 258.367188 C 12.589844 259.371094 13.410156 260.191406 14.414062 260.191406 L 17.195312 260.191406 L 17.195312 247.496094 C 17.5625 247.125 17.898438 246.734375 18.203125 246.3125 C 18.472656 246.308594 18.742188 246.300781 19.007812 246.285156 L 19.007812 250.21875 L 21.601562 250.21875 C 22.605469 250.21875 23.421875 249.398438 23.421875 248.394531 L 23.421875 245.386719 L 23.449219 245.378906 L 23.589844 245.328125 L 23.617188 245.316406 L 23.636719 245.308594 L 23.664062 245.296875 L 23.757812 245.261719 L 23.804688 245.246094 L 23.953125 245.1875 L 24.15625 245.101562 L 24.183594 245.089844 L 24.273438 245.054688 C 24.363281 245.011719 24.457031 244.972656 24.550781 244.929688 L 24.574219 244.921875 L 24.59375 244.910156 L 24.597656 244.910156 L 24.621094 244.898438 C 24.71875 244.855469 24.816406 244.808594 24.914062 244.761719 L 24.917969 244.761719 " fill-opacity="1" fill-rule="evenodd"/></svg>